IBM Plex Mono-Thin.ufo
<glyph name="exclam" format="2">
  <advance width="600"/>
  <unicode hex="0021"/>
  <outline>
    <contour>
      <point x="306" y="176" type="line"/>
      <point x="311" y="415" type="line"/>
      <point x="311" y="698" type="line"/>
      <point x="289" y="698" type="line"/>
      <point x="289" y="415" type="line"/>
      <point x="294" y="176" type="line"/>
    </contour>
    <contour>
      <point x="300" y="-5" type="curve" smooth="yes"/>
      <point x="322" y="-5"/>
      <point x="334" y="5"/>
      <point x="334" y="22" type="curve" smooth="yes"/>
      <point x="334" y="30" type="line" smooth="yes"/>
      <point x="334" y="47"/>
      <point x="322" y="57"/>
      <point x="300" y="57" type="curve" smooth="yes"/>
      <point x="278" y="57"/>
      <point x="266" y="47"/>
      <point x="266" y="30" type="curve" smooth="yes"/>
      <point x="266" y="22" type="line" smooth="yes"/>
      <point x="266" y="5"/>
      <point x="278" y="-5"/>
    </contour>
  </outline>
</glyph>
<glyph name="quotesingle" format="2">
  <advance width="600"/>
  <unicode hex="0027"/>
  <outline>
    <contour>
      <point x="312" y="490" type="line"/>
      <point x="312" y="740" type="line"/>
      <point x="288" y="740" type="line"/>
      <point x="288" y="490" type="line"/>
    </contour>
  </outline>
</glyph>
<glyph name="parenright" format="2">
  <advance width="600"/>
  <unicode hex="0029"/>
  <outline>
    <contour>
      <point x="362" y="311" type="curve" smooth="yes"/>
      <point x="362" y="515"/>
      <point x="273" y="670"/>
      <point x="161" y="760" type="curve"/>
      <point x="135" y="760" type="line"/>
      <point x="253" y="668"/>
      <point x="341" y="511"/>
      <point x="341" y="328" type="curve" smooth="yes"/>
      <point x="341" y="294" type="line" smooth="yes"/>
      <point x="341" y="111"/>
      <point x="253" y="-46"/>
      <point x="135" y="-138" type="curve"/>
      <point x="161" y="-138" type="line"/>
      <point x="273" y="-48"/>
      <point x="362" y="107"/>
    </contour>
  </outline>
</glyph>
<glyph name="asterisk" format="2">
  <advance width="600"/>
  <unicode hex="002A"/>
  <outline>
    <contour>
      <point x="300" y="275" type="line"/>
      <point x="459" y="57" type="line"/>
      <point x="476" y="69" type="line"/>
      <point x="318" y="285" type="line"/>
      <point x="553" y="359" type="line"/>
      <point x="547" y="378" type="line"/>
      <point x="311" y="304" type="line"/>
      <point x="311" y="555" type="line"/>
      <point x="290" y="555" type="line"/>
      <point x="290" y="304" type="line"/>
      <point x="54" y="378" type="line"/>
      <point x="48" y="359" type="line"/>
      <point x="283" y="285" type="line"/>
      <point x="125" y="69" type="line"/>
      <point x="142" y="57" type="line"/>
    </contour>
  </outline>
</glyph>
<glyph name="hyphen" format="2">
  <advance width="600"/>
  <unicode hex="002D"/>
  <outline>
    <contour>
      <point x="432" y="295" type="line"/>
      <point x="432" y="315" type="line"/>
      <point x="168" y="315" type="line"/>
      <point x="168" y="295" type="line"/>
    </contour>
  </outline>
</glyph>
<glyph name="period" format="2">
  <advance width="600"/>
  <unicode hex="002E"/>
  <outline>
    <contour>
      <point x="300" y="-5" type="curve" smooth="yes"/>
      <point x="322" y="-5"/>
      <point x="334" y="5"/>
      <point x="334" y="22" type="curve" smooth="yes"/>
      <point x="334" y="30" type="line" smooth="yes"/>
      <point x="334" y="47"/>
      <point x="322" y="57"/>
      <point x="300" y="57" type="curve" smooth="yes"/>
      <point x="278" y="57"/>
      <point x="266" y="47"/>
      <point x="266" y="30" type="curve" smooth="yes"/>
      <point x="266" y="22" type="line" smooth="yes"/>
      <point x="266" y="5"/>
      <point x="278" y="-5"/>
    </contour>
  </outline>
</glyph>
<glyph name="one" format="2">
  <advance width="600"/>
  <unicode hex="0031"/>
  <outline>
    <contour>
      <point x="550" y="0" type="line"/>
      <point x="550" y="20" type="line"/>
      <point x="339" y="20" type="line"/>
      <point x="339" y="698" type="line"/>
      <point x="301" y="698" type="line"/>
      <point x="85" y="517" type="line"/>
      <point x="98" y="501" type="line"/>
      <point x="314" y="682" type="line"/>
      <point x="317" y="682" type="line"/>
      <point x="317" y="20" type="line"/>
      <point x="98" y="20" type="line"/>
      <point x="98" y="0" type="line"/>
    </contour>
  </outline>
</glyph>
<glyph name="four" format="2">
  <advance width="600"/>
  <unicode hex="0034"/>
  <outline>
    <contour>
      <point x="433" y="0" type="line"/>
      <point x="433" y="160" type="line"/>
      <point x="550" y="160" type="line"/>
      <point x="550" y="179" type="line"/>
      <point x="433" y="179" type="line"/>
      <point x="433" y="698" type="line"/>
      <point x="407" y="698" type="line"/>
      <point x="47" y="181" type="line"/>
      <point x="47" y="160" type="line"/>
      <point x="412" y="160" type="line"/>
      <point x="412" y="0" type="line"/>
    </contour>
    <contour>
      <point x="410" y="670" type="line"/>
      <point x="412" y="670" type="line"/>
      <point x="412" y="179" type="line"/>
      <point x="69" y="179" type="line"/>
    </contour>
  </outline>
</glyph>
<glyph name="seven" format="2">
  <advance width="600"/>
  <unicode hex="0037"/>
  <outline>
    <contour>
      <point x="211" y="0" type="line"/>
      <point x="512" y="678" type="line"/>
      <point x="512" y="698" type="line"/>
      <point x="77" y="698" type="line"/>
      <point x="77" y="512" type="line"/>
      <point x="99" y="512" type="line"/>
      <point x="99" y="678" type="line"/>
      <point x="489" y="678" type="line"/>
      <point x="187" y="0" type="line"/>
    </contour>
  </outline>
</glyph>
<glyph name="less" format="2">
  <advance width="600"/>
  <unicode hex="003C"/>
  <outline>
    <contour>
      <point x="515" y="38" type="line"/>
      <point x="515" y="61" type="line"/>
      <point x="108" y="304" type="line"/>
      <point x="108" y="306" type="line"/>
      <point x="515" y="549" type="line"/>
      <point x="515" y="572" type="line"/>
      <point x="85" y="314" type="line"/>
      <point x="85" y="296" type="line"/>
    </contour>
  </outline>
</glyph>
<glyph name="equal" format="2">
  <advance width="600"/>
  <unicode hex="003D"/>
  <outline>
    <contour>
      <point x="538" y="385" type="line"/>
      <point x="538" y="404" type="line"/>
      <point x="62" y="404" type="line"/>
      <point x="62" y="385" type="line"/>
    </contour>
    <contour>
      <point x="538" y="207" type="line"/>
      <point x="538" y="226" type="line"/>
      <point x="62" y="226" type="line"/>
      <point x="62" y="207" type="line"/>
    </contour>
  </outline>
</glyph>
<glyph name="A" format="2">
  <advance width="600"/>
  <unicode hex="0041"/>
  <anchor x="300.0" y="0.0" name="bottom"/>
  <anchor x="548.0" y="0.0" name="bottomright"/>
  <anchor x="300.0" y="698.0" name="top"/>
  <outline>
    <contour>
      <point x="548" y="0" type="line"/>
      <point x="315" y="698" type="line"/>
      <point x="285" y="698" type="line"/>
      <point x="52" y="0" type="line"/>
      <point x="75" y="0" type="line"/>
      <point x="153" y="234" type="line"/>
      <point x="447" y="234" type="line"/>
      <point x="525" y="0" type="line"/>
    </contour>
    <contour>
      <point x="441" y="253" type="line"/>
      <point x="159" y="253" type="line"/>
      <point x="298" y="673" type="line"/>
      <point x="301" y="673" type="line"/>
    </contour>
  </outline>
</glyph>
<glyph name="C" format="2">
  <advance width="600"/>
  <unicode hex="0043"/>
  <anchor x="313.0" y="0.0" name="bottom"/>
  <anchor x="325.0" y="698.0" name="top"/>
  <outline>
    <contour>
      <point x="325" y="-12" type="curve" smooth="yes"/>
      <point x="419" y="-12"/>
      <point x="488" y="43"/>
      <point x="518" y="129" type="curve"/>
      <point x="499" y="136" type="line"/>
      <point x="472" y="57"/>
      <point x="410" y="8"/>
      <point x="325" y="8" type="curve" smooth="yes"/>
      <point x="180" y="8"/>
      <point x="103" y="112"/>
      <point x="103" y="317" type="curve" smooth="yes"/>
      <point x="103" y="381" type="line" smooth="yes"/>
      <point x="103" y="586"/>
      <point x="180" y="690"/>
      <point x="325" y="690" type="curve" smooth="yes"/>
      <point x="410" y="690"/>
      <point x="472" y="641"/>
      <point x="499" y="562" type="curve"/>
      <point x="518" y="569" type="line"/>
      <point x="488" y="655"/>
      <point x="419" y="710"/>
      <point x="325" y="710" type="curve" smooth="yes"/>
      <point x="167" y="710"/>
      <point x="79" y="605"/>
      <point x="79" y="349" type="curve" smooth="yes"/>
      <point x="79" y="93"/>
      <point x="167" y="-12"/>
    </contour>
  </outline>
</glyph>
<glyph name="D" format="2">
  <advance width="600"/>
  <unicode hex="0044"/>
  <anchor x="277.0" y="0.0" name="bottom"/>
  <anchor x="277.0" y="698.0" name="top"/>
  <outline>
    <contour>
      <point x="108" y="0" type="line"/>
      <point x="290" y="0" type="line" smooth="yes"/>
      <point x="457" y="0"/>
      <point x="528" y="118"/>
      <point x="528" y="349" type="curve" smooth="yes"/>
      <point x="528" y="580"/>
      <point x="457" y="698"/>
      <point x="290" y="698" type="curve" smooth="yes"/>
      <point x="108" y="698" type="line"/>
    </contour>
    <contour>
      <point x="130" y="20" type="line"/>
      <point x="130" y="678" type="line"/>
      <point x="291" y="678" type="line" smooth="yes"/>
      <point x="440" y="678"/>
      <point x="504" y="566"/>
      <point x="504" y="381" type="curve" smooth="yes"/>
      <point x="504" y="317" type="line" smooth="yes"/>
      <point x="504" y="132"/>
      <point x="440" y="20"/>
      <point x="291" y="20" type="curve" smooth="yes"/>
    </contour>
  </outline>
</glyph>
<glyph name="E" format="2">
  <advance width="600"/>
  <unicode hex="0045"/>
  <anchor x="307.0" y="0.0" name="bottom"/>
  <anchor x="514.0" y="0.0" name="bottomright"/>
  <anchor x="309.0" y="698.0" name="top"/>
  <outline>
    <contour>
      <point x="514" y="0" type="line"/>
      <point x="514" y="20" type="line"/>
      <point x="130" y="20" type="line"/>
      <point x="130" y="344" type="line"/>
      <point x="500" y="344" type="line"/>
      <point x="500" y="364" type="line"/>
      <point x="130" y="364" type="line"/>
      <point x="130" y="678" type="line"/>
      <point x="514" y="678" type="line"/>
      <point x="514" y="698" type="line"/>
      <point x="108" y="698" type="line"/>
      <point x="108" y="0" type="line"/>
    </contour>
  </outline>
</glyph>
<glyph name="F" format="2">
  <advance width="600"/>
  <unicode hex="0046"/>
  <anchor x="119.0" y="0.0" name="bottom"/>
  <anchor x="309.0" y="698.0" name="top"/>
  <outline>
    <contour>
      <point x="130" y="0" type="line"/>
      <point x="130" y="344" type="line"/>
      <point x="490" y="344" type="line"/>
      <point x="490" y="364" type="line"/>
      <point x="130" y="364" type="line"/>
      <point x="130" y="678" type="line"/>
      <point x="518" y="678" type="line"/>
      <point x="518" y="698" type="line"/>
      <point x="108" y="698" type="line"/>
      <point x="108" y="0" type="line"/>
    </contour>
  </outline>
</glyph>
<glyph name="G" format="2">
  <advance width="600"/>
  <unicode hex="0047"/>
  <anchor x="304.0" y="0.0" name="bottom"/>
  <anchor x="313.0" y="698.0" name="top"/>
  <outline>
    <contour>
      <point x="491" y="0" type="line"/>
      <point x="513" y="0" type="line"/>
      <point x="513" y="315" type="line"/>
      <point x="313" y="315" type="line"/>
      <point x="313" y="295" type="line"/>
      <point x="491" y="295" type="line"/>
      <point x="491" y="195" type="line" smooth="yes"/>
      <point x="491" y="86"/>
      <point x="424" y="8"/>
      <point x="313" y="8" type="curve" smooth="yes"/>
      <point x="174" y="8"/>
      <point x="99" y="112"/>
      <point x="99" y="317" type="curve" smooth="yes"/>
      <point x="99" y="381" type="line" smooth="yes"/>
      <point x="99" y="586"/>
      <point x="174" y="690"/>
      <point x="313" y="690" type="curve" smooth="yes"/>
      <point x="396" y="690"/>
      <point x="458" y="641"/>
      <point x="484" y="562" type="curve"/>
      <point x="503" y="569" type="line"/>
      <point x="474" y="655"/>
      <point x="405" y="710"/>
      <point x="313" y="710" type="curve" smooth="yes"/>
      <point x="161" y="710"/>
      <point x="75" y="605"/>
      <point x="75" y="349" type="curve" smooth="yes"/>
      <point x="75" y="93"/>
      <point x="161" y="-12"/>
      <point x="313" y="-12" type="curve" smooth="yes"/>
      <point x="417" y="-12"/>
      <point x="461" y="38"/>
      <point x="488" y="103" type="curve"/>
      <point x="491" y="103" type="line"/>
    </contour>
  </outline>
</glyph>
<glyph name="H" format="2">
  <advance width="600"/>
  <unicode hex="0048"/>
  <anchor x="300.0" y="0.0" name="bottom"/>
  <anchor x="300.0" y="698.0" name="top"/>
  <outline>
    <contour>
      <point x="480" y="0" type="line"/>
      <point x="502" y="0" type="line"/>
      <point x="502" y="698" type="line"/>
      <point x="480" y="698" type="line"/>
      <point x="480" y="364" type="line"/>
      <point x="120" y="364" type="line"/>
      <point x="120" y="698" type="line"/>
      <point x="98" y="698" type="line"/>
      <point x="98" y="0" type="line"/>
      <point x="120" y="0" type="line"/>
      <point x="120" y="344" type="line"/>
      <point x="480" y="344" type="line"/>
    </contour>
  </outline>
</glyph>
<glyph name="I" format="2">
  <advance width="600"/>
  <unicode hex="0049"/>
  <anchor x="300.0" y="0.0" name="bottom"/>
  <anchor x="508.0" y="0.0" name="bottomright"/>
  <anchor x="300.0" y="698.0" name="top"/>
  <outline>
    <contour>
      <point x="508" y="0" type="line"/>
      <point x="508" y="19" type="line"/>
      <point x="311" y="19" type="line"/>
      <point x="311" y="679" type="line"/>
      <point x="508" y="679" type="line"/>
      <point x="508" y="698" type="line"/>
      <point x="92" y="698" type="line"/>
      <point x="92" y="679" type="line"/>
      <point x="289" y="679" type="line"/>
      <point x="289" y="19" type="line"/>
      <point x="92" y="19" type="line"/>
      <point x="92" y="0" type="line"/>
    </contour>
  </outline>
</glyph>
<glyph name="J" format="2">
  <advance width="600"/>
  <unicode hex="004A"/>
  <anchor x="279.0" y="0.0" name="bottom"/>
  <anchor x="306.0" y="698.0" name="top"/>
  <outline>
    <contour>
      <point x="157" y="698" type="line"/>
      <point x="157" y="678" type="line"/>
      <point x="439" y="678" type="line"/>
      <point x="439" y="191" type="line" smooth="yes"/>
      <point x="439" y="73"/>
      <point x="379" y="8"/>
      <point x="277" y="8" type="curve" smooth="yes"/>
      <point x="187" y="8"/>
      <point x="134" y="53"/>
      <point x="117" y="124" type="curve"/>
      <point x="96" y="119" type="line"/>
      <point x="114" y="37"/>
      <point x="181" y="-12"/>
      <point x="277" y="-12" type="curve" smooth="yes"/>
      <point x="389" y="-12"/>
      <point x="461" y="60"/>
      <point x="461" y="189" type="curve" smooth="yes"/>
      <point x="461" y="698" type="line"/>
    </contour>
  </outline>
</glyph>
<glyph name="K" format="2">
  <advance width="600"/>
  <unicode hex="004B"/>
  <anchor x="323.0" y="0.0" name="bottom"/>
  <anchor x="313.0" y="698.0" name="top"/>
  <outline>
    <contour>
      <point x="522" y="0" type="line"/>
      <point x="548" y="0" type="line"/>
      <point x="280" y="403" type="line"/>
      <point x="545" y="698" type="line"/>
      <point x="519" y="698" type="line"/>
      <point x="269" y="421" type="line"/>
      <point x="132" y="269" type="line"/>
      <point x="130" y="269" type="line"/>
      <point x="130" y="698" type="line"/>
      <point x="108" y="698" type="line"/>
      <point x="108" y="0" type="line"/>
      <point x="130" y="0" type="line"/>
      <point x="130" y="239" type="line"/>
      <point x="264" y="387" type="line"/>
    </contour>
  </outline>
</glyph>
<glyph name="L" format="2">
  <advance width="600"/>
  <unicode hex="004C"/>
  <anchor x="337.0" y="0.0" name="bottom"/>
  <anchor x="156.0" y="698.0" name="top"/>
  <anchor x="273.0" y="740.0" name="topright"/>
  <outline>
    <contour>
      <point x="528" y="0" type="line"/>
      <point x="528" y="20" type="line"/>
      <point x="168" y="20" type="line"/>
      <point x="168" y="698" type="line"/>
      <point x="146" y="698" type="line"/>
      <point x="146" y="0" type="line"/>
    </contour>
  </outline>
</glyph>
<glyph name="M" format="2">
  <advance width="600"/>
  <unicode hex="004D"/>
  <anchor x="300.0" y="0.0" name="bottom"/>
  <anchor x="300.0" y="698.0" name="top"/>
  <outline>
    <contour>
      <point x="494" y="0" type="line"/>
      <point x="515" y="0" type="line"/>
      <point x="515" y="698" type="line"/>
      <point x="483" y="698" type="line"/>
      <point x="302" y="295" type="line"/>
      <point x="299" y="295" type="line"/>
      <point x="117" y="698" type="line"/>
      <point x="85" y="698" type="line"/>
      <point x="85" y="0" type="line"/>
      <point x="106" y="0" type="line"/>
      <point x="106" y="667" type="line"/>
      <point x="109" y="667" type="line"/>
      <point x="300" y="245" type="line"/>
      <point x="491" y="667" type="line"/>
      <point x="494" y="667" type="line"/>
    </contour>
  </outline>
</glyph>
<glyph name="N" format="2">
  <advance width="600"/>
  <unicode hex="004E"/>
  <anchor x="300.0" y="0.0" name="bottom"/>
  <anchor x="300.0" y="698.0" name="top"/>
  <outline>
    <contour>
      <point x="470" y="0" type="line"/>
      <point x="502" y="0" type="line"/>
      <point x="502" y="698" type="line"/>
      <point x="481" y="698" type="line"/>
      <point x="481" y="30" type="line"/>
      <point x="478" y="30" type="line"/>
      <point x="130" y="698" type="line"/>
      <point x="98" y="698" type="line"/>
      <point x="98" y="0" type="line"/>
      <point x="119" y="0" type="line"/>
      <point x="119" y="668" type="line"/>
      <point x="122" y="668" type="line"/>
    </contour>
  </outline>
</glyph>
<glyph name="O" format="2">
  <advance width="600"/>
  <unicode hex="004F"/>
  <anchor x="300.0" y="0.0" name="bottom"/>
  <anchor x="300.0" y="698.0" name="top"/>
  <outline>
    <contour>
      <point x="300" y="-12" type="curve" smooth="yes"/>
      <point x="446" y="-12"/>
      <point x="529" y="93"/>
      <point x="529" y="349" type="curve" smooth="yes"/>
      <point x="529" y="605"/>
      <point x="446" y="710"/>
      <point x="300" y="710" type="curve" smooth="yes"/>
      <point x="154" y="710"/>
      <point x="71" y="605"/>
      <point x="71" y="349" type="curve" smooth="yes"/>
      <point x="71" y="93"/>
      <point x="154" y="-12"/>
    </contour>
    <contour>
      <point x="300" y="8" type="curve" smooth="yes"/>
      <point x="167" y="8"/>
      <point x="95" y="112"/>
      <point x="95" y="317" type="curve" smooth="yes"/>
      <point x="95" y="381" type="line" smooth="yes"/>
      <point x="95" y="586"/>
      <point x="167" y="690"/>
      <point x="300" y="690" type="curve" smooth="yes"/>
      <point x="433" y="690"/>
      <point x="505" y="586"/>
      <point x="505" y="381" type="curve" smooth="yes"/>
      <point x="505" y="317" type="line" smooth="yes"/>
      <point x="505" y="112"/>
      <point x="433" y="8"/>
    </contour>
  </outline>
</glyph>
<glyph name="P" format="2">
  <advance width="600"/>
  <unicode hex="0050"/>
  <anchor x="115.0" y="0.0" name="bottom"/>
  <anchor x="300.0" y="698.0" name="top"/>
  <outline>
    <contour>
      <point x="130" y="0" type="line"/>
      <point x="130" y="322" type="line"/>
      <point x="352" y="322" type="line" smooth="yes"/>
      <point x="466" y="322"/>
      <point x="526" y="396"/>
      <point x="526" y="510" type="curve" smooth="yes"/>
      <point x="526" y="624"/>
      <point x="466" y="698"/>
      <point x="352" y="698" type="curve" smooth="yes"/>
      <point x="108" y="698" type="line"/>
      <point x="108" y="0" type="line"/>
    </contour>
    <contour>
      <point x="130" y="678" type="line"/>
      <point x="352" y="678" type="line" smooth="yes"/>
      <point x="455" y="678"/>
      <point x="502" y="607"/>
      <point x="502" y="531" type="curve" smooth="yes"/>
      <point x="502" y="489" type="line" smooth="yes"/>
      <point x="502" y="413"/>
      <point x="455" y="342"/>
      <point x="352" y="342" type="curve" smooth="yes"/>
      <point x="130" y="342" type="line"/>
    </contour>
  </outline>
</glyph>
<glyph name="Q" format="2">
  <advance width="600"/>
  <unicode hex="0051"/>
  <anchor x="300.0" y="698.0" name="top"/>
  <outline>
    <contour>
      <point x="475" y="-116" type="line"/>
      <point x="311" y="-116" type="line"/>
      <point x="311" y="-12" type="line"/>
      <point x="450" y="-6"/>
      <point x="529" y="99"/>
      <point x="529" y="349" type="curve" smooth="yes"/>
      <point x="529" y="605"/>
      <point x="446" y="710"/>
      <point x="300" y="710" type="curve" smooth="yes"/>
      <point x="154" y="710"/>
      <point x="71" y="605"/>
      <point x="71" y="349" type="curve" smooth="yes"/>
      <point x="71" y="99"/>
      <point x="149" y="-6"/>
      <point x="289" y="-12" type="curve"/>
      <point x="289" y="-107" type="line" smooth="yes"/>
      <point x="289" y="-127"/>
      <point x="299" y="-136"/>
      <point x="319" y="-136" type="curve"/>
      <point x="475" y="-136" type="line"/>
    </contour>
    <contour>
      <point x="300" y="8" type="curve" smooth="yes"/>
      <point x="167" y="8"/>
      <point x="95" y="112"/>
      <point x="95" y="317" type="curve" smooth="yes"/>
      <point x="95" y="381" type="line" smooth="yes"/>
      <point x="95" y="586"/>
      <point x="167" y="690"/>
      <point x="300" y="690" type="curve" smooth="yes"/>
      <point x="433" y="690"/>
      <point x="505" y="586"/>
      <point x="505" y="381" type="curve" smooth="yes"/>
      <point x="505" y="317" type="line" smooth="yes"/>
      <point x="505" y="112"/>
      <point x="433" y="8"/>
    </contour>
  </outline>
</glyph>
<glyph name="T" format="2">
  <advance width="600"/>
  <unicode hex="0054"/>
  <anchor x="300.0" y="0.0" name="bottom"/>
  <anchor x="300.0" y="698.0" name="top"/>
  <outline>
    <contour>
      <point x="559" y="678" type="line"/>
      <point x="559" y="698" type="line"/>
      <point x="41" y="698" type="line"/>
      <point x="41" y="678" type="line"/>
      <point x="289" y="678" type="line"/>
      <point x="289" y="0" type="line"/>
      <point x="311" y="0" type="line"/>
      <point x="311" y="678" type="line"/>
    </contour>
  </outline>
</glyph>
<glyph name="U" format="2">
  <advance width="600"/>
  <unicode hex="0055"/>
  <anchor x="300.0" y="0.0" name="bottom"/>
  <anchor x="390.0" y="0.0" name="bottomright"/>
  <anchor x="300.0" y="698.0" name="top"/>
  <outline>
    <contour>
      <point x="98" y="698" type="line"/>
      <point x="98" y="273" type="line" smooth="yes"/>
      <point x="98" y="54"/>
      <point x="147" y="-12"/>
      <point x="300" y="-12" type="curve" smooth="yes"/>
      <point x="453" y="-12"/>
      <point x="502" y="54"/>
      <point x="502" y="273" type="curve" smooth="yes"/>
      <point x="502" y="698" type="line"/>
      <point x="480" y="698" type="line"/>
      <point x="480" y="273" type="line" smooth="yes"/>
      <point x="480" y="67"/>
      <point x="440" y="8"/>
      <point x="300" y="8" type="curve" smooth="yes"/>
      <point x="160" y="8"/>
      <point x="120" y="67"/>
      <point x="120" y="273" type="curve" smooth="yes"/>
      <point x="120" y="698" type="line"/>
    </contour>
  </outline>
</glyph>
<glyph name="V" format="2">
  <advance width="600"/>
  <unicode hex="0056"/>
  <anchor x="300.0" y="0.0" name="bottom"/>
  <anchor x="300.0" y="698.0" name="top"/>
  <outline>
    <contour>
      <point x="315" y="0" type="line"/>
      <point x="545" y="698" type="line"/>
      <point x="523" y="698" type="line"/>
      <point x="302" y="25" type="line"/>
      <point x="299" y="25" type="line"/>
      <point x="79" y="698" type="line"/>
      <point x="55" y="698" type="line"/>
      <point x="285" y="0" type="line"/>
    </contour>
  </outline>
</glyph>
<glyph name="W" format="2">
  <advance width="600"/>
  <unicode hex="0057"/>
  <anchor x="300.0" y="0.0" name="bottom"/>
  <anchor x="300.0" y="698.0" name="top"/>
  <outline>
    <contour>
      <point x="164" y="0" type="line"/>
      <point x="299" y="454" type="line"/>
      <point x="302" y="454" type="line"/>
      <point x="436" y="0" type="line"/>
      <point x="474" y="0" type="line"/>
      <point x="542" y="698" type="line"/>
      <point x="522" y="698" type="line"/>
      <point x="456" y="22" type="line"/>
      <point x="452" y="22" type="line"/>
      <point x="314" y="484" type="line"/>
      <point x="287" y="484" type="line"/>
      <point x="149" y="22" type="line"/>
      <point x="145" y="22" type="line"/>
      <point x="79" y="698" type="line"/>
      <point x="58" y="698" type="line"/>
      <point x="126" y="0" type="line"/>
    </contour>
  </outline>
</glyph>
<glyph name="X" format="2">
  <advance width="600"/>
  <unicode hex="0058"/>
  <anchor x="300.0" y="0.0" name="bottom"/>
  <anchor x="300.0" y="698.0" name="top"/>
  <outline>
    <contour>
      <point x="314" y="357" type="line"/>
      <point x="542" y="698" type="line"/>
      <point x="516" y="698" type="line"/>
      <point x="302" y="375" type="line"/>
      <point x="299" y="375" type="line"/>
      <point x="85" y="698" type="line"/>
      <point x="58" y="698" type="line"/>
      <point x="287" y="354" type="line"/>
      <point x="49" y="0" type="line"/>
      <point x="75" y="0" type="line"/>
      <point x="299" y="336" type="line"/>
      <point x="302" y="336" type="line"/>
      <point x="524" y="0" type="line"/>
      <point x="551" y="0" type="line"/>
    </contour>
  </outline>
</glyph>
<glyph name="Y" format="2">
  <advance width="600"/>
  <unicode hex="0059"/>
  <anchor x="300.0" y="0.0" name="bottom"/>
  <anchor x="300.0" y="698.0" name="top"/>
  <outline>
    <contour>
      <point x="311" y="0" type="line"/>
      <point x="311" y="294" type="line"/>
      <point x="572" y="698" type="line"/>
      <point x="548" y="698" type="line"/>
      <point x="302" y="318" type="line"/>
      <point x="299" y="318" type="line"/>
      <point x="53" y="698" type="line"/>
      <point x="28" y="698" type="line"/>
      <point x="289" y="294" type="line"/>
      <point x="289" y="0" type="line"/>
    </contour>
  </outline>
</glyph>
<glyph name="Z" format="2">
  <advance width="600"/>
  <unicode hex="005A"/>
  <anchor x="301.0" y="0.0" name="bottom"/>
  <anchor x="300.0" y="698.0" name="top"/>
  <outline>
    <contour>
      <point x="552" y="20" type="line"/>
      <point x="72" y="20" type="line"/>
      <point x="529" y="676" type="line"/>
      <point x="529" y="698" type="line"/>
      <point x="71" y="698" type="line"/>
      <point x="71" y="678" type="line"/>
      <point x="505" y="678" type="line"/>
      <point x="48" y="22" type="line"/>
      <point x="48" y="0" type="line"/>
      <point x="552" y="0" type="line"/>
    </contour>
  </outline>
</glyph>
<glyph name="bracketleft" format="2">
  <advance width="600"/>
  <unicode hex="005B"/>
  <outline>
    <contour>
      <point x="503" y="-138" type="line"/>
      <point x="503" y="-120" type="line"/>
      <point x="285" y="-120" type="line"/>
      <point x="285" y="742" type="line"/>
      <point x="503" y="742" type="line"/>
      <point x="503" y="760" type="line"/>
      <point x="265" y="760" type="line"/>
      <point x="265" y="-138" type="line"/>
    </contour>
  </outline>
</glyph>
<glyph name="bracketright" format="2">
  <advance width="600"/>
  <unicode hex="005D"/>
  <outline>
    <contour>
      <point x="97" y="760" type="line"/>
      <point x="97" y="742" type="line"/>
      <point x="315" y="742" type="line"/>
      <point x="315" y="-120" type="line"/>
      <point x="97" y="-120" type="line"/>
      <point x="97" y="-138" type="line"/>
      <point x="335" y="-138" type="line"/>
      <point x="335" y="760" type="line"/>
    </contour>
  </outline>
</glyph>
<glyph name="grave" format="2">
  <advance width="600"/>
  <unicode hex="0060"/>
  <anchor x="300.0" y="516.0" name="_top"/>
  <outline>
    <contour>
      <point x="317" y="597" type="line"/>
      <point x="332" y="607" type="line"/>
      <point x="221" y="761" type="line"/>
      <point x="202" y="749" type="line"/>
    </contour>
  </outline>
</glyph>
<glyph name="a" format="2">
  <advance width="600"/>
  <unicode hex="0061"/>
  <anchor x="275.0" y="0.0" name="bottom"/>
  <anchor x="531.0" y="0.0" name="bottomright"/>
  <anchor x="275.0" y="516.0" name="top"/>
  <outline>
    <contour>
      <point x="531" y="0" type="line"/>
      <point x="531" y="19" type="line"/>
      <point x="446" y="19" type="line"/>
      <point x="446" y="359" type="line" smooth="yes"/>
      <point x="446" y="466"/>
      <point x="383" y="528"/>
      <point x="275" y="528" type="curve" smooth="yes"/>
      <point x="183" y="528"/>
      <point x="124" y="486"/>
      <point x="95" y="420" type="curve"/>
      <point x="112" y="410" type="line"/>
      <point x="141" y="479"/>
      <point x="202" y="509"/>
      <point x="275" y="509" type="curve" smooth="yes"/>
      <point x="368" y="509"/>
      <point x="425" y="460"/>
      <point x="425" y="356" type="curve" smooth="yes"/>
      <point x="425" y="275" type="line"/>
      <point x="275" y="275" type="line" smooth="yes"/>
      <point x="123" y="275"/>
      <point x="78" y="214"/>
      <point x="78" y="130" type="curve" smooth="yes"/>
      <point x="78" y="39"/>
      <point x="139" y="-12"/>
      <point x="249" y="-12" type="curve" smooth="yes"/>
      <point x="346" y="-12"/>
      <point x="397" y="29"/>
      <point x="422" y="77" type="curve"/>
      <point x="425" y="77" type="line"/>
      <point x="425" y="29" type="line" smooth="yes"/>
      <point x="425" y="9"/>
      <point x="434" y="0"/>
      <point x="454" y="0" type="curve" smooth="yes"/>
    </contour>
    <contour>
      <point x="249" y="7" type="curve" smooth="yes"/>
      <point x="162" y="7"/>
      <point x="101" y="45"/>
      <point x="101" y="114" type="curve" smooth="yes"/>
      <point x="101" y="146" type="line" smooth="yes"/>
      <point x="101" y="212"/>
      <point x="150" y="257"/>
      <point x="276" y="257" type="curve" smooth="yes"/>
      <point x="425" y="257" type="line"/>
      <point x="425" y="148" type="line" smooth="yes"/>
      <point x="425" y="54"/>
      <point x="343" y="7"/>
    </contour>
  </outline>
</glyph>
<glyph name="b" format="2">
  <advance width="600"/>
  <unicode hex="0062"/>
  <anchor x="310.0" y="0.0" name="bottom"/>
  <outline>
    <contour>
      <point x="125" y="0" type="line"/>
      <point x="146" y="0" type="line"/>
      <point x="146" y="78" type="line"/>
      <point x="149" y="78" type="line"/>
      <point x="170" y="34"/>
      <point x="223" y="-12"/>
      <point x="310" y="-12" type="curve" smooth="yes"/>
      <point x="442" y="-12"/>
      <point x="520" y="79"/>
      <point x="520" y="258" type="curve" smooth="yes"/>
      <point x="520" y="437"/>
      <point x="442" y="528"/>
      <point x="310" y="528" type="curve" smooth="yes"/>
      <point x="223" y="528"/>
      <point x="170" y="482"/>
      <point x="149" y="438" type="curve"/>
      <point x="146" y="438" type="line"/>
      <point x="146" y="740" type="line"/>
      <point x="125" y="740" type="line"/>
    </contour>
    <contour>
      <point x="310" y="7" type="curve" smooth="yes"/>
      <point x="224" y="7"/>
      <point x="146" y="62"/>
      <point x="146" y="143" type="curve" smooth="yes"/>
      <point x="146" y="373" type="line" smooth="yes"/>
      <point x="146" y="454"/>
      <point x="224" y="509"/>
      <point x="310" y="509" type="curve" smooth="yes"/>
      <point x="430" y="509"/>
      <point x="497" y="422"/>
      <point x="497" y="282" type="curve" smooth="yes"/>
      <point x="497" y="234" type="line" smooth="yes"/>
      <point x="497" y="94"/>
      <point x="430" y="7"/>
    </contour>
  </outline>
</glyph>
<glyph name="c" format="2">
  <advance width="600"/>
  <unicode hex="0063"/>
  <anchor x="316.0" y="0.0" name="bottom"/>
  <anchor x="320.0" y="516.0" name="top"/>
  <outline>
    <contour>
      <point x="322" y="-12" type="curve" smooth="yes"/>
      <point x="415" y="-12"/>
      <point x="477" y="40"/>
      <point x="503" y="102" type="curve"/>
      <point x="485" y="110" type="line"/>
      <point x="457" y="48"/>
      <point x="402" y="7"/>
      <point x="322" y="7" type="curve" smooth="yes"/>
      <point x="201" y="7"/>
      <point x="133" y="94"/>
      <point x="133" y="234" type="curve" smooth="yes"/>
      <point x="133" y="282" type="line" smooth="yes"/>
      <point x="133" y="422"/>
      <point x="201" y="509"/>
      <point x="322" y="509" type="curve" smooth="yes"/>
      <point x="398" y="509"/>
      <point x="452" y="474"/>
      <point x="477" y="410" type="curve"/>
      <point x="496" y="416" type="line"/>
      <point x="473" y="481"/>
      <point x="412" y="528"/>
      <point x="322" y="528" type="curve" smooth="yes"/>
      <point x="189" y="528"/>
      <point x="110" y="437"/>
      <point x="110" y="258" type="curve" smooth="yes"/>
      <point x="110" y="79"/>
      <point x="189" y="-12"/>
    </contour>
  </outline>
</glyph>
<glyph name="d" format="2">
  <advance width="600"/>
  <unicode hex="0064"/>
  <anchor x="285.0" y="0.0" name="bottom"/>
  <anchor x="545.0" y="740.0" name="topright"/>
  <outline>
    <contour>
      <point x="454" y="0" type="line"/>
      <point x="475" y="0" type="line"/>
      <point x="475" y="740" type="line"/>
      <point x="454" y="740" type="line"/>
      <point x="454" y="438" type="line"/>
      <point x="451" y="438" type="line"/>
      <point x="430" y="482"/>
      <point x="377" y="528"/>
      <point x="290" y="528" type="curve" smooth="yes"/>
      <point x="158" y="528"/>
      <point x="80" y="437"/>
      <point x="80" y="258" type="curve" smooth="yes"/>
      <point x="80" y="79"/>
      <point x="158" y="-12"/>
      <point x="290" y="-12" type="curve" smooth="yes"/>
      <point x="377" y="-12"/>
      <point x="430" y="34"/>
      <point x="451" y="78" type="curve"/>
      <point x="454" y="78" type="line"/>
    </contour>
    <contour>
      <point x="290" y="7" type="curve" smooth="yes"/>
      <point x="170" y="7"/>
      <point x="103" y="94"/>
      <point x="103" y="234" type="curve" smooth="yes"/>
      <point x="103" y="282" type="line" smooth="yes"/>
      <point x="103" y="422"/>
      <point x="170" y="509"/>
      <point x="290" y="509" type="curve" smooth="yes"/>
      <point x="376" y="509"/>
      <point x="454" y="454"/>
      <point x="454" y="373" type="curve" smooth="yes"/>
      <point x="454" y="143" type="line" smooth="yes"/>
      <point x="454" y="62"/>
      <point x="376" y="7"/>
    </contour>
  </outline>
</glyph>
<glyph name="f" format="2">
  <advance width="600"/>
  <unicode hex="0066"/>
  <anchor x="299.0" y="0.0" name="bottom"/>
  <outline>
    <contour>
      <point x="94" y="0" type="line"/>
      <point x="510" y="0" type="line"/>
      <point x="510" y="19" type="line"/>
      <point x="307" y="19" type="line"/>
      <point x="307" y="497" type="line"/>
      <point x="533" y="497" type="line"/>
      <point x="533" y="516" type="line"/>
      <point x="307" y="516" type="line"/>
      <point x="307" y="721" type="line"/>
      <point x="533" y="721" type="line"/>
      <point x="533" y="740" type="line"/>
      <point x="316" y="740" type="line" smooth="yes"/>
      <point x="296" y="740"/>
      <point x="287" y="731"/>
      <point x="287" y="711" type="curve" smooth="yes"/>
      <point x="287" y="516" type="line"/>
      <point x="84" y="516" type="line"/>
      <point x="84" y="497" type="line"/>
      <point x="287" y="497" type="line"/>
      <point x="287" y="19" type="line"/>
      <point x="94" y="19" type="line"/>
    </contour>
  </outline>
</glyph>
<glyph name="h" format="2">
  <advance width="600"/>
  <unicode hex="0068"/>
  <anchor x="305.0" y="0.0" name="bottom"/>
  <anchor x="138.0" y="698.0" name="top"/>
  <outline>
    <contour>
      <point x="127" y="0" type="line"/>
      <point x="148" y="0" type="line"/>
      <point x="148" y="372" type="line" smooth="yes"/>
      <point x="148" y="464"/>
      <point x="223" y="509"/>
      <point x="306" y="509" type="curve" smooth="yes"/>
      <point x="406" y="509"/>
      <point x="462" y="456"/>
      <point x="462" y="333" type="curve" smooth="yes"/>
      <point x="462" y="0" type="line"/>
      <point x="483" y="0" type="line"/>
      <point x="483" y="336" type="line" smooth="yes"/>
      <point x="483" y="461"/>
      <point x="423" y="528"/>
      <point x="309" y="528" type="curve" smooth="yes"/>
      <point x="218" y="528"/>
      <point x="169" y="486"/>
      <point x="151" y="442" type="curve"/>
      <point x="148" y="442" type="line"/>
      <point x="148" y="740" type="line"/>
      <point x="127" y="740" type="line"/>
    </contour>
  </outline>
</glyph>
<glyph name="i" format="2">
  <advance width="600"/>
  <unicode hex="0069"/>
  <anchor x="332.0" y="0.0" name="bottom"/>
  <anchor x="535.0" y="0.0" name="bottomright"/>
  <outline>
    <contour>
      <point x="332" y="691" type="curve" smooth="yes"/>
      <point x="353" y="691"/>
      <point x="361" y="701"/>
      <point x="361" y="714" type="curve" smooth="yes"/>
      <point x="361" y="722" type="line" smooth="yes"/>
      <point x="361" y="735"/>
      <point x="353" y="745"/>
      <point x="332" y="745" type="curve" smooth="yes"/>
      <point x="311" y="745"/>
      <point x="303" y="735"/>
      <point x="303" y="722" type="curve" smooth="yes"/>
      <point x="303" y="714" type="line" smooth="yes"/>
      <point x="303" y="701"/>
      <point x="311" y="691"/>
    </contour>
    <contour>
      <point x="117" y="0" type="line"/>
      <point x="535" y="0" type="line"/>
      <point x="535" y="19" type="line"/>
      <point x="343" y="19" type="line"/>
      <point x="343" y="516" type="line"/>
      <point x="117" y="516" type="line"/>
      <point x="117" y="497" type="line"/>
      <point x="322" y="497" type="line"/>
      <point x="322" y="19" type="line"/>
      <point x="117" y="19" type="line"/>
    </contour>
  </outline>
</glyph>
<glyph name="j" format="2">
  <advance width="600"/>
  <unicode hex="006A"/>
  <outline>
    <contour>
      <point x="111" y="-200" type="line"/>
      <point x="398" y="-200" type="line" smooth="yes"/>
      <point x="418" y="-200"/>
      <point x="427" y="-191"/>
      <point x="427" y="-171" type="curve" smooth="yes"/>
      <point x="427" y="516" type="line"/>
      <point x="96" y="516" type="line"/>
      <point x="96" y="497" type="line"/>
      <point x="406" y="497" type="line"/>
      <point x="406" y="-181" type="line"/>
      <point x="111" y="-181" type="line"/>
    </contour>
    <contour>
      <point x="417" y="691" type="curve" smooth="yes"/>
      <point x="438" y="691"/>
      <point x="446" y="701"/>
      <point x="446" y="714" type="curve" smooth="yes"/>
      <point x="446" y="722" type="line" smooth="yes"/>
      <point x="446" y="735"/>
      <point x="438" y="745"/>
      <point x="417" y="745" type="curve" smooth="yes"/>
      <point x="396" y="745"/>
      <point x="388" y="735"/>
      <point x="388" y="722" type="curve" smooth="yes"/>
      <point x="388" y="714" type="line" smooth="yes"/>
      <point x="388" y="701"/>
      <point x="396" y="691"/>
    </contour>
  </outline>
</glyph>
<glyph name="k" format="2">
  <advance width="600"/>
  <unicode hex="006B"/>
  <anchor x="337.0" y="0.0" name="bottom"/>
  <outline>
    <contour>
      <point x="139" y="0" type="line"/>
      <point x="160" y="0" type="line"/>
      <point x="160" y="192" type="line"/>
      <point x="285" y="300" type="line"/>
      <point x="535" y="0" type="line"/>
      <point x="561" y="0" type="line"/>
      <point x="301" y="314" type="line"/>
      <point x="533" y="516" type="line"/>
      <point x="505" y="516" type="line"/>
      <point x="281" y="322" type="line"/>
      <point x="163" y="219" type="line"/>
      <point x="160" y="219" type="line"/>
      <point x="160" y="740" type="line"/>
      <point x="139" y="740" type="line"/>
    </contour>
  </outline>
</glyph>
<glyph name="l" format="2">
  <advance width="600"/>
  <unicode hex="006C"/>
  <anchor x="300.0" y="0.0" name="bottom"/>
  <anchor x="300.0" y="698.0" name="top"/>
  <anchor x="416.0" y="740.0" name="topright"/>
  <outline>
    <contour>
      <point x="91" y="0" type="line"/>
      <point x="510" y="0" type="line"/>
      <point x="510" y="19" type="line"/>
      <point x="311" y="19" type="line"/>
      <point x="311" y="740" type="line"/>
      <point x="91" y="740" type="line"/>
      <point x="91" y="721" type="line"/>
      <point x="290" y="721" type="line"/>
      <point x="290" y="19" type="line"/>
      <point x="91" y="19" type="line"/>
    </contour>
  </outline>
</glyph>
<glyph name="m" format="2">
  <advance width="600"/>
  <unicode hex="006D"/>
  <anchor x="300.0" y="0.0" name="bottom"/>
  <anchor x="300.0" y="516.0" name="top"/>
  <outline>
    <contour>
      <point x="94" y="0" type="line"/>
      <point x="94" y="384" type="line" smooth="yes"/>
      <point x="94" y="468"/>
      <point x="145" y="509"/>
      <point x="201" y="509" type="curve" smooth="yes"/>
      <point x="258" y="509"/>
      <point x="290" y="474"/>
      <point x="290" y="397" type="curve" smooth="yes"/>
      <point x="290" y="0" type="line"/>
      <point x="311" y="0" type="line"/>
      <point x="311" y="384" type="line" smooth="yes"/>
      <point x="311" y="468"/>
      <point x="361" y="509"/>
      <point x="418" y="509" type="curve" smooth="yes"/>
      <point x="475" y="509"/>
      <point x="507" y="474"/>
      <point x="507" y="397" type="curve" smooth="yes"/>
      <point x="507" y="0" type="line"/>
      <point x="528" y="0" type="line"/>
      <point x="528" y="400" type="line" smooth="yes"/>
      <point x="528" y="483"/>
      <point x="491" y="528"/>
      <point x="420" y="528" type="curve" smooth="yes"/>
      <point x="358" y="528"/>
      <point x="323" y="492"/>
      <point x="308" y="446" type="curve"/>
      <point x="306" y="446" type="line"/>
      <point x="296" y="499"/>
      <point x="260" y="528"/>
      <point x="203" y="528" type="curve" smooth="yes"/>
      <point x="145" y="528"/>
      <point x="112" y="497"/>
      <point x="97" y="455" type="curve"/>
      <point x="94" y="455" type="line"/>
      <point x="94" y="516" type="line"/>
      <point x="73" y="516" type="line"/>
      <point x="73" y="0" type="line"/>
    </contour>
  </outline>
</glyph>
<glyph name="n" format="2">
  <advance width="600"/>
  <unicode hex="006E"/>
  <anchor x="305.0" y="0.0" name="bottom"/>
  <anchor x="305.0" y="516.0" name="top"/>
  <outline>
    <contour>
      <point x="148" y="0" type="line"/>
      <point x="148" y="372" type="line" smooth="yes"/>
      <point x="148" y="464"/>
      <point x="223" y="509"/>
      <point x="306" y="509" type="curve" smooth="yes"/>
      <point x="406" y="509"/>
      <point x="462" y="456"/>
      <point x="462" y="333" type="curve" smooth="yes"/>
      <point x="462" y="0" type="line"/>
      <point x="483" y="0" type="line"/>
      <point x="483" y="336" type="line" smooth="yes"/>
      <point x="483" y="461"/>
      <point x="423" y="528"/>
      <point x="309" y="528" type="curve" smooth="yes"/>
      <point x="218" y="528"/>
      <point x="169" y="486"/>
      <point x="151" y="442" type="curve"/>
      <point x="148" y="442" type="line"/>
      <point x="148" y="516" type="line"/>
      <point x="127" y="516" type="line"/>
      <point x="127" y="0" type="line"/>
    </contour>
  </outline>
</glyph>
<glyph name="o" format="2">
  <advance width="600"/>
  <unicode hex="006F"/>
  <anchor x="300.0" y="0.0" name="bottom"/>
  <anchor x="300.0" y="516.0" name="top"/>
  <outline>
    <contour>
      <point x="300" y="-12" type="curve" smooth="yes"/>
      <point x="432" y="-12"/>
      <point x="510" y="79"/>
      <point x="510" y="258" type="curve" smooth="yes"/>
      <point x="510" y="437"/>
      <point x="432" y="528"/>
      <point x="300" y="528" type="curve" smooth="yes"/>
      <point x="168" y="528"/>
      <point x="90" y="437"/>
      <point x="90" y="258" type="curve" smooth="yes"/>
      <point x="90" y="79"/>
      <point x="168" y="-12"/>
    </contour>
    <contour>
      <point x="300" y="7" type="curve" smooth="yes"/>
      <point x="180" y="7"/>
      <point x="113" y="94"/>
      <point x="113" y="234" type="curve" smooth="yes"/>
      <point x="113" y="282" type="line" smooth="yes"/>
      <point x="113" y="422"/>
      <point x="180" y="509"/>
      <point x="300" y="509" type="curve" smooth="yes"/>
      <point x="420" y="509"/>
      <point x="487" y="422"/>
      <point x="487" y="282" type="curve" smooth="yes"/>
      <point x="487" y="234" type="line" smooth="yes"/>
      <point x="487" y="94"/>
      <point x="420" y="7"/>
    </contour>
  </outline>
</glyph>
<glyph name="p" format="2">
  <advance width="600"/>
  <unicode hex="0070"/>
  <anchor x="310.0" y="516.0" name="top"/>
  <outline>
    <contour>
      <point x="125" y="-200" type="line"/>
      <point x="146" y="-200" type="line"/>
      <point x="146" y="78" type="line"/>
      <point x="149" y="78" type="line"/>
      <point x="170" y="34"/>
      <point x="223" y="-12"/>
      <point x="310" y="-12" type="curve" smooth="yes"/>
      <point x="442" y="-12"/>
      <point x="520" y="79"/>
      <point x="520" y="258" type="curve" smooth="yes"/>
      <point x="520" y="437"/>
      <point x="442" y="528"/>
      <point x="310" y="528" type="curve" smooth="yes"/>
      <point x="223" y="528"/>
      <point x="170" y="482"/>
      <point x="149" y="438" type="curve"/>
      <point x="146" y="438" type="line"/>
      <point x="146" y="516" type="line"/>
      <point x="125" y="516" type="line"/>
    </contour>
    <contour>
      <point x="310" y="7" type="curve" smooth="yes"/>
      <point x="224" y="7"/>
      <point x="146" y="62"/>
      <point x="146" y="143" type="curve" smooth="yes"/>
      <point x="146" y="373" type="line" smooth="yes"/>
      <point x="146" y="454"/>
      <point x="224" y="509"/>
      <point x="310" y="509" type="curve" smooth="yes"/>
      <point x="430" y="509"/>
      <point x="497" y="422"/>
      <point x="497" y="282" type="curve" smooth="yes"/>
      <point x="497" y="234" type="line" smooth="yes"/>
      <point x="497" y="94"/>
      <point x="430" y="7"/>
    </contour>
  </outline>
</glyph>
<glyph name="q" format="2">
  <advance width="600"/>
  <unicode hex="0071"/>
  <anchor x="290.0" y="516.0" name="top"/>
  <outline>
    <contour>
      <point x="454" y="-200" type="line"/>
      <point x="475" y="-200" type="line"/>
      <point x="475" y="516" type="line"/>
      <point x="454" y="516" type="line"/>
      <point x="454" y="438" type="line"/>
      <point x="451" y="438" type="line"/>
      <point x="430" y="482"/>
      <point x="377" y="528"/>
      <point x="290" y="528" type="curve" smooth="yes"/>
      <point x="158" y="528"/>
      <point x="80" y="437"/>
      <point x="80" y="258" type="curve" smooth="yes"/>
      <point x="80" y="79"/>
      <point x="158" y="-12"/>
      <point x="290" y="-12" type="curve" smooth="yes"/>
      <point x="377" y="-12"/>
      <point x="430" y="34"/>
      <point x="451" y="78" type="curve"/>
      <point x="454" y="78" type="line"/>
    </contour>
    <contour>
      <point x="290" y="7" type="curve" smooth="yes"/>
      <point x="170" y="7"/>
      <point x="103" y="94"/>
      <point x="103" y="234" type="curve" smooth="yes"/>
      <point x="103" y="282" type="line" smooth="yes"/>
      <point x="103" y="422"/>
      <point x="170" y="509"/>
      <point x="290" y="509" type="curve" smooth="yes"/>
      <point x="376" y="509"/>
      <point x="454" y="454"/>
      <point x="454" y="373" type="curve" smooth="yes"/>
      <point x="454" y="143" type="line" smooth="yes"/>
      <point x="454" y="62"/>
      <point x="376" y="7"/>
    </contour>
  </outline>
</glyph>
<glyph name="r" format="2">
  <advance width="600"/>
  <unicode hex="0072"/>
  <anchor x="269.0" y="0.0" name="bottom"/>
  <anchor x="378.0" y="516.0" name="top"/>
  <outline>
    <contour>
      <point x="80" y="0" type="line"/>
      <point x="477" y="0" type="line"/>
      <point x="477" y="19" type="line"/>
      <point x="279" y="19" type="line"/>
      <point x="279" y="331" type="line" smooth="yes"/>
      <point x="279" y="445"/>
      <point x="355" y="497"/>
      <point x="437" y="497" type="curve" smooth="yes"/>
      <point x="556" y="497" type="line"/>
      <point x="556" y="516" type="line"/>
      <point x="441" y="516" type="line" smooth="yes"/>
      <point x="347" y="516"/>
      <point x="305" y="471"/>
      <point x="282" y="416" type="curve"/>
      <point x="279" y="416" type="line"/>
      <point x="279" y="516" type="line"/>
      <point x="80" y="516" type="line"/>
      <point x="80" y="497" type="line"/>
      <point x="258" y="497" type="line"/>
      <point x="258" y="19" type="line"/>
      <point x="80" y="19" type="line"/>
    </contour>
  </outline>
</glyph>
<glyph name="s" format="2">
  <advance width="600"/>
  <unicode hex="0073"/>
  <anchor x="308.0" y="0.0" name="bottom"/>
  <anchor x="300.0" y="516.0" name="top"/>
  <outline>
    <contour>
      <point x="318" y="-12" type="curve" smooth="yes"/>
      <point x="430" y="-12"/>
      <point x="517" y="34"/>
      <point x="517" y="139" type="curve" smooth="yes"/>
      <point x="517" y="231"/>
      <point x="450" y="256"/>
      <point x="357" y="269" type="curve" smooth="yes"/>
      <point x="277" y="280" type="line" smooth="yes"/>
      <point x="189" y="292"/>
      <point x="136" y="314"/>
      <point x="136" y="391" type="curve" smooth="yes"/>
      <point x="136" y="474"/>
      <point x="200" y="509"/>
      <point x="297" y="509" type="curve" smooth="yes"/>
      <point x="395" y="509"/>
      <point x="445" y="472"/>
      <point x="481" y="432" type="curve"/>
      <point x="495" y="447" type="line"/>
      <point x="457" y="488"/>
      <point x="400" y="528"/>
      <point x="298" y="528" type="curve" smooth="yes"/>
      <point x="198" y="528"/>
      <point x="115" y="491"/>
      <point x="115" y="390" type="curve" smooth="yes"/>
      <point x="115" y="298"/>
      <point x="182" y="273"/>
      <point x="275" y="260" type="curve" smooth="yes"/>
      <point x="355" y="249" type="line" smooth="yes"/>
      <point x="443" y="237"/>
      <point x="496" y="215"/>
      <point x="496" y="138" type="curve" smooth="yes"/>
      <point x="496" y="49"/>
      <point x="425" y="7"/>
      <point x="317" y="7" type="curve" smooth="yes"/>
      <point x="226" y="7"/>
      <point x="159" y="36"/>
      <point x="106" y="103" type="curve"/>
      <point x="91" y="90" type="line"/>
      <point x="146" y="21"/>
      <point x="220" y="-12"/>
    </contour>
  </outline>
</glyph>
<glyph name="t" format="2">
  <advance width="600"/>
  <unicode hex="0074"/>
  <anchor x="378.0" y="0.0" name="bottom"/>
  <anchor x="389.0" y="760.0" name="topright"/>
  <outline>
    <contour>
      <point x="522" y="0" type="line"/>
      <point x="522" y="19" type="line"/>
      <point x="258" y="19" type="line"/>
      <point x="258" y="497" type="line"/>
      <point x="522" y="497" type="line"/>
      <point x="522" y="516" type="line"/>
      <point x="258" y="516" type="line"/>
      <point x="258" y="698" type="line"/>
      <point x="237" y="698" type="line"/>
      <point x="237" y="545" type="line" smooth="yes"/>
      <point x="237" y="525"/>
      <point x="228" y="516"/>
      <point x="208" y="516" type="curve" smooth="yes"/>
      <point x="36" y="516" type="line"/>
      <point x="36" y="497" type="line"/>
      <point x="237" y="497" type="line"/>
      <point x="237" y="29" type="line" smooth="yes"/>
      <point x="237" y="9"/>
      <point x="246" y="0"/>
      <point x="266" y="0" type="curve" smooth="yes"/>
    </contour>
  </outline>
</glyph>
<glyph name="u" format="2">
  <advance width="600"/>
  <unicode hex="0075"/>
  <anchor x="296.0" y="0.0" name="bottom"/>
  <anchor x="473.0" y="0.0" name="bottomright"/>
  <anchor x="296.0" y="516.0" name="top"/>
  <outline>
    <contour>
      <point x="452" y="0" type="line"/>
      <point x="473" y="0" type="line"/>
      <point x="473" y="516" type="line"/>
      <point x="452" y="516" type="line"/>
      <point x="452" y="144" type="line" smooth="yes"/>
      <point x="452" y="52"/>
      <point x="377" y="7"/>
      <point x="294" y="7" type="curve" smooth="yes"/>
      <point x="194" y="7"/>
      <point x="138" y="60"/>
      <point x="138" y="183" type="curve" smooth="yes"/>
      <point x="138" y="516" type="line"/>
      <point x="117" y="516" type="line"/>
      <point x="117" y="180" type="line" smooth="yes"/>
      <point x="117" y="55"/>
      <point x="177" y="-12"/>
      <point x="291" y="-12" type="curve" smooth="yes"/>
      <point x="382" y="-12"/>
      <point x="431" y="30"/>
      <point x="449" y="74" type="curve"/>
      <point x="452" y="74" type="line"/>
    </contour>
  </outline>
</glyph>
<glyph name="w" format="2">
  <advance width="600"/>
  <unicode hex="0077"/>
  <anchor x="300.0" y="0.0" name="bottom"/>
  <anchor x="300.0" y="516.0" name="top"/>
  <outline>
    <contour>
      <point x="135" y="0" type="line"/>
      <point x="169" y="0" type="line"/>
      <point x="299" y="496" type="line"/>
      <point x="302" y="496" type="line"/>
      <point x="431" y="0" type="line"/>
      <point x="465" y="0" type="line"/>
      <point x="562" y="516" type="line"/>
      <point x="543" y="516" type="line"/>
      <point x="449" y="19" type="line"/>
      <point x="446" y="19" type="line"/>
      <point x="316" y="516" type="line"/>
      <point x="285" y="516" type="line"/>
      <point x="155" y="19" type="line"/>
      <point x="152" y="19" type="line"/>
      <point x="58" y="516" type="line"/>
      <point x="38" y="516" type="line"/>
    </contour>
  </outline>
</glyph>
<glyph name="x" format="2">
  <advance width="600"/>
  <unicode hex="0078"/>
  <anchor x="300.0" y="0.0" name="bottom"/>
  <anchor x="300.0" y="516.0" name="top"/>
  <outline>
    <contour>
      <point x="114" y="0" type="line"/>
      <point x="299" y="243" type="line"/>
      <point x="301" y="243" type="line"/>
      <point x="485" y="0" type="line"/>
      <point x="511" y="0" type="line"/>
      <point x="313" y="260" type="line"/>
      <point x="508" y="516" type="line"/>
      <point x="483" y="516" type="line"/>
      <point x="301" y="277" type="line"/>
      <point x="299" y="277" type="line"/>
      <point x="118" y="516" type="line"/>
      <point x="92" y="516" type="line"/>
      <point x="287" y="259" type="line"/>
      <point x="89" y="0" type="line"/>
    </contour>
  </outline>
</glyph>
<glyph name="y" format="2">
  <advance width="600"/>
  <unicode hex="0079"/>
  <anchor x="440.0" y="0.0" name="bottom"/>
  <anchor x="297.0" y="516.0" name="top"/>
  <outline>
    <contour>
      <point x="302" y="49" type="line"/>
      <point x="299" y="49" type="line"/>
      <point x="106" y="516" type="line"/>
      <point x="83" y="516" type="line"/>
      <point x="289" y="19" type="line"/>
      <point x="205" y="-181" type="line"/>
      <point x="94" y="-181" type="line"/>
      <point x="94" y="-200" type="line"/>
      <point x="196" y="-200" type="line" smooth="yes"/>
      <point x="211" y="-200"/>
      <point x="221" y="-194"/>
      <point x="227" y="-181" type="curve" smooth="yes"/>
      <point x="517" y="516" type="line"/>
      <point x="495" y="516" type="line"/>
    </contour>
  </outline>
</glyph>
<glyph name="z" format="2">
  <advance width="600"/>
  <unicode hex="007A"/>
  <anchor x="300.0" y="0.0" name="bottom"/>
  <anchor x="300.0" y="516.0" name="top"/>
  <outline>
    <contour>
      <point x="498" y="0" type="line"/>
      <point x="498" y="19" type="line"/>
      <point x="125" y="19" type="line"/>
      <point x="488" y="495" type="line"/>
      <point x="488" y="516" type="line"/>
      <point x="112" y="516" type="line"/>
      <point x="112" y="497" type="line"/>
      <point x="465" y="497" type="line"/>
      <point x="102" y="21" type="line"/>
      <point x="102" y="0" type="line"/>
    </contour>
  </outline>
</glyph>
<glyph name="asciitilde" format="2">
  <advance width="600"/>
  <unicode hex="007E"/>
  <outline>
    <contour>
      <point x="415" y="217" type="curve" smooth="yes"/>
      <point x="471" y="217"/>
      <point x="522" y="261"/>
      <point x="542" y="381" type="curve"/>
      <point x="524" y="385" type="line"/>
      <point x="505" y="275"/>
      <point x="462" y="237"/>
      <point x="416" y="237" type="curve" smooth="yes"/>
      <point x="382" y="237"/>
      <point x="351" y="262"/>
      <point x="308" y="310" type="curve" smooth="yes"/>
      <point x="256" y="369"/>
      <point x="224" y="391"/>
      <point x="185" y="391" type="curve" smooth="yes"/>
      <point x="129" y="391"/>
      <point x="78" y="347"/>
      <point x="58" y="227" type="curve"/>
      <point x="76" y="223" type="line"/>
      <point x="95" y="333"/>
      <point x="138" y="371"/>
      <point x="184" y="371" type="curve" smooth="yes"/>
      <point x="218" y="371"/>
      <point x="249" y="346"/>
      <point x="292" y="298" type="curve" smooth="yes"/>
      <point x="344" y="239"/>
      <point x="376" y="217"/>
    </contour>
  </outline>
</glyph>
<glyph name="exclamdown" format="2">
  <advance width="600"/>
  <unicode hex="00A1"/>
  <outline>
    <contour>
      <point x="311" y="-182" type="line"/>
      <point x="311" y="101" type="line"/>
      <point x="306" y="340" type="line"/>
      <point x="294" y="340" type="line"/>
      <point x="289" y="101" type="line"/>
      <point x="289" y="-182" type="line"/>
    </contour>
    <contour>
      <point x="300" y="459" type="curve" smooth="yes"/>
      <point x="322" y="459"/>
      <point x="334" y="469"/>
      <point x="334" y="486" type="curve" smooth="yes"/>
      <point x="334" y="494" type="line" smooth="yes"/>
      <point x="334" y="511"/>
      <point x="322" y="521"/>
      <point x="300" y="521" type="curve" smooth="yes"/>
      <point x="278" y="521"/>
      <point x="266" y="511"/>
      <point x="266" y="494" type="curve" smooth="yes"/>
      <point x="266" y="486" type="line" smooth="yes"/>
      <point x="266" y="469"/>
      <point x="278" y="459"/>
    </contour>
  </outline>
</glyph>
<glyph name="cent" format="2">
  <advance width="600"/>
  <unicode hex="00A2"/>
  <outline>
    <contour>
      <point x="322" y="-114" type="line"/>
      <point x="322" y="-12" type="line"/>
      <point x="415" y="-12"/>
      <point x="477" y="40"/>
      <point x="503" y="102" type="curve"/>
      <point x="485" y="110" type="line"/>
      <point x="457" y="48"/>
      <point x="402" y="7"/>
      <point x="322" y="7" type="curve"/>
      <point x="322" y="509" type="line"/>
      <point x="398" y="509"/>
      <point x="452" y="474"/>
      <point x="477" y="410" type="curve"/>
      <point x="496" y="416" type="line"/>
      <point x="473" y="481"/>
      <point x="412" y="528"/>
      <point x="322" y="528" type="curve"/>
      <point x="322" y="630" type="line"/>
      <point x="302" y="630" type="line"/>
      <point x="302" y="527" type="line"/>
      <point x="181" y="518"/>
      <point x="110" y="428"/>
      <point x="110" y="258" type="curve" smooth="yes"/>
      <point x="110" y="88"/>
      <point x="181" y="-2"/>
      <point x="302" y="-11" type="curve"/>
      <point x="302" y="-114" type="line"/>
    </contour>
    <contour>
      <point x="133" y="234" type="curve"/>
      <point x="133" y="282" type="line" smooth="yes"/>
      <point x="133" y="414"/>
      <point x="193" y="499"/>
      <point x="302" y="508" type="curve"/>
      <point x="302" y="8" type="line"/>
      <point x="193" y="17"/>
      <point x="133" y="102"/>
    </contour>
  </outline>
</glyph>
<glyph name="yen" format="2">
  <advance width="600"/>
  <unicode hex="00A5"/>
  <outline>
    <contour>
      <point x="91" y="0" type="line"/>
      <point x="509" y="0" type="line"/>
      <point x="509" y="19" type="line"/>
      <point x="311" y="19" type="line"/>
      <point x="311" y="294" type="line"/>
      <point x="509" y="294" type="line"/>
      <point x="509" y="313" type="line"/>
      <point x="323" y="313" type="line"/>
      <point x="572" y="698" type="line"/>
      <point x="548" y="698" type="line"/>
      <point x="302" y="317" type="line"/>
      <point x="299" y="317" type="line"/>
      <point x="53" y="698" type="line"/>
      <point x="28" y="698" type="line"/>
      <point x="277" y="313" type="line"/>
      <point x="91" y="313" type="line"/>
      <point x="91" y="294" type="line"/>
      <point x="289" y="294" type="line"/>
      <point x="289" y="19" type="line"/>
      <point x="91" y="19" type="line"/>
    </contour>
  </outline>
</glyph>
<glyph name="brokenbar" format="2">
  <advance width="600"/>
  <unicode hex="00A6"/>
  <outline>
    <contour>
      <point x="310" y="401" type="line"/>
      <point x="310" y="760" type="line"/>
      <point x="290" y="760" type="line"/>
      <point x="290" y="401" type="line"/>
    </contour>
    <contour>
      <point x="310" y="-138" type="line"/>
      <point x="310" y="221" type="line"/>
      <point x="290" y="221" type="line"/>
      <point x="290" y="-138" type="line"/>
    </contour>
  </outline>
</glyph>
<glyph name="dieresis" format="2">
  <advance width="600"/>
  <unicode hex="00A8"/>
  <anchor x="300.0" y="516.0" name="_top"/>
  <outline>
    <contour>
      <point x="209" y="649" type="curve" smooth="yes"/>
      <point x="230" y="649"/>
      <point x="238" y="659"/>
      <point x="238" y="672" type="curve" smooth="yes"/>
      <point x="238" y="680" type="line" smooth="yes"/>
      <point x="238" y="693"/>
      <point x="230" y="703"/>
      <point x="209" y="703" type="curve" smooth="yes"/>
      <point x="188" y="703"/>
      <point x="180" y="693"/>
      <point x="180" y="680" type="curve" smooth="yes"/>
      <point x="180" y="672" type="line" smooth="yes"/>
      <point x="180" y="659"/>
      <point x="188" y="649"/>
    </contour>
    <contour>
      <point x="391" y="649" type="curve" smooth="yes"/>
      <point x="412" y="649"/>
      <point x="420" y="659"/>
      <point x="420" y="672" type="curve" smooth="yes"/>
      <point x="420" y="680" type="line" smooth="yes"/>
      <point x="420" y="693"/>
      <point x="412" y="703"/>
      <point x="391" y="703" type="curve" smooth="yes"/>
      <point x="370" y="703"/>
      <point x="362" y="693"/>
      <point x="362" y="680" type="curve" smooth="yes"/>
      <point x="362" y="672" type="line" smooth="yes"/>
      <point x="362" y="659"/>
      <point x="370" y="649"/>
    </contour>
  </outline>
</glyph>
<glyph name="ordfeminine" format="2">
  <advance width="600"/>
  <unicode hex="00AA"/>
  <outline>
    <contour>
      <point x="446" y="374" type="line"/>
      <point x="446" y="391" type="line"/>
      <point x="399" y="391" type="line"/>
      <point x="399" y="607" type="line" smooth="yes"/>
      <point x="399" y="672"/>
      <point x="357" y="710"/>
      <point x="281" y="710" type="curve" smooth="yes"/>
      <point x="221" y="710"/>
      <point x="186" y="684"/>
      <point x="167" y="643" type="curve"/>
      <point x="182" y="635" type="line"/>
      <point x="201" y="676"/>
      <point x="237" y="693"/>
      <point x="281" y="693" type="curve" smooth="yes"/>
      <point x="344" y="693"/>
      <point x="380" y="664"/>
      <point x="380" y="604" type="curve" smooth="yes"/>
      <point x="380" y="548" type="line"/>
      <point x="284" y="548" type="line" smooth="yes"/>
      <point x="190" y="548"/>
      <point x="157" y="511"/>
      <point x="157" y="458" type="curve" smooth="yes"/>
      <point x="157" y="402"/>
      <point x="194" y="367"/>
      <point x="266" y="367" type="curve" smooth="yes"/>
      <point x="330" y="367"/>
      <point x="363" y="394"/>
      <point x="378" y="422" type="curve"/>
      <point x="380" y="422" type="line"/>
      <point x="380" y="393" type="line" smooth="yes"/>
      <point x="380" y="380"/>
      <point x="386" y="374"/>
      <point x="398" y="374" type="curve" smooth="yes"/>
    </contour>
    <contour>
      <point x="380" y="531" type="line"/>
      <point x="380" y="473" type="line" smooth="yes"/>
      <point x="380" y="414"/>
      <point x="327" y="384"/>
      <point x="266" y="384" type="curve" smooth="yes"/>
      <point x="214" y="384"/>
      <point x="178" y="408"/>
      <point x="178" y="452" type="curve" smooth="yes"/>
      <point x="178" y="465" type="line" smooth="yes"/>
      <point x="178" y="504"/>
      <point x="207" y="531"/>
      <point x="283" y="531" type="curve" smooth="yes"/>
    </contour>
  </outline>
</glyph>
<glyph name="logicalnot" format="2">
  <advance width="600"/>
  <unicode hex="00AC"/>
  <outline>
    <contour>
      <point x="522" y="104" type="line"/>
      <point x="522" y="315" type="line"/>
      <point x="62" y="315" type="line"/>
      <point x="62" y="296" type="line"/>
      <point x="501" y="296" type="line"/>
      <point x="501" y="104" type="line"/>
    </contour>
  </outline>
</glyph>
<glyph name="registered" format="2">
  <advance width="600"/>
  <unicode hex="00AE"/>
  <outline>
    <contour>
      <point x="300" y="346" type="curve" smooth="yes"/>
      <point x="401" y="346"/>
      <point x="481" y="423"/>
      <point x="481" y="528" type="curve" smooth="yes"/>
      <point x="481" y="633"/>
      <point x="401" y="710"/>
      <point x="300" y="710" type="curve" smooth="yes"/>
      <point x="199" y="710"/>
      <point x="119" y="633"/>
      <point x="119" y="528" type="curve" smooth="yes"/>
      <point x="119" y="423"/>
      <point x="199" y="346"/>
    </contour>
    <contour>
      <point x="300" y="361" type="curve" smooth="yes"/>
      <point x="210" y="361"/>
      <point x="138" y="432"/>
      <point x="138" y="520" type="curve" smooth="yes"/>
      <point x="138" y="536" type="line" smooth="yes"/>
      <point x="138" y="624"/>
      <point x="210" y="695"/>
      <point x="300" y="695" type="curve" smooth="yes"/>
      <point x="390" y="695"/>
      <point x="462" y="624"/>
      <point x="462" y="536" type="curve" smooth="yes"/>
      <point x="462" y="520" type="line" smooth="yes"/>
      <point x="462" y="432"/>
      <point x="390" y="361"/>
    </contour>
    <contour>
      <point x="263" y="514" type="line"/>
      <point x="307" y="514" type="line"/>
      <point x="358" y="436" type="line"/>
      <point x="376" y="436" type="line"/>
      <point x="323" y="515" type="line"/>
      <point x="351" y="516"/>
      <point x="371" y="534"/>
      <point x="371" y="566" type="curve" smooth="yes"/>
      <point x="371" y="604"/>
      <point x="350" y="621"/>
      <point x="315" y="621" type="curve" smooth="yes"/>
      <point x="248" y="621" type="line"/>
      <point x="248" y="436" type="line"/>
      <point x="263" y="436" type="line"/>
    </contour>
    <contour>
      <point x="263" y="527" type="line"/>
      <point x="263" y="608" type="line"/>
      <point x="314" y="608" type="line" smooth="yes"/>
      <point x="344" y="608"/>
      <point x="355" y="597"/>
      <point x="355" y="571" type="curve" smooth="yes"/>
      <point x="355" y="564" type="line" smooth="yes"/>
      <point x="355" y="538"/>
      <point x="344" y="527"/>
      <point x="314" y="527" type="curve" smooth="yes"/>
    </contour>
  </outline>
</glyph>
<glyph name="macron" format="2">
  <advance width="600"/>
  <unicode hex="00AF"/>
  <anchor x="300.0" y="516.0" name="_top"/>
  <outline>
    <contour>
      <point x="171" y="668" type="line"/>
      <point x="429" y="668" type="line"/>
      <point x="429" y="686" type="line"/>
      <point x="171" y="686" type="line"/>
    </contour>
  </outline>
</glyph>
<glyph name="degree" format="2">
  <advance width="600"/>
  <unicode hex="00B0"/>
  <outline>
    <contour>
      <point x="300" y="404" type="curve" smooth="yes"/>
      <point x="387" y="404"/>
      <point x="453" y="469"/>
      <point x="453" y="557" type="curve" smooth="yes"/>
      <point x="453" y="645"/>
      <point x="387" y="710"/>
      <point x="300" y="710" type="curve" smooth="yes"/>
      <point x="213" y="710"/>
      <point x="147" y="645"/>
      <point x="147" y="557" type="curve" smooth="yes"/>
      <point x="147" y="469"/>
      <point x="213" y="404"/>
    </contour>
    <contour>
      <point x="300" y="423" type="curve" smooth="yes"/>
      <point x="222" y="423"/>
      <point x="168" y="481"/>
      <point x="168" y="557" type="curve" smooth="yes"/>
      <point x="168" y="633"/>
      <point x="222" y="691"/>
      <point x="300" y="691" type="curve" smooth="yes"/>
      <point x="378" y="691"/>
      <point x="432" y="633"/>
      <point x="432" y="557" type="curve" smooth="yes"/>
      <point x="432" y="481"/>
      <point x="378" y="423"/>
    </contour>
  </outline>
</glyph>
<glyph name="twosuperior" format="2">
  <advance width="600"/>
  <unicode hex="00B2"/>
  <outline>
    <contour>
      <point x="428" y="346" type="line"/>
      <point x="192" y="346" type="line"/>
      <point x="322" y="452" type="line" smooth="yes"/>
      <point x="385" y="503"/>
      <point x="415" y="549"/>
      <point x="415" y="599" type="curve" smooth="yes"/>
      <point x="415" y="657"/>
      <point x="376" y="704"/>
      <point x="300" y="704" type="curve" smooth="yes"/>
      <point x="227" y="704"/>
      <point x="185" y="663"/>
      <point x="169" y="614" type="curve"/>
      <point x="186" y="609" type="line"/>
      <point x="203" y="656"/>
      <point x="238" y="687"/>
      <point x="300" y="687" type="curve" smooth="yes"/>
      <point x="363" y="687"/>
      <point x="395" y="651"/>
      <point x="395" y="602" type="curve" smooth="yes"/>
      <point x="395" y="592" type="line" smooth="yes"/>
      <point x="395" y="553"/>
      <point x="368" y="511"/>
      <point x="311" y="464" type="curve" smooth="yes"/>
      <point x="172" y="349" type="line"/>
      <point x="172" y="329" type="line"/>
      <point x="428" y="329" type="line"/>
    </contour>
  </outline>
</glyph>
<glyph name="threesuperior" format="2">
  <advance width="600"/>
  <unicode hex="00B3"/>
  <outline>
    <contour>
      <point x="242" y="529" type="line"/>
      <point x="242" y="512" type="line"/>
      <point x="295" y="512" type="line" smooth="yes"/>
      <point x="369" y="512"/>
      <point x="396" y="483"/>
      <point x="396" y="433" type="curve" smooth="yes"/>
      <point x="396" y="427" type="line" smooth="yes"/>
      <point x="396" y="372"/>
      <point x="360" y="340"/>
      <point x="291" y="340" type="curve" smooth="yes"/>
      <point x="236" y="340"/>
      <point x="209" y="360"/>
      <point x="185" y="390" type="curve"/>
      <point x="171" y="379" type="line"/>
      <point x="194" y="348"/>
      <point x="231" y="323"/>
      <point x="291" y="323" type="curve" smooth="yes"/>
      <point x="371" y="323"/>
      <point x="416" y="365"/>
      <point x="416" y="431" type="curve" smooth="yes"/>
      <point x="416" y="481"/>
      <point x="390" y="512"/>
      <point x="339" y="520" type="curve"/>
      <point x="339" y="523" type="line"/>
      <point x="382" y="533"/>
      <point x="409" y="561"/>
      <point x="409" y="609" type="curve" smooth="yes"/>
      <point x="409" y="667"/>
      <point x="368" y="704"/>
      <point x="297" y="704" type="curve" smooth="yes"/>
      <point x="240" y="704"/>
      <point x="203" y="682"/>
      <point x="182" y="651" type="curve"/>
      <point x="196" y="641" type="line"/>
      <point x="218" y="670"/>
      <point x="245" y="687"/>
      <point x="297" y="687" type="curve" smooth="yes"/>
      <point x="357" y="687"/>
      <point x="389" y="658"/>
      <point x="389" y="614" type="curve" smooth="yes"/>
      <point x="389" y="608" type="line" smooth="yes"/>
      <point x="389" y="559"/>
      <point x="362" y="529"/>
      <point x="288" y="529" type="curve" smooth="yes"/>
    </contour>
  </outline>
</glyph>
<glyph name="acute" format="2">
  <advance width="600"/>
  <unicode hex="00B4"/>
  <anchor x="300.0" y="516.0" name="_top"/>
  <outline>
    <contour>
      <point x="397" y="749" type="line"/>
      <point x="378" y="761" type="line"/>
      <point x="267" y="607" type="line"/>
      <point x="282" y="597" type="line"/>
    </contour>
  </outline>
</glyph>
<glyph name="mu" format="2">
  <advance width="600"/>
  <unicode hex="00B5"/>
  <outline>
    <contour>
      <point x="143" y="-200" type="line"/>
      <point x="143" y="-32" type="line"/>
      <point x="140" y="92" type="line"/>
      <point x="143" y="92" type="line"/>
      <point x="167" y="24"/>
      <point x="219" y="-12"/>
      <point x="296" y="-12" type="curve" smooth="yes"/>
      <point x="387" y="-12"/>
      <point x="436" y="30"/>
      <point x="454" y="74" type="curve"/>
      <point x="457" y="74" type="line"/>
      <point x="457" y="0" type="line"/>
      <point x="478" y="0" type="line"/>
      <point x="478" y="516" type="line"/>
      <point x="457" y="516" type="line"/>
      <point x="457" y="144" type="line" smooth="yes"/>
      <point x="457" y="52"/>
      <point x="381" y="7"/>
      <point x="298" y="7" type="curve" smooth="yes"/>
      <point x="199" y="7"/>
      <point x="143" y="67"/>
      <point x="143" y="190" type="curve" smooth="yes"/>
      <point x="143" y="516" type="line"/>
      <point x="122" y="516" type="line"/>
      <point x="122" y="-200" type="line"/>
    </contour>
  </outline>
</glyph>
<glyph name="paragraph" format="2">
  <advance width="600"/>
  <unicode hex="00B6"/>
  <outline>
    <contour>
      <point x="302" y="-149" type="line"/>
      <point x="324" y="-149" type="line"/>
      <point x="324" y="678" type="line"/>
      <point x="450" y="678" type="line"/>
      <point x="450" y="-149" type="line"/>
      <point x="472" y="-149" type="line"/>
      <point x="472" y="698" type="line"/>
      <point x="292" y="698" type="line" smooth="yes"/>
      <point x="158" y="698"/>
      <point x="67" y="603"/>
      <point x="67" y="472" type="curve" smooth="yes"/>
      <point x="67" y="341"/>
      <point x="158" y="246"/>
      <point x="302" y="246" type="curve"/>
    </contour>
  </outline>
</glyph>
<glyph name="cedilla" format="2">
  <advance width="600"/>
  <unicode hex="00B8"/>
  <anchor x="300.0" y="0.0" name="_bottom"/>
  <outline>
    <contour>
      <point x="310" y="-202" type="curve" smooth="yes"/>
      <point x="361" y="-202"/>
      <point x="392" y="-169"/>
      <point x="392" y="-131" type="curve" smooth="yes"/>
      <point x="392" y="-95"/>
      <point x="364" y="-72"/>
      <point x="325" y="-72" type="curve" smooth="yes"/>
      <point x="316" y="-72"/>
      <point x="304" y="-73"/>
      <point x="295" y="-75" type="curve"/>
      <point x="293" y="-73" type="line"/>
      <point x="312" y="3" type="line"/>
      <point x="294" y="3" type="line"/>
      <point x="273" y="-84" type="line"/>
      <point x="310" y="-86" type="line" smooth="yes"/>
      <point x="355" y="-88"/>
      <point x="371" y="-107"/>
      <point x="371" y="-132" type="curve" smooth="yes"/>
      <point x="371" y="-166"/>
      <point x="346" y="-184"/>
      <point x="310" y="-184" type="curve" smooth="yes"/>
      <point x="280" y="-184"/>
      <point x="256" y="-174"/>
      <point x="242" y="-157" type="curve"/>
      <point x="229" y="-170" type="line"/>
      <point x="241" y="-187"/>
      <point x="272" y="-202"/>
    </contour>
  </outline>
</glyph>
<glyph name="onesuperior" format="2">
  <advance width="600"/>
  <unicode hex="00B9"/>
  <outline>
    <contour>
      <point x="458" y="329" type="line"/>
      <point x="458" y="346" type="line"/>
      <point x="340" y="346" type="line"/>
      <point x="340" y="698" type="line"/>
      <point x="308" y="698" type="line"/>
      <point x="181" y="591" type="line"/>
      <point x="192" y="578" type="line"/>
      <point x="317" y="683" type="line"/>
      <point x="321" y="683" type="line"/>
      <point x="321" y="346" type="line"/>
      <point x="192" y="346" type="line"/>
      <point x="192" y="329" type="line"/>
    </contour>
  </outline>
</glyph>
<glyph name="ordmasculine" format="2">
  <advance width="600"/>
  <unicode hex="00BA"/>
  <outline>
    <contour>
      <point x="300" y="367" type="curve" smooth="yes"/>
      <point x="389" y="367"/>
      <point x="441" y="433"/>
      <point x="441" y="540" type="curve" smooth="yes"/>
      <point x="441" y="644"/>
      <point x="389" y="710"/>
      <point x="300" y="710" type="curve" smooth="yes"/>
      <point x="211" y="710"/>
      <point x="159" y="644"/>
      <point x="159" y="540" type="curve" smooth="yes"/>
      <point x="159" y="433"/>
      <point x="210" y="367"/>
    </contour>
    <contour>
      <point x="300" y="384" type="curve" smooth="yes"/>
      <point x="221" y="384"/>
      <point x="180" y="447"/>
      <point x="180" y="522" type="curve" smooth="yes"/>
      <point x="180" y="556" type="line" smooth="yes"/>
      <point x="180" y="629"/>
      <point x="221" y="693"/>
      <point x="300" y="693" type="curve" smooth="yes"/>
      <point x="379" y="693"/>
      <point x="420" y="629"/>
      <point x="420" y="556" type="curve" smooth="yes"/>
      <point x="420" y="522" type="line" smooth="yes"/>
      <point x="420" y="447"/>
      <point x="379" y="384"/>
    </contour>
  </outline>
</glyph>
<glyph name="questiondown" format="2">
  <advance width="600"/>
  <unicode hex="00BF"/>
  <outline>
    <contour>
      <point x="291" y="-194" type="curve" smooth="yes"/>
      <point x="396" y="-194"/>
      <point x="473" y="-135"/>
      <point x="504" y="-32" type="curve"/>
      <point x="484" y="-26" type="line"/>
      <point x="456" y="-123"/>
      <point x="387" y="-175"/>
      <point x="291" y="-175" type="curve" smooth="yes"/>
      <point x="188" y="-175"/>
      <point x="126" y="-114"/>
      <point x="126" y="-24" type="curve" smooth="yes"/>
      <point x="126" y="-6" type="line" smooth="yes"/>
      <point x="126" y="94"/>
      <point x="202" y="161"/>
      <point x="332" y="167" type="curve"/>
      <point x="332" y="340" type="line"/>
      <point x="310" y="340" type="line"/>
      <point x="310" y="186" type="line"/>
      <point x="181" y="172"/>
      <point x="103" y="97"/>
      <point x="103" y="-15" type="curve" smooth="yes"/>
      <point x="103" y="-122"/>
      <point x="174" y="-194"/>
    </contour>
    <contour>
      <point x="321" y="459" type="curve" smooth="yes"/>
      <point x="343" y="459"/>
      <point x="355" y="469"/>
      <point x="355" y="486" type="curve" smooth="yes"/>
      <point x="355" y="494" type="line" smooth="yes"/>
      <point x="355" y="511"/>
      <point x="343" y="521"/>
      <point x="321" y="521" type="curve" smooth="yes"/>
      <point x="299" y="521"/>
      <point x="287" y="511"/>
      <point x="287" y="494" type="curve" smooth="yes"/>
      <point x="287" y="486" type="line" smooth="yes"/>
      <point x="287" y="469"/>
      <point x="299" y="459"/>
    </contour>
  </outline>
</glyph>
<glyph name="AE" format="2">
  <advance width="600"/>
  <unicode hex="00C6"/>
  <anchor x="393.0" y="698.0" name="top"/>
  <outline>
    <contour>
      <point x="326" y="0" type="line"/>
      <point x="549" y="0" type="line"/>
      <point x="549" y="20" type="line"/>
      <point x="348" y="20" type="line"/>
      <point x="348" y="344" type="line"/>
      <point x="535" y="344" type="line"/>
      <point x="535" y="364" type="line"/>
      <point x="348" y="364" type="line"/>
      <point x="348" y="678" type="line"/>
      <point x="549" y="678" type="line"/>
      <point x="549" y="698" type="line"/>
      <point x="262" y="698" type="line"/>
      <point x="39" y="0" type="line"/>
      <point x="63" y="0" type="line"/>
      <point x="137" y="234" type="line"/>
      <point x="326" y="234" type="line"/>
    </contour>
    <contour>
      <point x="326" y="678" type="line"/>
      <point x="326" y="253" type="line"/>
      <point x="143" y="253" type="line"/>
      <point x="278" y="678" type="line"/>
    </contour>
  </outline>
</glyph>
<glyph name="Thorn" format="2">
  <advance width="600"/>
  <unicode hex="00DE"/>
  <outline>
    <contour>
      <point x="130" y="0" type="line"/>
      <point x="130" y="167" type="line"/>
      <point x="352" y="167" type="line" smooth="yes"/>
      <point x="466" y="167"/>
      <point x="526" y="241"/>
      <point x="526" y="355" type="curve" smooth="yes"/>
      <point x="526" y="469"/>
      <point x="466" y="543"/>
      <point x="352" y="543" type="curve" smooth="yes"/>
      <point x="130" y="543" type="line"/>
      <point x="130" y="698" type="line"/>
      <point x="108" y="698" type="line"/>
      <point x="108" y="0" type="line"/>
    </contour>
    <contour>
      <point x="130" y="523" type="line"/>
      <point x="352" y="523" type="line" smooth="yes"/>
      <point x="455" y="523"/>
      <point x="502" y="452"/>
      <point x="502" y="376" type="curve" smooth="yes"/>
      <point x="502" y="334" type="line" smooth="yes"/>
      <point x="502" y="258"/>
      <point x="455" y="187"/>
      <point x="352" y="187" type="curve" smooth="yes"/>
      <point x="130" y="187" type="line"/>
    </contour>
  </outline>
</glyph>
<glyph name="germandbls" format="2">
  <advance width="600"/>
  <unicode hex="00DF"/>
  <outline>
    <contour>
      <point x="161" y="0" type="line"/>
      <point x="161" y="497" type="line"/>
      <point x="506" y="497" type="line"/>
      <point x="279" y="209" type="line"/>
      <point x="279" y="189" type="line"/>
      <point x="306" y="189" type="line" smooth="yes"/>
      <point x="450" y="189"/>
      <point x="542" y="143"/>
      <point x="542" y="26" type="curve" smooth="yes"/>
      <point x="542" y="-5" type="line" smooth="yes"/>
      <point x="542" y="-120"/>
      <point x="462" y="-181"/>
      <point x="308" y="-181" type="curve" smooth="yes"/>
      <point x="244" y="-181" type="line"/>
      <point x="244" y="-200" type="line"/>
      <point x="308" y="-200" type="line" smooth="yes"/>
      <point x="476" y="-200"/>
      <point x="565" y="-130"/>
      <point x="565" y="9" type="curve" smooth="yes"/>
      <point x="565" y="152"/>
      <point x="474" y="208"/>
      <point x="302" y="208" type="curve"/>
      <point x="529" y="496" type="line"/>
      <point x="529" y="516" type="line"/>
      <point x="161" y="516" type="line"/>
      <point x="161" y="721" type="line"/>
      <point x="386" y="721" type="line"/>
      <point x="386" y="740" type="line"/>
      <point x="169" y="740" type="line" smooth="yes"/>
      <point x="149" y="740"/>
      <point x="140" y="731"/>
      <point x="140" y="711" type="curve" smooth="yes"/>
      <point x="140" y="0" type="line"/>
    </contour>
  </outline>
</glyph>
<glyph name="thorn" format="2">
  <advance width="600"/>
  <unicode hex="00FE"/>
  <outline>
    <contour>
      <point x="125" y="-200" type="line"/>
      <point x="146" y="-200" type="line"/>
      <point x="146" y="78" type="line"/>
      <point x="149" y="78" type="line"/>
      <point x="170" y="35"/>
      <point x="221" y="-12"/>
      <point x="313" y="-12" type="curve" smooth="yes"/>
      <point x="436" y="-12"/>
      <point x="520" y="67"/>
      <point x="520" y="258" type="curve" smooth="yes"/>
      <point x="520" y="449"/>
      <point x="436" y="528"/>
      <point x="313" y="528" type="curve" smooth="yes"/>
      <point x="221" y="528"/>
      <point x="170" y="481"/>
      <point x="149" y="438" type="curve"/>
      <point x="146" y="438" type="line"/>
      <point x="146" y="740" type="line"/>
      <point x="125" y="740" type="line"/>
    </contour>
    <contour>
      <point x="311" y="7" type="curve" smooth="yes"/>
      <point x="224" y="7"/>
      <point x="146" y="62"/>
      <point x="146" y="143" type="curve" smooth="yes"/>
      <point x="146" y="373" type="line" smooth="yes"/>
      <point x="146" y="454"/>
      <point x="224" y="509"/>
      <point x="311" y="509" type="curve" smooth="yes"/>
      <point x="423" y="509"/>
      <point x="497" y="433"/>
      <point x="497" y="286" type="curve" smooth="yes"/>
      <point x="497" y="230" type="line" smooth="yes"/>
      <point x="497" y="83"/>
      <point x="422" y="7"/>
    </contour>
  </outline>
</glyph>
<glyph name="Aogonek" format="2">
  <advance width="600"/>
  <unicode hex="0104"/>
  <anchor x="300.0" y="0.0" name="bottom"/>
  <anchor x="300.0" y="698.0" name="top"/>
  <outline>
    <contour>
      <point x="52" y="0" type="line"/>
      <point x="75" y="0" type="line"/>
      <point x="153" y="234" type="line"/>
      <point x="447" y="234" type="line"/>
      <point x="525" y="1" type="line"/>
      <point x="433" y="-52"/>
      <point x="408" y="-95"/>
      <point x="408" y="-134" type="curve" smooth="yes"/>
      <point x="408" y="-179"/>
      <point x="442" y="-202"/>
      <point x="487" y="-202" type="curve" smooth="yes"/>
      <point x="523" y="-202"/>
      <point x="549" y="-188"/>
      <point x="562" y="-170" type="curve"/>
      <point x="548" y="-159" type="line"/>
      <point x="538" y="-171"/>
      <point x="520" y="-184"/>
      <point x="487" y="-184" type="curve" smooth="yes"/>
      <point x="453" y="-184"/>
      <point x="429" y="-170"/>
      <point x="429" y="-133" type="curve" smooth="yes"/>
      <point x="429" y="-80"/>
      <point x="477" y="-46"/>
      <point x="548" y="0" type="curve"/>
      <point x="315" y="698" type="line"/>
      <point x="285" y="698" type="line"/>
    </contour>
    <contour>
      <point x="441" y="253" type="line"/>
      <point x="159" y="253" type="line"/>
      <point x="298" y="673" type="line"/>
      <point x="301" y="673" type="line"/>
    </contour>
  </outline>
</glyph>
<glyph name="aogonek" format="2">
  <advance width="600"/>
  <unicode hex="0105"/>
  <anchor x="275.0" y="0.0" name="bottom"/>
  <anchor x="275.0" y="516.0" name="top"/>
  <outline>
    <contour>
      <point x="531" y="19" type="line"/>
      <point x="446" y="19" type="line"/>
      <point x="446" y="359" type="line" smooth="yes"/>
      <point x="446" y="466"/>
      <point x="383" y="528"/>
      <point x="275" y="528" type="curve" smooth="yes"/>
      <point x="183" y="528"/>
      <point x="124" y="486"/>
      <point x="95" y="420" type="curve"/>
      <point x="112" y="410" type="line"/>
      <point x="141" y="479"/>
      <point x="202" y="509"/>
      <point x="275" y="509" type="curve" smooth="yes"/>
      <point x="368" y="509"/>
      <point x="425" y="460"/>
      <point x="425" y="356" type="curve" smooth="yes"/>
      <point x="425" y="275" type="line"/>
      <point x="275" y="275" type="line" smooth="yes"/>
      <point x="123" y="275"/>
      <point x="78" y="214"/>
      <point x="78" y="130" type="curve" smooth="yes"/>
      <point x="78" y="39"/>
      <point x="139" y="-12"/>
      <point x="249" y="-12" type="curve" smooth="yes"/>
      <point x="346" y="-12"/>
      <point x="397" y="29"/>
      <point x="422" y="77" type="curve"/>
      <point x="425" y="77" type="line"/>
      <point x="425" y="29" type="line" smooth="yes"/>
      <point x="425" y="9"/>
      <point x="434" y="0"/>
      <point x="454" y="0" type="curve" smooth="yes"/>
      <point x="503" y="0" type="line"/>
      <point x="504" y="-2" type="line"/>
      <point x="417" y="-51"/>
      <point x="391" y="-95"/>
      <point x="391" y="-134" type="curve" smooth="yes"/>
      <point x="391" y="-179"/>
      <point x="425" y="-202"/>
      <point x="470" y="-202" type="curve" smooth="yes"/>
      <point x="506" y="-202"/>
      <point x="532" y="-188"/>
      <point x="545" y="-170" type="curve"/>
      <point x="531" y="-159" type="line"/>
      <point x="521" y="-171"/>
      <point x="503" y="-184"/>
      <point x="470" y="-184" type="curve" smooth="yes"/>
      <point x="436" y="-184"/>
      <point x="412" y="-170"/>
      <point x="412" y="-133" type="curve" smooth="yes"/>
      <point x="412" y="-80"/>
      <point x="460" y="-46"/>
      <point x="531" y="0" type="curve"/>
    </contour>
    <contour>
      <point x="425" y="257" type="line"/>
      <point x="425" y="148" type="line" smooth="yes"/>
      <point x="425" y="54"/>
      <point x="343" y="7"/>
      <point x="249" y="7" type="curve" smooth="yes"/>
      <point x="162" y="7"/>
      <point x="101" y="45"/>
      <point x="101" y="114" type="curve" smooth="yes"/>
      <point x="101" y="146" type="line" smooth="yes"/>
      <point x="101" y="212"/>
      <point x="150" y="257"/>
      <point x="276" y="257" type="curve" smooth="yes"/>
    </contour>
  </outline>
</glyph>
<glyph name="dcaron" format="2">
  <advance width="600"/>
  <unicode hex="010F"/>
  <outline>
    <contour>
      <point x="290" y="-12" type="curve" smooth="yes"/>
      <point x="377" y="-12"/>
      <point x="430" y="34"/>
      <point x="451" y="78" type="curve"/>
      <point x="454" y="78" type="line"/>
      <point x="454" y="0" type="line"/>
      <point x="475" y="0" type="line"/>
      <point x="475" y="740" type="line"/>
      <point x="454" y="740" type="line"/>
      <point x="454" y="438" type="line"/>
      <point x="451" y="438" type="line"/>
      <point x="430" y="482"/>
      <point x="377" y="528"/>
      <point x="290" y="528" type="curve" smooth="yes"/>
      <point x="158" y="528"/>
      <point x="80" y="437"/>
      <point x="80" y="258" type="curve" smooth="yes"/>
      <point x="80" y="79"/>
      <point x="158" y="-12"/>
    </contour>
    <contour>
      <point x="290" y="7" type="curve" smooth="yes"/>
      <point x="170" y="7"/>
      <point x="103" y="94"/>
      <point x="103" y="234" type="curve" smooth="yes"/>
      <point x="103" y="282" type="line" smooth="yes"/>
      <point x="103" y="422"/>
      <point x="170" y="509"/>
      <point x="290" y="509" type="curve" smooth="yes"/>
      <point x="376" y="509"/>
      <point x="454" y="454"/>
      <point x="454" y="373" type="curve" smooth="yes"/>
      <point x="454" y="143" type="line" smooth="yes"/>
      <point x="454" y="62"/>
      <point x="376" y="7"/>
    </contour>
    <contour>
      <point x="546" y="564" type="line"/>
      <point x="562" y="564" type="line"/>
      <point x="587" y="740" type="line"/>
      <point x="562" y="740" type="line"/>
    </contour>
  </outline>
</glyph>
<glyph name="Dcroat" format="2">
  <advance width="600"/>
  <unicode hex="0110"/>
  <outline>
    <contour>
      <point x="127" y="0" type="line"/>
      <point x="289" y="0" type="line" smooth="yes"/>
      <point x="456" y="0"/>
      <point x="527" y="118"/>
      <point x="527" y="349" type="curve" smooth="yes"/>
      <point x="527" y="580"/>
      <point x="456" y="698"/>
      <point x="289" y="698" type="curve" smooth="yes"/>
      <point x="127" y="698" type="line"/>
      <point x="127" y="378" type="line"/>
      <point x="33" y="378" type="line"/>
      <point x="33" y="359" type="line"/>
      <point x="127" y="359" type="line"/>
    </contour>
    <contour>
      <point x="149" y="20" type="line"/>
      <point x="149" y="359" type="line"/>
      <point x="327" y="359" type="line"/>
      <point x="327" y="378" type="line"/>
      <point x="149" y="378" type="line"/>
      <point x="149" y="678" type="line"/>
      <point x="290" y="678" type="line" smooth="yes"/>
      <point x="439" y="678"/>
      <point x="503" y="566"/>
      <point x="503" y="381" type="curve" smooth="yes"/>
      <point x="503" y="317" type="line" smooth="yes"/>
      <point x="503" y="132"/>
      <point x="439" y="20"/>
      <point x="290" y="20" type="curve" smooth="yes"/>
    </contour>
  </outline>
</glyph>
<glyph name="dcroat" format="2">
  <advance width="600"/>
  <unicode hex="0111"/>
  <outline>
    <contour>
      <point x="454" y="0" type="line"/>
      <point x="475" y="0" type="line"/>
      <point x="475" y="636" type="line"/>
      <point x="547" y="636" type="line"/>
      <point x="547" y="654" type="line"/>
      <point x="475" y="654" type="line"/>
      <point x="475" y="740" type="line"/>
      <point x="454" y="740" type="line"/>
      <point x="454" y="654" type="line"/>
      <point x="289" y="654" type="line"/>
      <point x="289" y="636" type="line"/>
      <point x="454" y="636" type="line"/>
      <point x="454" y="438" type="line"/>
      <point x="451" y="438" type="line"/>
      <point x="430" y="482"/>
      <point x="377" y="528"/>
      <point x="290" y="528" type="curve" smooth="yes"/>
      <point x="158" y="528"/>
      <point x="80" y="437"/>
      <point x="80" y="258" type="curve" smooth="yes"/>
      <point x="80" y="79"/>
      <point x="158" y="-12"/>
      <point x="290" y="-12" type="curve" smooth="yes"/>
      <point x="377" y="-12"/>
      <point x="430" y="34"/>
      <point x="451" y="78" type="curve"/>
      <point x="454" y="78" type="line"/>
    </contour>
    <contour>
      <point x="290" y="7" type="curve" smooth="yes"/>
      <point x="170" y="7"/>
      <point x="103" y="94"/>
      <point x="103" y="234" type="curve" smooth="yes"/>
      <point x="103" y="282" type="line" smooth="yes"/>
      <point x="103" y="422"/>
      <point x="170" y="509"/>
      <point x="290" y="509" type="curve" smooth="yes"/>
      <point x="376" y="509"/>
      <point x="454" y="454"/>
      <point x="454" y="373" type="curve" smooth="yes"/>
      <point x="454" y="143" type="line" smooth="yes"/>
      <point x="454" y="62"/>
      <point x="376" y="7"/>
    </contour>
  </outline>
</glyph>
<glyph name="Eogonek" format="2">
  <advance width="600"/>
  <unicode hex="0118"/>
  <anchor x="307.0" y="0.0" name="bottom"/>
  <anchor x="309.0" y="698.0" name="top"/>
  <outline>
    <contour>
      <point x="108" y="0" type="line"/>
      <point x="486" y="0" type="line"/>
      <point x="487" y="-2" type="line"/>
      <point x="400" y="-51"/>
      <point x="374" y="-95"/>
      <point x="374" y="-134" type="curve" smooth="yes"/>
      <point x="374" y="-179"/>
      <point x="408" y="-202"/>
      <point x="453" y="-202" type="curve" smooth="yes"/>
      <point x="489" y="-202"/>
      <point x="515" y="-188"/>
      <point x="528" y="-170" type="curve"/>
      <point x="514" y="-159" type="line"/>
      <point x="504" y="-171"/>
      <point x="486" y="-184"/>
      <point x="453" y="-184" type="curve" smooth="yes"/>
      <point x="419" y="-184"/>
      <point x="395" y="-170"/>
      <point x="395" y="-133" type="curve" smooth="yes"/>
      <point x="395" y="-80"/>
      <point x="443" y="-46"/>
      <point x="514" y="0" type="curve"/>
      <point x="514" y="20" type="line"/>
      <point x="130" y="20" type="line"/>
      <point x="130" y="344" type="line"/>
      <point x="500" y="344" type="line"/>
      <point x="500" y="364" type="line"/>
      <point x="130" y="364" type="line"/>
      <point x="130" y="678" type="line"/>
      <point x="514" y="678" type="line"/>
      <point x="514" y="698" type="line"/>
      <point x="108" y="698" type="line"/>
    </contour>
  </outline>
</glyph>
<glyph name="eogonek" format="2">
  <advance width="600"/>
  <unicode hex="0119"/>
  <anchor x="306.0" y="0.0" name="bottom"/>
  <anchor x="302.0" y="516.0" name="top"/>
  <outline>
    <contour>
      <point x="331" y="-202" type="curve" smooth="yes"/>
      <point x="367" y="-202"/>
      <point x="393" y="-188"/>
      <point x="406" y="-170" type="curve"/>
      <point x="392" y="-159" type="line"/>
      <point x="382" y="-171"/>
      <point x="364" y="-184"/>
      <point x="331" y="-184" type="curve" smooth="yes"/>
      <point x="297" y="-184"/>
      <point x="273" y="-170"/>
      <point x="273" y="-132" type="curve" smooth="yes"/>
      <point x="273" y="-82"/>
      <point x="326" y="-39"/>
      <point x="400" y="4" type="curve" smooth="yes"/>
      <point x="461" y="39"/>
      <point x="485" y="76"/>
      <point x="503" y="124" type="curve"/>
      <point x="485" y="131" type="line"/>
      <point x="454" y="48"/>
      <point x="392" y="7"/>
      <point x="306" y="7" type="curve" smooth="yes"/>
      <point x="183" y="7"/>
      <point x="115" y="94"/>
      <point x="115" y="234" type="curve" smooth="yes"/>
      <point x="115" y="260" type="line"/>
      <point x="511" y="260" type="line"/>
      <point x="511" y="267" type="line" smooth="yes"/>
      <point x="511" y="426"/>
      <point x="439" y="528"/>
      <point x="302" y="528" type="curve" smooth="yes"/>
      <point x="170" y="528"/>
      <point x="92" y="437"/>
      <point x="92" y="258" type="curve" smooth="yes"/>
      <point x="92" y="79"/>
      <point x="171" y="-12"/>
      <point x="306" y="-12" type="curve" smooth="yes"/>
      <point x="328" y="-12"/>
      <point x="347" y="-8"/>
      <point x="365" y="-2" type="curve"/>
      <point x="366" y="-4" type="line"/>
      <point x="276" y="-54"/>
      <point x="252" y="-96"/>
      <point x="252" y="-134" type="curve" smooth="yes"/>
      <point x="252" y="-179"/>
      <point x="286" y="-202"/>
    </contour>
    <contour>
      <point x="115" y="278" type="line"/>
      <point x="115" y="282" type="line" smooth="yes"/>
      <point x="115" y="422"/>
      <point x="182" y="509"/>
      <point x="302" y="509" type="curve" smooth="yes"/>
      <point x="422" y="509"/>
      <point x="489" y="422"/>
      <point x="489" y="282" type="curve" smooth="yes"/>
      <point x="489" y="278" type="line"/>
    </contour>
  </outline>
</glyph>
<glyph name="Hbar" format="2">
  <advance width="600"/>
  <unicode hex="0126"/>
  <outline>
    <contour>
      <point x="480" y="0" type="line"/>
      <point x="502" y="0" type="line"/>
      <point x="502" y="537" type="line"/>
      <point x="586" y="537" type="line"/>
      <point x="586" y="556" type="line"/>
      <point x="502" y="556" type="line"/>
      <point x="502" y="698" type="line"/>
      <point x="480" y="698" type="line"/>
      <point x="480" y="556" type="line"/>
      <point x="120" y="556" type="line"/>
      <point x="120" y="698" type="line"/>
      <point x="98" y="698" type="line"/>
      <point x="98" y="556" type="line"/>
      <point x="14" y="556" type="line"/>
      <point x="14" y="537" type="line"/>
      <point x="98" y="537" type="line"/>
      <point x="98" y="0" type="line"/>
      <point x="120" y="0" type="line"/>
      <point x="120" y="344" type="line"/>
      <point x="480" y="344" type="line"/>
    </contour>
    <contour>
      <point x="120" y="364" type="line"/>
      <point x="120" y="537" type="line"/>
      <point x="480" y="537" type="line"/>
      <point x="480" y="364" type="line"/>
    </contour>
  </outline>
</glyph>
<glyph name="hbar" format="2">
  <advance width="600"/>
  <unicode hex="0127"/>
  <outline>
    <contour>
      <point x="148" y="0" type="line"/>
      <point x="148" y="372" type="line" smooth="yes"/>
      <point x="148" y="464"/>
      <point x="223" y="509"/>
      <point x="306" y="509" type="curve" smooth="yes"/>
      <point x="406" y="509"/>
      <point x="462" y="456"/>
      <point x="462" y="333" type="curve" smooth="yes"/>
      <point x="462" y="0" type="line"/>
      <point x="483" y="0" type="line"/>
      <point x="483" y="336" type="line" smooth="yes"/>
      <point x="483" y="461"/>
      <point x="423" y="528"/>
      <point x="309" y="528" type="curve" smooth="yes"/>
      <point x="218" y="528"/>
      <point x="169" y="486"/>
      <point x="151" y="442" type="curve"/>
      <point x="148" y="442" type="line"/>
      <point x="148" y="636" type="line"/>
      <point x="313" y="636" type="line"/>
      <point x="313" y="654" type="line"/>
      <point x="148" y="654" type="line"/>
      <point x="148" y="740" type="line"/>
      <point x="127" y="740" type="line"/>
      <point x="127" y="654" type="line"/>
      <point x="55" y="654" type="line"/>
      <point x="55" y="636" type="line"/>
      <point x="127" y="636" type="line"/>
      <point x="127" y="0" type="line"/>
    </contour>
  </outline>
</glyph>
<glyph name="Iogonek" format="2">
  <advance width="600"/>
  <unicode hex="012E"/>
  <anchor x="300.0" y="0.0" name="bottom"/>
  <anchor x="300.0" y="698.0" name="top"/>
  <outline>
    <contour>
      <point x="92" y="0" type="line"/>
      <point x="480" y="0" type="line"/>
      <point x="481" y="-2" type="line"/>
      <point x="394" y="-51"/>
      <point x="368" y="-95"/>
      <point x="368" y="-134" type="curve" smooth="yes"/>
      <point x="368" y="-179"/>
      <point x="402" y="-202"/>
      <point x="447" y="-202" type="curve" smooth="yes"/>
      <point x="483" y="-202"/>
      <point x="509" y="-188"/>
      <point x="522" y="-170" type="curve"/>
      <point x="508" y="-159" type="line"/>
      <point x="498" y="-171"/>
      <point x="480" y="-184"/>
      <point x="447" y="-184" type="curve" smooth="yes"/>
      <point x="413" y="-184"/>
      <point x="389" y="-170"/>
      <point x="389" y="-133" type="curve" smooth="yes"/>
      <point x="389" y="-80"/>
      <point x="437" y="-46"/>
      <point x="508" y="0" type="curve"/>
      <point x="508" y="19" type="line"/>
      <point x="311" y="19" type="line"/>
      <point x="311" y="679" type="line"/>
      <point x="508" y="679" type="line"/>
      <point x="508" y="698" type="line"/>
      <point x="92" y="698" type="line"/>
      <point x="92" y="679" type="line"/>
      <point x="289" y="679" type="line"/>
      <point x="289" y="19" type="line"/>
      <point x="92" y="19" type="line"/>
    </contour>
  </outline>
</glyph>
<glyph name="iogonek" format="2">
  <advance width="600"/>
  <unicode hex="012F"/>
  <anchor x="332.0" y="0.0" name="bottom"/>
  <outline>
    <contour>
      <point x="474" y="-202" type="curve" smooth="yes"/>
      <point x="510" y="-202"/>
      <point x="536" y="-188"/>
      <point x="549" y="-170" type="curve"/>
      <point x="535" y="-159" type="line"/>
      <point x="525" y="-171"/>
      <point x="507" y="-184"/>
      <point x="474" y="-184" type="curve" smooth="yes"/>
      <point x="440" y="-184"/>
      <point x="416" y="-170"/>
      <point x="416" y="-133" type="curve" smooth="yes"/>
      <point x="416" y="-80"/>
      <point x="464" y="-46"/>
      <point x="535" y="0" type="curve"/>
      <point x="535" y="19" type="line"/>
      <point x="343" y="19" type="line"/>
      <point x="343" y="516" type="line"/>
      <point x="117" y="516" type="line"/>
      <point x="117" y="497" type="line"/>
      <point x="322" y="497" type="line"/>
      <point x="322" y="19" type="line"/>
      <point x="117" y="19" type="line"/>
      <point x="117" y="0" type="line"/>
      <point x="507" y="0" type="line"/>
      <point x="508" y="-2" type="line"/>
      <point x="421" y="-51"/>
      <point x="395" y="-95"/>
      <point x="395" y="-134" type="curve" smooth="yes"/>
      <point x="395" y="-179"/>
      <point x="429" y="-202"/>
    </contour>
    <contour>
      <point x="332" y="691" type="curve" smooth="yes"/>
      <point x="353" y="691"/>
      <point x="361" y="701"/>
      <point x="361" y="714" type="curve" smooth="yes"/>
      <point x="361" y="722" type="line" smooth="yes"/>
      <point x="361" y="735"/>
      <point x="353" y="745"/>
      <point x="332" y="745" type="curve" smooth="yes"/>
      <point x="311" y="745"/>
      <point x="303" y="735"/>
      <point x="303" y="722" type="curve" smooth="yes"/>
      <point x="303" y="714" type="line" smooth="yes"/>
      <point x="303" y="701"/>
      <point x="311" y="691"/>
    </contour>
  </outline>
</glyph>
<glyph name="dotlessi" format="2">
  <advance width="600"/>
  <unicode hex="0131"/>
  <anchor x="332.0" y="0.0" name="bottom"/>
  <anchor x="535.0" y="0.0" name="bottomright"/>
  <anchor x="332.0" y="516.0" name="top"/>
  <outline>
    <contour>
      <point x="117" y="0" type="line"/>
      <point x="535" y="0" type="line"/>
      <point x="535" y="19" type="line"/>
      <point x="343" y="19" type="line"/>
      <point x="343" y="516" type="line"/>
      <point x="117" y="516" type="line"/>
      <point x="117" y="497" type="line"/>
      <point x="322" y="497" type="line"/>
      <point x="322" y="19" type="line"/>
      <point x="117" y="19" type="line"/>
    </contour>
  </outline>
</glyph>
<glyph name="IJ" format="2">
  <advance width="600"/>
  <unicode hex="0132"/>
  <outline>
    <contour>
      <point x="462" y="698" type="line"/>
      <point x="462" y="191" type="line" smooth="yes"/>
      <point x="462" y="73"/>
      <point x="404" y="8"/>
      <point x="300" y="8" type="curve" smooth="yes"/>
      <point x="210" y="8"/>
      <point x="159" y="57"/>
      <point x="140" y="132" type="curve"/>
      <point x="119" y="127" type="line"/>
      <point x="138" y="40"/>
      <point x="202" y="-12"/>
      <point x="300" y="-12" type="curve" smooth="yes"/>
      <point x="415" y="-12"/>
      <point x="484" y="60"/>
      <point x="484" y="189" type="curve" smooth="yes"/>
      <point x="484" y="698" type="line"/>
    </contour>
    <contour>
      <point x="116" y="271" type="line"/>
      <point x="138" y="271" type="line"/>
      <point x="138" y="698" type="line"/>
      <point x="116" y="698" type="line"/>
    </contour>
  </outline>
</glyph>
<glyph name="ij" format="2">
  <advance width="600"/>
  <unicode hex="0133"/>
  <outline>
    <contour>
      <point x="132" y="0" type="line"/>
      <point x="153" y="0" type="line"/>
      <point x="153" y="516" type="line"/>
      <point x="132" y="516" type="line"/>
    </contour>
    <contour>
      <point x="152" y="-200" type="line"/>
      <point x="439" y="-200" type="line" smooth="yes"/>
      <point x="459" y="-200"/>
      <point x="468" y="-191"/>
      <point x="468" y="-171" type="curve" smooth="yes"/>
      <point x="468" y="516" type="line"/>
      <point x="447" y="516" type="line"/>
      <point x="447" y="-181" type="line"/>
      <point x="152" y="-181" type="line"/>
    </contour>
    <contour>
      <point x="142" y="691" type="curve" smooth="yes"/>
      <point x="161" y="691"/>
      <point x="171" y="699"/>
      <point x="171" y="714" type="curve" smooth="yes"/>
      <point x="171" y="722" type="line" smooth="yes"/>
      <point x="171" y="737"/>
      <point x="161" y="745"/>
      <point x="142" y="745" type="curve" smooth="yes"/>
      <point x="123" y="745"/>
      <point x="113" y="737"/>
      <point x="113" y="722" type="curve" smooth="yes"/>
      <point x="113" y="714" type="line" smooth="yes"/>
      <point x="113" y="699"/>
      <point x="123" y="691"/>
    </contour>
    <contour>
      <point x="458" y="691" type="curve" smooth="yes"/>
      <point x="477" y="691"/>
      <point x="487" y="699"/>
      <point x="487" y="714" type="curve" smooth="yes"/>
      <point x="487" y="722" type="line" smooth="yes"/>
      <point x="487" y="737"/>
      <point x="477" y="745"/>
      <point x="458" y="745" type="curve" smooth="yes"/>
      <point x="439" y="745"/>
      <point x="429" y="737"/>
      <point x="429" y="722" type="curve" smooth="yes"/>
      <point x="429" y="714" type="line" smooth="yes"/>
      <point x="429" y="699"/>
      <point x="439" y="691"/>
    </contour>
  </outline>
</glyph>
<glyph name="kgreenlandic" format="2">
  <advance width="600"/>
  <unicode hex="0138"/>
  <anchor x="337.0" y="0.0" name="bottom"/>
  <outline>
    <contour>
      <point x="535" y="0" type="line"/>
      <point x="561" y="0" type="line"/>
      <point x="299" y="306" type="line"/>
      <point x="533" y="516" type="line"/>
      <point x="505" y="516" type="line"/>
      <point x="284" y="317" type="line"/>
      <point x="163" y="209" type="line"/>
      <point x="160" y="209" type="line"/>
      <point x="160" y="516" type="line"/>
      <point x="139" y="516" type="line"/>
      <point x="139" y="0" type="line"/>
      <point x="160" y="0" type="line"/>
      <point x="160" y="182" type="line"/>
      <point x="284" y="292" type="line"/>
    </contour>
  </outline>
</glyph>
<glyph name="Lslash" format="2">
  <advance width="600"/>
  <unicode hex="0141"/>
  <outline>
    <contour>
      <point x="528" y="20" type="line"/>
      <point x="168" y="20" type="line"/>
      <point x="168" y="307" type="line"/>
      <point x="402" y="381" type="line"/>
      <point x="402" y="401" type="line"/>
      <point x="168" y="327" type="line"/>
      <point x="168" y="698" type="line"/>
      <point x="146" y="698" type="line"/>
      <point x="146" y="321" type="line"/>
      <point x="55" y="292" type="line"/>
      <point x="55" y="272" type="line"/>
      <point x="146" y="301" type="line"/>
      <point x="146" y="0" type="line"/>
      <point x="528" y="0" type="line"/>
    </contour>
  </outline>
</glyph>
<glyph name="lslash" format="2">
  <advance width="600"/>
  <unicode hex="0142"/>
  <outline>
    <contour>
      <point x="91" y="0" type="line"/>
      <point x="510" y="0" type="line"/>
      <point x="510" y="19" type="line"/>
      <point x="311" y="19" type="line"/>
      <point x="311" y="328" type="line"/>
      <point x="484" y="385" type="line"/>
      <point x="484" y="405" type="line"/>
      <point x="311" y="348" type="line"/>
      <point x="311" y="740" type="line"/>
      <point x="91" y="740" type="line"/>
      <point x="91" y="721" type="line"/>
      <point x="290" y="721" type="line"/>
      <point x="290" y="342" type="line"/>
      <point x="116" y="286" type="line"/>
      <point x="116" y="266" type="line"/>
      <point x="290" y="322" type="line"/>
      <point x="290" y="19" type="line"/>
      <point x="91" y="19" type="line"/>
    </contour>
  </outline>
</glyph>
<glyph name="napostrophe" format="2">
  <advance width="600"/>
  <unicode hex="0149"/>
  <outline>
    <contour>
      <point x="127" y="0" type="line"/>
      <point x="148" y="0" type="line"/>
      <point x="148" y="372" type="line" smooth="yes"/>
      <point x="148" y="464"/>
      <point x="223" y="509"/>
      <point x="306" y="509" type="curve" smooth="yes"/>
      <point x="406" y="509"/>
      <point x="462" y="456"/>
      <point x="462" y="333" type="curve" smooth="yes"/>
      <point x="462" y="0" type="line"/>
      <point x="483" y="0" type="line"/>
      <point x="483" y="336" type="line" smooth="yes"/>
      <point x="483" y="461"/>
      <point x="423" y="528"/>
      <point x="309" y="528" type="curve" smooth="yes"/>
      <point x="218" y="528"/>
      <point x="169" y="486"/>
      <point x="151" y="442" type="curve"/>
      <point x="148" y="442" type="line"/>
      <point x="148" y="516" type="line"/>
      <point x="127" y="516" type="line"/>
    </contour>
    <contour>
      <point x="15" y="555" type="line"/>
      <point x="32" y="555" type="line"/>
      <point x="82" y="740" type="line"/>
      <point x="44" y="740" type="line"/>
    </contour>
  </outline>
</glyph>
<glyph name="Eng" format="2">
  <advance width="600"/>
  <unicode hex="014A"/>
  <anchor x="300.0" y="698.0" name="top"/>
  <outline>
    <contour>
      <point x="119" y="0" type="line"/>
      <point x="119" y="668" type="line"/>
      <point x="122" y="668" type="line"/>
      <point x="470" y="0" type="line"/>
      <point x="481" y="0" type="line"/>
      <point x="481" y="-182" type="line"/>
      <point x="180" y="-182" type="line"/>
      <point x="180" y="-200" type="line"/>
      <point x="473" y="-200" type="line" smooth="yes"/>
      <point x="493" y="-200"/>
      <point x="502" y="-191"/>
      <point x="502" y="-171" type="curve" smooth="yes"/>
      <point x="502" y="698" type="line"/>
      <point x="481" y="698" type="line"/>
      <point x="481" y="30" type="line"/>
      <point x="478" y="30" type="line"/>
      <point x="130" y="698" type="line"/>
      <point x="98" y="698" type="line"/>
      <point x="98" y="0" type="line"/>
    </contour>
  </outline>
</glyph>
<glyph name="OE" format="2">
  <advance width="600"/>
  <unicode hex="0152"/>
  <outline>
    <contour>
      <point x="552" y="0" type="line"/>
      <point x="552" y="20" type="line"/>
      <point x="351" y="20" type="line"/>
      <point x="351" y="344" type="line"/>
      <point x="538" y="344" type="line"/>
      <point x="538" y="364" type="line"/>
      <point x="351" y="364" type="line"/>
      <point x="351" y="678" type="line"/>
      <point x="552" y="678" type="line"/>
      <point x="552" y="698" type="line"/>
      <point x="299" y="698" type="line" smooth="yes"/>
      <point x="132" y="698"/>
      <point x="61" y="580"/>
      <point x="61" y="349" type="curve" smooth="yes"/>
      <point x="61" y="118"/>
      <point x="132" y="0"/>
      <point x="299" y="0" type="curve" smooth="yes"/>
    </contour>
    <contour>
      <point x="298" y="20" type="line" smooth="yes"/>
      <point x="149" y="20"/>
      <point x="85" y="132"/>
      <point x="85" y="317" type="curve" smooth="yes"/>
      <point x="85" y="381" type="line" smooth="yes"/>
      <point x="85" y="566"/>
      <point x="149" y="678"/>
      <point x="298" y="678" type="curve" smooth="yes"/>
      <point x="329" y="678" type="line"/>
      <point x="329" y="20" type="line"/>
    </contour>
  </outline>
</glyph>
<glyph name="tcedilla" format="2">
  <advance width="600"/>
  <unicode hex="0163"/>
  <anchor x="389.0" y="760.0" name="topright"/>
  <outline>
    <contour>
      <point x="388" y="-202" type="curve" smooth="yes"/>
      <point x="439" y="-202"/>
      <point x="470" y="-169"/>
      <point x="470" y="-131" type="curve" smooth="yes"/>
      <point x="470" y="-95"/>
      <point x="442" y="-72"/>
      <point x="403" y="-72" type="curve" smooth="yes"/>
      <point x="394" y="-72"/>
      <point x="382" y="-73"/>
      <point x="373" y="-75" type="curve"/>
      <point x="371" y="-73" type="line"/>
      <point x="389" y="0" type="line"/>
      <point x="522" y="0" type="line"/>
      <point x="522" y="19" type="line"/>
      <point x="258" y="19" type="line"/>
      <point x="258" y="497" type="line"/>
      <point x="522" y="497" type="line"/>
      <point x="522" y="516" type="line"/>
      <point x="258" y="516" type="line"/>
      <point x="258" y="698" type="line"/>
      <point x="237" y="698" type="line"/>
      <point x="237" y="545" type="line" smooth="yes"/>
      <point x="237" y="525"/>
      <point x="228" y="516"/>
      <point x="208" y="516" type="curve" smooth="yes"/>
      <point x="36" y="516" type="line"/>
      <point x="36" y="497" type="line"/>
      <point x="237" y="497" type="line"/>
      <point x="237" y="29" type="line" smooth="yes"/>
      <point x="237" y="9"/>
      <point x="246" y="0"/>
      <point x="266" y="0" type="curve" smooth="yes"/>
      <point x="371" y="0" type="line"/>
      <point x="351" y="-84" type="line"/>
      <point x="388" y="-86" type="line" smooth="yes"/>
      <point x="433" y="-88"/>
      <point x="449" y="-107"/>
      <point x="449" y="-132" type="curve" smooth="yes"/>
      <point x="449" y="-166"/>
      <point x="424" y="-184"/>
      <point x="388" y="-184" type="curve" smooth="yes"/>
      <point x="358" y="-184"/>
      <point x="334" y="-174"/>
      <point x="320" y="-157" type="curve"/>
      <point x="307" y="-170" type="line"/>
      <point x="319" y="-187"/>
      <point x="350" y="-202"/>
    </contour>
  </outline>
</glyph>
<glyph name="Tbar" format="2">
  <advance width="600"/>
  <unicode hex="0166"/>
  <anchor x="300.0" y="0.0" name="bottom"/>
  <anchor x="300.0" y="698.0" name="top"/>
  <outline>
    <contour>
      <point x="502" y="365" type="line"/>
      <point x="502" y="384" type="line"/>
      <point x="311" y="384" type="line"/>
      <point x="311" y="678" type="line"/>
      <point x="559" y="678" type="line"/>
      <point x="559" y="698" type="line"/>
      <point x="41" y="698" type="line"/>
      <point x="41" y="678" type="line"/>
      <point x="289" y="678" type="line"/>
      <point x="289" y="384" type="line"/>
      <point x="98" y="384" type="line"/>
      <point x="98" y="365" type="line"/>
      <point x="289" y="365" type="line"/>
      <point x="289" y="0" type="line"/>
      <point x="311" y="0" type="line"/>
      <point x="311" y="365" type="line"/>
    </contour>
  </outline>
</glyph>
<glyph name="tbar" format="2">
  <advance width="600"/>
  <unicode hex="0167"/>
  <anchor x="378.0" y="0.0" name="bottom"/>
  <anchor x="389.0" y="760.0" name="topright"/>
  <outline>
    <contour>
      <point x="522" y="19" type="line"/>
      <point x="258" y="19" type="line"/>
      <point x="258" y="283" type="line"/>
      <point x="451" y="283" type="line"/>
      <point x="451" y="301" type="line"/>
      <point x="258" y="301" type="line"/>
      <point x="258" y="497" type="line"/>
      <point x="522" y="497" type="line"/>
      <point x="522" y="516" type="line"/>
      <point x="258" y="516" type="line"/>
      <point x="258" y="698" type="line"/>
      <point x="237" y="698" type="line"/>
      <point x="237" y="545" type="line" smooth="yes"/>
      <point x="237" y="525"/>
      <point x="228" y="516"/>
      <point x="208" y="516" type="curve" smooth="yes"/>
      <point x="36" y="516" type="line"/>
      <point x="36" y="497" type="line"/>
      <point x="237" y="497" type="line"/>
      <point x="237" y="301" type="line"/>
      <point x="107" y="301" type="line"/>
      <point x="107" y="283" type="line"/>
      <point x="237" y="283" type="line"/>
      <point x="237" y="29" type="line" smooth="yes"/>
      <point x="237" y="9"/>
      <point x="246" y="0"/>
      <point x="266" y="0" type="curve" smooth="yes"/>
      <point x="522" y="0" type="line"/>
    </contour>
  </outline>
</glyph>
<glyph name="Uogonek" format="2">
  <advance width="600"/>
  <unicode hex="0172"/>
  <anchor x="300.0" y="0.0" name="bottom"/>
  <anchor x="300.0" y="698.0" name="top"/>
  <outline>
    <contour>
      <point x="98" y="698" type="line"/>
      <point x="98" y="273" type="line" smooth="yes"/>
      <point x="98" y="54"/>
      <point x="147" y="-12"/>
      <point x="300" y="-12" type="curve" smooth="yes"/>
      <point x="329" y="-12"/>
      <point x="353" y="-9"/>
      <point x="375" y="-3" type="curve"/>
      <point x="376" y="-5" type="line"/>
      <point x="285" y="-57"/>
      <point x="262" y="-96"/>
      <point x="262" y="-134" type="curve" smooth="yes"/>
      <point x="262" y="-179"/>
      <point x="296" y="-202"/>
      <point x="341" y="-202" type="curve" smooth="yes"/>
      <point x="377" y="-202"/>
      <point x="403" y="-188"/>
      <point x="416" y="-170" type="curve"/>
      <point x="402" y="-159" type="line"/>
      <point x="392" y="-171"/>
      <point x="374" y="-184"/>
      <point x="341" y="-184" type="curve" smooth="yes"/>
      <point x="307" y="-184"/>
      <point x="283" y="-170"/>
      <point x="283" y="-132" type="curve" smooth="yes"/>
      <point x="283" y="-82"/>
      <point x="324" y="-56"/>
      <point x="429" y="19" type="curve" smooth="yes"/>
      <point x="481" y="56"/>
      <point x="502" y="135"/>
      <point x="502" y="273" type="curve" smooth="yes"/>
      <point x="502" y="698" type="line"/>
      <point x="480" y="698" type="line"/>
      <point x="480" y="273" type="line" smooth="yes"/>
      <point x="480" y="67"/>
      <point x="440" y="8"/>
      <point x="300" y="8" type="curve" smooth="yes"/>
      <point x="160" y="8"/>
      <point x="120" y="67"/>
      <point x="120" y="273" type="curve" smooth="yes"/>
      <point x="120" y="698" type="line"/>
    </contour>
  </outline>
</glyph>
<glyph name="Schwa" format="2">
  <advance width="600"/>
  <unicode hex="018F"/>
  <outline>
    <contour>
      <point x="300" y="-12" type="curve" smooth="yes"/>
      <point x="446" y="-12"/>
      <point x="529" y="93"/>
      <point x="529" y="349" type="curve" smooth="yes"/>
      <point x="529" y="605"/>
      <point x="446" y="710"/>
      <point x="300" y="710" type="curve" smooth="yes"/>
      <point x="196" y="710"/>
      <point x="122" y="655"/>
      <point x="88" y="537" type="curve"/>
      <point x="109" y="532" type="line"/>
      <point x="137" y="637"/>
      <point x="202" y="690"/>
      <point x="300" y="690" type="curve" smooth="yes"/>
      <point x="433" y="690"/>
      <point x="505" y="585"/>
      <point x="505" y="380" type="curve" smooth="yes"/>
      <point x="505" y="340" type="line"/>
      <point x="71" y="340" type="line"/>
      <point x="73" y="90"/>
      <point x="157" y="-12"/>
    </contour>
    <contour>
      <point x="300" y="8" type="curve" smooth="yes"/>
      <point x="167" y="8"/>
      <point x="94" y="114"/>
      <point x="94" y="316" type="curve" smooth="yes"/>
      <point x="94" y="320" type="line"/>
      <point x="505" y="320" type="line"/>
      <point x="505" y="316" type="line" smooth="yes"/>
      <point x="505" y="113"/>
      <point x="433" y="8"/>
    </contour>
  </outline>
</glyph>
<glyph name="florin" format="2">
  <advance width="600"/>
  <unicode hex="0192"/>
  <outline>
    <contour>
      <point x="-26" y="-200" type="line"/>
      <point x="191" y="-200" type="line" smooth="yes"/>
      <point x="211" y="-200"/>
      <point x="222" y="-191"/>
      <point x="225" y="-171" type="curve" smooth="yes"/>
      <point x="319" y="394" type="line"/>
      <point x="510" y="394" type="line"/>
      <point x="513" y="414" type="line"/>
      <point x="323" y="414" type="line"/>
      <point x="367" y="678" type="line"/>
      <point x="591" y="678" type="line"/>
      <point x="594" y="698" type="line"/>
      <point x="377" y="698" type="line" smooth="yes"/>
      <point x="357" y="698"/>
      <point x="346" y="689"/>
      <point x="343" y="669" type="curve" smooth="yes"/>
      <point x="300" y="414" type="line"/>
      <point x="119" y="414" type="line"/>
      <point x="116" y="394" type="line"/>
      <point x="297" y="394" type="line"/>
      <point x="201" y="-180" type="line"/>
      <point x="-23" y="-180" type="line"/>
    </contour>
  </outline>
</glyph>
<glyph name="Ohorn" format="2">
  <advance width="600"/>
  <unicode hex="01A0"/>
  <anchor x="300.0" y="0.0" name="bottom"/>
  <anchor x="300.0" y="698.0" name="top"/>
  <outline>
    <contour>
      <point x="508" y="809" type="line"/>
      <point x="488" y="809" type="line"/>
      <point x="488" y="698" type="line"/>
      <point x="377" y="698" type="line"/>
      <point x="354" y="706"/>
      <point x="328" y="710"/>
      <point x="300" y="710" type="curve" smooth="yes"/>
      <point x="154" y="710"/>
      <point x="71" y="605"/>
      <point x="71" y="349" type="curve" smooth="yes"/>
      <point x="71" y="93"/>
      <point x="154" y="-12"/>
      <point x="300" y="-12" type="curve" smooth="yes"/>
      <point x="446" y="-12"/>
      <point x="529" y="93"/>
      <point x="529" y="349" type="curve" smooth="yes"/>
      <point x="529" y="527"/>
      <point x="488" y="634"/>
      <point x="413" y="680" type="curve"/>
      <point x="479" y="680" type="line" smooth="yes"/>
      <point x="499" y="680"/>
      <point x="508" y="689"/>
      <point x="508" y="709" type="curve" smooth="yes"/>
    </contour>
    <contour>
      <point x="300" y="8" type="curve" smooth="yes"/>
      <point x="167" y="8"/>
      <point x="95" y="112"/>
      <point x="95" y="317" type="curve" smooth="yes"/>
      <point x="95" y="381" type="line" smooth="yes"/>
      <point x="95" y="586"/>
      <point x="167" y="690"/>
      <point x="300" y="690" type="curve" smooth="yes"/>
      <point x="433" y="690"/>
      <point x="505" y="586"/>
      <point x="505" y="381" type="curve" smooth="yes"/>
      <point x="505" y="317" type="line" smooth="yes"/>
      <point x="505" y="112"/>
      <point x="433" y="8"/>
    </contour>
  </outline>
</glyph>
<glyph name="ohorn" format="2">
  <advance width="600"/>
  <unicode hex="01A1"/>
  <anchor x="300.0" y="0.0" name="bottom"/>
  <anchor x="300.0" y="516.0" name="top"/>
  <outline>
    <contour>
      <point x="480" y="627" type="line"/>
      <point x="480" y="516" type="line"/>
      <point x="375" y="516" type="line"/>
      <point x="352" y="524"/>
      <point x="327" y="528"/>
      <point x="300" y="528" type="curve" smooth="yes"/>
      <point x="168" y="528"/>
      <point x="90" y="437"/>
      <point x="90" y="258" type="curve" smooth="yes"/>
      <point x="90" y="79"/>
      <point x="168" y="-12"/>
      <point x="300" y="-12" type="curve" smooth="yes"/>
      <point x="432" y="-12"/>
      <point x="510" y="79"/>
      <point x="510" y="258" type="curve" smooth="yes"/>
      <point x="510" y="377"/>
      <point x="475" y="458"/>
      <point x="412" y="498" type="curve"/>
      <point x="471" y="498" type="line" smooth="yes"/>
      <point x="491" y="498"/>
      <point x="500" y="508"/>
      <point x="500" y="528" type="curve" smooth="yes"/>
      <point x="500" y="627" type="line"/>
    </contour>
    <contour>
      <point x="300" y="7" type="curve" smooth="yes"/>
      <point x="180" y="7"/>
      <point x="113" y="94"/>
      <point x="113" y="234" type="curve" smooth="yes"/>
      <point x="113" y="282" type="line" smooth="yes"/>
      <point x="113" y="422"/>
      <point x="180" y="509"/>
      <point x="300" y="509" type="curve" smooth="yes"/>
      <point x="420" y="509"/>
      <point x="487" y="422"/>
      <point x="487" y="282" type="curve" smooth="yes"/>
      <point x="487" y="234" type="line" smooth="yes"/>
      <point x="487" y="94"/>
      <point x="420" y="7"/>
    </contour>
  </outline>
</glyph>
<glyph name="Uhorn" format="2">
  <advance width="600"/>
  <unicode hex="01AF"/>
  <anchor x="300.0" y="0.0" name="bottom"/>
  <anchor x="300.0" y="698.0" name="top"/>
  <outline>
    <contour>
      <point x="98" y="698" type="line"/>
      <point x="98" y="273" type="line" smooth="yes"/>
      <point x="98" y="54"/>
      <point x="147" y="-12"/>
      <point x="300" y="-12" type="curve" smooth="yes"/>
      <point x="453" y="-12"/>
      <point x="502" y="54"/>
      <point x="502" y="273" type="curve" smooth="yes"/>
      <point x="502" y="680" type="line"/>
      <point x="569" y="680" type="line" smooth="yes"/>
      <point x="589" y="680"/>
      <point x="598" y="689"/>
      <point x="598" y="709" type="curve" smooth="yes"/>
      <point x="598" y="809" type="line"/>
      <point x="578" y="809" type="line"/>
      <point x="578" y="698" type="line"/>
      <point x="480" y="698" type="line"/>
      <point x="480" y="273" type="line" smooth="yes"/>
      <point x="480" y="67"/>
      <point x="440" y="8"/>
      <point x="300" y="8" type="curve" smooth="yes"/>
      <point x="160" y="8"/>
      <point x="120" y="67"/>
      <point x="120" y="273" type="curve" smooth="yes"/>
      <point x="120" y="698" type="line"/>
    </contour>
  </outline>
</glyph>
<glyph name="uhorn" format="2">
  <advance width="600"/>
  <unicode hex="01B0"/>
  <anchor x="296.0" y="0.0" name="bottom"/>
  <anchor x="296.0" y="516.0" name="top"/>
  <outline>
    <contour>
      <point x="569" y="627" type="line"/>
      <point x="549" y="627" type="line"/>
      <point x="549" y="516" type="line"/>
      <point x="452" y="516" type="line"/>
      <point x="452" y="144" type="line" smooth="yes"/>
      <point x="452" y="52"/>
      <point x="377" y="7"/>
      <point x="294" y="7" type="curve" smooth="yes"/>
      <point x="194" y="7"/>
      <point x="138" y="60"/>
      <point x="138" y="183" type="curve" smooth="yes"/>
      <point x="138" y="516" type="line"/>
      <point x="117" y="516" type="line"/>
      <point x="117" y="180" type="line" smooth="yes"/>
      <point x="117" y="55"/>
      <point x="177" y="-12"/>
      <point x="291" y="-12" type="curve" smooth="yes"/>
      <point x="382" y="-12"/>
      <point x="431" y="30"/>
      <point x="449" y="74" type="curve"/>
      <point x="452" y="74" type="line"/>
      <point x="452" y="0" type="line"/>
      <point x="473" y="0" type="line"/>
      <point x="473" y="498" type="line"/>
      <point x="540" y="498" type="line" smooth="yes"/>
      <point x="560" y="498"/>
      <point x="569" y="507"/>
      <point x="569" y="527" type="curve" smooth="yes"/>
    </contour>
  </outline>
</glyph>
<glyph name="dotlessj" format="2">
  <advance width="600"/>
  <unicode hex="0237"/>
  <anchor x="417.0" y="516.0" name="top"/>
  <outline>
    <contour>
      <point x="111" y="-200" type="line"/>
      <point x="398" y="-200" type="line" smooth="yes"/>
      <point x="418" y="-200"/>
      <point x="427" y="-191"/>
      <point x="427" y="-171" type="curve" smooth="yes"/>
      <point x="427" y="516" type="line"/>
      <point x="96" y="516" type="line"/>
      <point x="96" y="497" type="line"/>
      <point x="406" y="497" type="line"/>
      <point x="406" y="-181" type="line"/>
      <point x="111" y="-181" type="line"/>
    </contour>
  </outline>
</glyph>
<glyph name="commaturnedtop" format="2">
  <advance width="600"/>
  <unicode hex="02BB"/>
  <anchor x="300.0" y="516.0" name="_top"/>
  <outline>
    <contour>
      <point x="287" y="593" type="line"/>
      <point x="312" y="593" type="line"/>
      <point x="366" y="769" type="line"/>
      <point x="348" y="769" type="line"/>
    </contour>
  </outline>
</glyph>
<glyph name="caronslovak" format="2">
  <advance width="600"/>
  <unicode hex="02BC"/>
  <anchor x="237.0" y="740.0" name="_topright"/>
  <outline>
    <contour>
      <point x="278" y="740" type="line"/>
      <point x="253" y="740" type="line"/>
      <point x="237" y="564" type="line"/>
      <point x="254" y="564" type="line"/>
    </contour>
  </outline>
</glyph>
<glyph name="circumflex" format="2">
  <advance width="600"/>
  <unicode hex="02C6"/>
  <anchor x="300.0" y="516.0" name="_top"/>
  <outline>
    <contour>
      <point x="288" y="753" type="line"/>
      <point x="160" y="620" type="line"/>
      <point x="174" y="609" type="line"/>
      <point x="300" y="736" type="line"/>
      <point x="426" y="609" type="line"/>
      <point x="440" y="620" type="line"/>
      <point x="312" y="753" type="line"/>
    </contour>
  </outline>
</glyph>
<glyph name="breve" format="2">
  <advance width="600"/>
  <unicode hex="02D8"/>
  <anchor x="300.0" y="516.0" name="_top"/>
  <outline>
    <contour>
      <point x="300" y="611" type="curve" smooth="yes"/>
      <point x="371" y="611"/>
      <point x="398" y="655"/>
      <point x="438" y="740" type="curve"/>
      <point x="423" y="747" type="line"/>
      <point x="395" y="698" type="line" smooth="yes"/>
      <point x="365" y="646"/>
      <point x="342" y="630"/>
      <point x="300" y="630" type="curve" smooth="yes"/>
      <point x="258" y="630"/>
      <point x="235" y="646"/>
      <point x="205" y="698" type="curve" smooth="yes"/>
      <point x="177" y="747" type="line"/>
      <point x="162" y="740" type="line"/>
      <point x="202" y="655"/>
      <point x="229" y="611"/>
    </contour>
  </outline>
</glyph>
<glyph name="dotaccent" format="2">
  <advance width="600"/>
  <unicode hex="02D9"/>
  <anchor x="300.0" y="516.0" name="_top"/>
  <outline>
    <contour>
      <point x="300" y="649" type="curve" smooth="yes"/>
      <point x="321" y="649"/>
      <point x="329" y="659"/>
      <point x="329" y="672" type="curve" smooth="yes"/>
      <point x="329" y="680" type="line" smooth="yes"/>
      <point x="329" y="693"/>
      <point x="321" y="703"/>
      <point x="300" y="703" type="curve" smooth="yes"/>
      <point x="279" y="703"/>
      <point x="271" y="693"/>
      <point x="271" y="680" type="curve" smooth="yes"/>
      <point x="271" y="672" type="line" smooth="yes"/>
      <point x="271" y="659"/>
      <point x="279" y="649"/>
    </contour>
  </outline>
</glyph>
<glyph name="ogonek" format="2">
  <advance width="600"/>
  <unicode hex="02DB"/>
  <anchor x="300.0" y="0.0" name="_bottomright"/>
  <outline>
    <contour>
      <point x="239" y="-202" type="curve" smooth="yes"/>
      <point x="275" y="-202"/>
      <point x="301" y="-188"/>
      <point x="314" y="-170" type="curve"/>
      <point x="300" y="-159" type="line"/>
      <point x="290" y="-171"/>
      <point x="272" y="-184"/>
      <point x="239" y="-184" type="curve" smooth="yes"/>
      <point x="205" y="-184"/>
      <point x="181" y="-170"/>
      <point x="181" y="-133" type="curve" smooth="yes"/>
      <point x="181" y="-80"/>
      <point x="229" y="-46"/>
      <point x="300" y="0" type="curve"/>
      <point x="294" y="16" type="line"/>
      <point x="275" y="12" type="line"/>
      <point x="279" y="2" type="line"/>
      <point x="186" y="-51"/>
      <point x="160" y="-95"/>
      <point x="160" y="-134" type="curve" smooth="yes"/>
      <point x="160" y="-179"/>
      <point x="194" y="-202"/>
    </contour>
  </outline>
</glyph>
<glyph name="hungarumlaut" format="2">
  <advance width="600"/>
  <unicode hex="02DD"/>
  <anchor x="300.0" y="516.0" name="_top"/>
  <outline>
    <contour>
      <point x="335" y="749" type="line"/>
      <point x="316" y="761" type="line"/>
      <point x="205" y="607" type="line"/>
      <point x="220" y="597" type="line"/>
    </contour>
    <contour>
      <point x="495" y="749" type="line"/>
      <point x="476" y="761" type="line"/>
      <point x="365" y="607" type="line"/>
      <point x="380" y="597" type="line"/>
    </contour>
  </outline>
</glyph>
<glyph name="hookcomb" format="2">
  <unicode hex="0309"/>
  <anchor x="0.0" y="516.0" name="_top"/>
  <outline>
    <contour>
      <point x="-74" y="729" type="line"/>
      <point x="67" y="729" type="line"/>
      <point x="-10" y="603" type="line"/>
      <point x="6" y="595" type="line"/>
      <point x="55" y="671" type="line" smooth="yes"/>
      <point x="81" y="711"/>
      <point x="86" y="721"/>
      <point x="86" y="729" type="curve" smooth="yes"/>
      <point x="86" y="740"/>
      <point x="78" y="747"/>
      <point x="63" y="747" type="curve" smooth="yes"/>
      <point x="-74" y="747" type="line"/>
    </contour>
  </outline>
</glyph>
<glyph name="horncomb" format="2">
  <unicode hex="031B"/>
  <outline>
    <contour>
      <point x="50" y="627" type="line"/>
      <point x="30" y="627" type="line"/>
      <point x="30" y="516" type="line"/>
      <point x="-50" y="516" type="line"/>
      <point x="-50" y="498" type="line"/>
      <point x="21" y="498" type="line" smooth="yes"/>
      <point x="41" y="498"/>
      <point x="50" y="507"/>
      <point x="50" y="527" type="curve" smooth="yes"/>
    </contour>
  </outline>
</glyph>
<glyph name="dotbelowcomb" format="2">
  <unicode hex="0323"/>
  <anchor x="0.0" y="0.0" name="_bottom"/>
  <outline>
    <contour>
      <point x="0" y="-137" type="curve" smooth="yes"/>
      <point x="21" y="-137"/>
      <point x="29" y="-127"/>
      <point x="29" y="-114" type="curve" smooth="yes"/>
      <point x="29" y="-106" type="line" smooth="yes"/>
      <point x="29" y="-93"/>
      <point x="21" y="-83"/>
      <point x="0" y="-83" type="curve" smooth="yes"/>
      <point x="-21" y="-83"/>
      <point x="-29" y="-93"/>
      <point x="-29" y="-106" type="curve" smooth="yes"/>
      <point x="-29" y="-114" type="line" smooth="yes"/>
      <point x="-29" y="-127"/>
      <point x="-21" y="-137"/>
    </contour>
  </outline>
</glyph>
<glyph name="commabelowcomb" format="2">
  <unicode hex="0326"/>
  <anchor x="0.0" y="0.0" name="_bottom"/>
  <outline>
    <contour>
      <point x="-55" y="-251" type="line"/>
      <point x="-37" y="-251" type="line"/>
      <point x="14" y="-68" type="line"/>
      <point x="-11" y="-68" type="line"/>
    </contour>
  </outline>
</glyph>
<glyph name="circumflexbelowcomb" format="2">
  <unicode hex="032D"/>
  <anchor x="0.0" y="0.0" name="_bottom"/>
  <outline>
    <contour>
      <point x="-12" y="-68" type="line"/>
      <point x="-140" y="-201" type="line"/>
      <point x="-126" y="-212" type="line"/>
      <point x="0" y="-85" type="line"/>
      <point x="126" y="-212" type="line"/>
      <point x="140" y="-201" type="line"/>
      <point x="12" y="-68" type="line"/>
    </contour>
  </outline>
</glyph>
<glyph name="brevebelowcomb" format="2">
  <unicode hex="032E"/>
  <anchor x="0.0" y="0.0" name="_bottom"/>
  <outline>
    <contour>
      <point x="0" y="-212" type="curve" smooth="yes"/>
      <point x="71" y="-212"/>
      <point x="98" y="-168"/>
      <point x="138" y="-83" type="curve"/>
      <point x="123" y="-76" type="line"/>
      <point x="95" y="-125" type="line" smooth="yes"/>
      <point x="65" y="-177"/>
      <point x="42" y="-193"/>
      <point x="0" y="-193" type="curve" smooth="yes"/>
      <point x="-42" y="-193"/>
      <point x="-65" y="-177"/>
      <point x="-95" y="-125" type="curve" smooth="yes"/>
      <point x="-123" y="-76" type="line"/>
      <point x="-138" y="-83" type="line"/>
      <point x="-98" y="-168"/>
      <point x="-71" y="-212"/>
    </contour>
  </outline>
</glyph>
<glyph name="macronbelowcomb" format="2">
  <unicode hex="0331"/>
  <anchor x="0.0" y="0.0" name="_bottom"/>
  <outline>
    <contour>
      <point x="-129" y="-122" type="line"/>
      <point x="129" y="-122" type="line"/>
      <point x="129" y="-104" type="line"/>
      <point x="-129" y="-104" type="line"/>
    </contour>
  </outline>
</glyph>
<glyph name="pi" format="2">
  <advance width="600"/>
  <unicode hex="03C0"/>
  <outline>
    <contour>
      <point x="130" y="0" type="line"/>
      <point x="151" y="0" type="line"/>
      <point x="151" y="497" type="line"/>
      <point x="426" y="497" type="line"/>
      <point x="426" y="29" type="line" smooth="yes"/>
      <point x="426" y="9"/>
      <point x="435" y="0"/>
      <point x="455" y="0" type="curve" smooth="yes"/>
      <point x="561" y="0" type="line"/>
      <point x="561" y="19" type="line"/>
      <point x="447" y="19" type="line"/>
      <point x="447" y="497" type="line"/>
      <point x="561" y="497" type="line"/>
      <point x="561" y="516" type="line"/>
      <point x="16" y="516" type="line"/>
      <point x="16" y="497" type="line"/>
      <point x="130" y="497" type="line"/>
    </contour>
  </outline>
</glyph>
<glyph name="uni0409" format="2">
  <advance width="600"/>
  <unicode hex="0409"/>
  <outline>
    <contour>
      <point x="343" y="0" type="line"/>
      <point x="426" y="0" type="line" smooth="yes"/>
      <point x="540" y="0"/>
      <point x="600" y="74"/>
      <point x="600" y="188" type="curve" smooth="yes"/>
      <point x="600" y="302"/>
      <point x="540" y="376"/>
      <point x="426" y="376" type="curve" smooth="yes"/>
      <point x="365" y="376" type="line"/>
      <point x="365" y="698" type="line"/>
      <point x="164" y="698" type="line"/>
      <point x="164" y="473" type="line" smooth="yes"/>
      <point x="164" y="224"/>
      <point x="120" y="78"/>
      <point x="58" y="20" type="curve"/>
      <point x="0" y="20" type="line"/>
      <point x="0" y="0" type="line"/>
      <point x="35" y="0" type="line" smooth="yes"/>
      <point x="61" y="0"/>
      <point x="71" y="3"/>
      <point x="87" y="19" type="curve" smooth="yes"/>
      <point x="146" y="79"/>
      <point x="186" y="232"/>
      <point x="186" y="473" type="curve" smooth="yes"/>
      <point x="186" y="678" type="line"/>
      <point x="343" y="678" type="line"/>
    </contour>
    <contour>
      <point x="365" y="20" type="line"/>
      <point x="365" y="356" type="line"/>
      <point x="426" y="356" type="line" smooth="yes"/>
      <point x="529" y="356"/>
      <point x="576" y="285"/>
      <point x="576" y="209" type="curve" smooth="yes"/>
      <point x="576" y="167" type="line" smooth="yes"/>
      <point x="576" y="91"/>
      <point x="529" y="20"/>
      <point x="426" y="20" type="curve" smooth="yes"/>
    </contour>
  </outline>
</glyph>
<glyph name="uni040A" format="2">
  <advance width="600"/>
  <unicode hex="040A"/>
  <outline>
    <contour>
      <point x="327" y="0" type="line"/>
      <point x="426" y="0" type="line" smooth="yes"/>
      <point x="540" y="0"/>
      <point x="600" y="68"/>
      <point x="600" y="182" type="curve" smooth="yes"/>
      <point x="600" y="296"/>
      <point x="540" y="370"/>
      <point x="426" y="370" type="curve" smooth="yes"/>
      <point x="349" y="370" type="line"/>
      <point x="349" y="698" type="line"/>
      <point x="327" y="698" type="line"/>
      <point x="327" y="370" type="line"/>
      <point x="86" y="370" type="line"/>
      <point x="86" y="698" type="line"/>
      <point x="64" y="698" type="line"/>
      <point x="64" y="0" type="line"/>
      <point x="86" y="0" type="line"/>
      <point x="86" y="350" type="line"/>
      <point x="327" y="350" type="line"/>
    </contour>
    <contour>
      <point x="349" y="20" type="line"/>
      <point x="349" y="350" type="line"/>
      <point x="426" y="350" type="line" smooth="yes"/>
      <point x="529" y="350"/>
      <point x="576" y="279"/>
      <point x="576" y="203" type="curve" smooth="yes"/>
      <point x="576" y="164" type="line" smooth="yes"/>
      <point x="576" y="88"/>
      <point x="529" y="20"/>
      <point x="426" y="20" type="curve" smooth="yes"/>
    </contour>
  </outline>
</glyph>
<glyph name="uni040B" format="2">
  <advance width="600"/>
  <unicode hex="040B"/>
  <outline>
    <contour>
      <point x="193" y="0" type="line"/>
      <point x="215" y="0" type="line"/>
      <point x="215" y="369" type="line"/>
      <point x="244" y="388"/>
      <point x="300" y="402"/>
      <point x="353" y="402" type="curve" smooth="yes"/>
      <point x="454" y="402"/>
      <point x="506" y="350"/>
      <point x="506" y="233" type="curve" smooth="yes"/>
      <point x="506" y="0" type="line"/>
      <point x="528" y="0" type="line"/>
      <point x="528" y="233" type="line" smooth="yes"/>
      <point x="528" y="359"/>
      <point x="472" y="422"/>
      <point x="353" y="422" type="curve" smooth="yes"/>
      <point x="299" y="422"/>
      <point x="248" y="409"/>
      <point x="217" y="391" type="curve"/>
      <point x="215" y="391" type="line"/>
      <point x="215" y="678" type="line"/>
      <point x="395" y="678" type="line"/>
      <point x="395" y="698" type="line"/>
      <point x="13" y="698" type="line"/>
      <point x="13" y="678" type="line"/>
      <point x="193" y="678" type="line"/>
    </contour>
  </outline>
</glyph>
<glyph name="uni040F" format="2">
  <advance width="600"/>
  <unicode hex="040F"/>
  <outline>
    <contour>
      <point x="289" y="-150" type="line"/>
      <point x="311" y="-150" type="line"/>
      <point x="311" y="0" type="line"/>
      <point x="497" y="0" type="line"/>
      <point x="497" y="698" type="line"/>
      <point x="475" y="698" type="line"/>
      <point x="475" y="20" type="line"/>
      <point x="125" y="20" type="line"/>
      <point x="125" y="698" type="line"/>
      <point x="103" y="698" type="line"/>
      <point x="103" y="0" type="line"/>
      <point x="289" y="0" type="line"/>
    </contour>
  </outline>
</glyph>
<glyph name="uni0411" format="2">
  <advance width="600"/>
  <unicode hex="0411"/>
  <outline>
    <contour>
      <point x="102" y="0" type="line"/>
      <point x="338" y="0" type="line" smooth="yes"/>
      <point x="452" y="0"/>
      <point x="512" y="74"/>
      <point x="512" y="188" type="curve" smooth="yes"/>
      <point x="512" y="302"/>
      <point x="452" y="376"/>
      <point x="338" y="376" type="curve" smooth="yes"/>
      <point x="124" y="376" type="line"/>
      <point x="124" y="678" type="line"/>
      <point x="464" y="678" type="line"/>
      <point x="464" y="698" type="line"/>
      <point x="102" y="698" type="line"/>
    </contour>
    <contour>
      <point x="124" y="20" type="line"/>
      <point x="124" y="356" type="line"/>
      <point x="338" y="356" type="line" smooth="yes"/>
      <point x="441" y="356"/>
      <point x="488" y="285"/>
      <point x="488" y="209" type="curve" smooth="yes"/>
      <point x="488" y="167" type="line" smooth="yes"/>
      <point x="488" y="91"/>
      <point x="441" y="20"/>
      <point x="338" y="20" type="curve" smooth="yes"/>
    </contour>
  </outline>
</glyph>
<glyph name="uni0413" format="2">
  <advance width="600"/>
  <unicode hex="0413"/>
  <anchor x="336.0" y="698.0" name="top"/>
  <outline>
    <contour>
      <point x="153" y="0" type="line"/>
      <point x="175" y="0" type="line"/>
      <point x="175" y="678" type="line"/>
      <point x="520" y="678" type="line"/>
      <point x="520" y="698" type="line"/>
      <point x="153" y="698" type="line"/>
    </contour>
  </outline>
</glyph>
<glyph name="uni0414" format="2">
  <advance width="600"/>
  <unicode hex="0414"/>
  <outline>
    <contour>
      <point x="17" y="-150" type="line"/>
      <point x="39" y="-150" type="line"/>
      <point x="39" y="0" type="line"/>
      <point x="548" y="0" type="line"/>
      <point x="548" y="-150" type="line"/>
      <point x="570" y="-150" type="line"/>
      <point x="570" y="20" type="line"/>
      <point x="477" y="20" type="line"/>
      <point x="477" y="698" type="line"/>
      <point x="182" y="698" type="line"/>
      <point x="182" y="473" type="line" smooth="yes"/>
      <point x="182" y="224"/>
      <point x="138" y="78"/>
      <point x="76" y="20" type="curve"/>
      <point x="17" y="20" type="line"/>
    </contour>
    <contour>
      <point x="455" y="20" type="line"/>
      <point x="106" y="20" type="line"/>
      <point x="164" y="82"/>
      <point x="204" y="230"/>
      <point x="204" y="473" type="curve" smooth="yes"/>
      <point x="204" y="678" type="line"/>
      <point x="455" y="678" type="line"/>
    </contour>
  </outline>
</glyph>
<glyph name="uni0418" format="2">
  <advance width="600"/>
  <unicode hex="0418"/>
  <anchor x="300.0" y="698.0" name="top"/>
  <outline>
    <contour>
      <point x="98" y="0" type="line"/>
      <point x="120" y="0" type="line"/>
      <point x="452" y="607" type="line"/>
      <point x="483" y="673" type="line"/>
      <point x="486" y="673" type="line"/>
      <point x="481" y="598" type="line"/>
      <point x="481" y="0" type="line"/>
      <point x="502" y="0" type="line"/>
      <point x="502" y="698" type="line"/>
      <point x="480" y="698" type="line"/>
      <point x="148" y="91" type="line"/>
      <point x="117" y="25" type="line"/>
      <point x="114" y="25" type="line"/>
      <point x="119" y="100" type="line"/>
      <point x="119" y="698" type="line"/>
      <point x="98" y="698" type="line"/>
    </contour>
  </outline>
</glyph>
<glyph name="uni041A" format="2">
  <advance width="600"/>
  <unicode hex="041A"/>
  <anchor x="295.0" y="698.0" name="top"/>
  <outline>
    <contour>
      <point x="98" y="0" type="line"/>
      <point x="120" y="0" type="line"/>
      <point x="120" y="344" type="line"/>
      <point x="293" y="344" type="line"/>
      <point x="455" y="20" type="line" smooth="yes"/>
      <point x="463" y="3"/>
      <point x="472" y="0"/>
      <point x="488" y="0" type="curve" smooth="yes"/>
      <point x="552" y="0" type="line"/>
      <point x="552" y="20" type="line"/>
      <point x="479" y="20" type="line"/>
      <point x="333" y="312" type="line" smooth="yes"/>
      <point x="323" y="332"/>
      <point x="315" y="350"/>
      <point x="299" y="352" type="curve"/>
      <point x="299" y="355" type="line"/>
      <point x="317" y="358"/>
      <point x="326" y="379"/>
      <point x="335" y="395" type="curve" smooth="yes"/>
      <point x="509" y="698" type="line"/>
      <point x="486" y="698" type="line"/>
      <point x="293" y="364" type="line"/>
      <point x="120" y="364" type="line"/>
      <point x="120" y="698" type="line"/>
      <point x="98" y="698" type="line"/>
    </contour>
  </outline>
</glyph>
<glyph name="uni041B" format="2">
  <advance width="600"/>
  <unicode hex="041B"/>
  <outline>
    <contour>
      <point x="472" y="0" type="line"/>
      <point x="494" y="0" type="line"/>
      <point x="494" y="698" type="line"/>
      <point x="173" y="698" type="line"/>
      <point x="173" y="473" type="line" smooth="yes"/>
      <point x="173" y="224"/>
      <point x="127" y="78"/>
      <point x="63" y="20" type="curve"/>
      <point x="0" y="20" type="line"/>
      <point x="0" y="0" type="line"/>
      <point x="40" y="0" type="line" smooth="yes"/>
      <point x="66" y="0"/>
      <point x="76" y="3"/>
      <point x="92" y="19" type="curve" smooth="yes"/>
      <point x="153" y="80"/>
      <point x="195" y="229"/>
      <point x="195" y="473" type="curve" smooth="yes"/>
      <point x="195" y="678" type="line"/>
      <point x="472" y="678" type="line"/>
    </contour>
  </outline>
</glyph>
<glyph name="uni0423" format="2">
  <advance width="600"/>
  <unicode hex="0423"/>
  <anchor x="300.0" y="698.0" name="top"/>
  <outline>
    <contour>
      <point x="147" y="0" type="line"/>
      <point x="247" y="0" type="line" smooth="yes"/>
      <point x="262" y="0"/>
      <point x="275" y="6"/>
      <point x="280" y="19" type="curve" smooth="yes"/>
      <point x="538" y="698" type="line"/>
      <point x="515" y="698" type="line"/>
      <point x="378" y="335" type="line"/>
      <point x="318" y="177" type="line"/>
      <point x="316" y="177" type="line"/>
      <point x="246" y="336" type="line"/>
      <point x="87" y="698" type="line"/>
      <point x="63" y="698" type="line"/>
      <point x="307" y="148" type="line"/>
      <point x="258" y="19" type="line"/>
      <point x="147" y="19" type="line"/>
    </contour>
  </outline>
</glyph>
<glyph name="uni0424" format="2">
  <advance width="600"/>
  <unicode hex="0424"/>
  <outline>
    <contour>
      <point x="289" y="-22" type="line"/>
      <point x="311" y="-22" type="line"/>
      <point x="311" y="71" type="line"/>
      <point x="491" y="73"/>
      <point x="572" y="190"/>
      <point x="572" y="348" type="curve" smooth="yes"/>
      <point x="572" y="506"/>
      <point x="491" y="623"/>
      <point x="311" y="625" type="curve"/>
      <point x="311" y="720" type="line"/>
      <point x="289" y="720" type="line"/>
      <point x="289" y="625" type="line"/>
      <point x="109" y="623"/>
      <point x="28" y="506"/>
      <point x="28" y="348" type="curve" smooth="yes"/>
      <point x="28" y="190"/>
      <point x="109" y="73"/>
      <point x="289" y="71" type="curve"/>
    </contour>
    <contour>
      <point x="289" y="91" type="line"/>
      <point x="119" y="91"/>
      <point x="52" y="213"/>
      <point x="52" y="325" type="curve" smooth="yes"/>
      <point x="52" y="371" type="line" smooth="yes"/>
      <point x="52" y="483"/>
      <point x="119" y="605"/>
      <point x="289" y="605" type="curve"/>
    </contour>
    <contour>
      <point x="311" y="91" type="curve"/>
      <point x="311" y="605" type="line"/>
      <point x="481" y="605"/>
      <point x="548" y="483"/>
      <point x="548" y="371" type="curve" smooth="yes"/>
      <point x="548" y="325" type="line" smooth="yes"/>
      <point x="548" y="213"/>
      <point x="481" y="91"/>
    </contour>
  </outline>
</glyph>
<glyph name="uni0426" format="2">
  <advance width="600"/>
  <unicode hex="0426"/>
  <outline>
    <contour>
      <point x="568" y="-150" type="line"/>
      <point x="590" y="-150" type="line"/>
      <point x="590" y="20" type="line"/>
      <point x="497" y="20" type="line"/>
      <point x="497" y="698" type="line"/>
      <point x="475" y="698" type="line"/>
      <point x="475" y="20" type="line"/>
      <point x="125" y="20" type="line"/>
      <point x="125" y="698" type="line"/>
      <point x="103" y="698" type="line"/>
      <point x="103" y="0" type="line"/>
      <point x="568" y="0" type="line"/>
    </contour>
  </outline>
</glyph>
<glyph name="uni0427" format="2">
  <advance width="600"/>
  <unicode hex="0427"/>
  <anchor x="279.0" y="698.0" name="top"/>
  <outline>
    <contour>
      <point x="465" y="0" type="line"/>
      <point x="487" y="0" type="line"/>
      <point x="487" y="698" type="line"/>
      <point x="465" y="698" type="line"/>
      <point x="465" y="332" type="line"/>
      <point x="430" y="311"/>
      <point x="363" y="296"/>
      <point x="296" y="296" type="curve" smooth="yes"/>
      <point x="161" y="296"/>
      <point x="94" y="358"/>
      <point x="94" y="495" type="curve" smooth="yes"/>
      <point x="94" y="698" type="line"/>
      <point x="72" y="698" type="line"/>
      <point x="72" y="495" type="line" smooth="yes"/>
      <point x="72" y="349"/>
      <point x="143" y="276"/>
      <point x="297" y="276" type="curve" smooth="yes"/>
      <point x="364" y="276"/>
      <point x="426" y="290"/>
      <point x="463" y="311" type="curve"/>
      <point x="465" y="311" type="line"/>
    </contour>
  </outline>
</glyph>
<glyph name="uni0428" format="2">
  <advance width="600"/>
  <unicode hex="0428"/>
  <outline>
    <contour>
      <point x="65" y="0" type="line"/>
      <point x="535" y="0" type="line"/>
      <point x="535" y="698" type="line"/>
      <point x="513" y="698" type="line"/>
      <point x="513" y="20" type="line"/>
      <point x="311" y="20" type="line"/>
      <point x="311" y="698" type="line"/>
      <point x="289" y="698" type="line"/>
      <point x="289" y="20" type="line"/>
      <point x="87" y="20" type="line"/>
      <point x="87" y="698" type="line"/>
      <point x="65" y="698" type="line"/>
    </contour>
  </outline>
</glyph>
<glyph name="uni0429" format="2">
  <advance width="600"/>
  <unicode hex="0429"/>
  <outline>
    <contour>
      <point x="558" y="-150" type="line"/>
      <point x="580" y="-150" type="line"/>
      <point x="580" y="20" type="line"/>
      <point x="507" y="20" type="line"/>
      <point x="507" y="698" type="line"/>
      <point x="485" y="698" type="line"/>
      <point x="485" y="20" type="line"/>
      <point x="297" y="20" type="line"/>
      <point x="297" y="698" type="line"/>
      <point x="275" y="698" type="line"/>
      <point x="275" y="20" type="line"/>
      <point x="87" y="20" type="line"/>
      <point x="87" y="698" type="line"/>
      <point x="65" y="698" type="line"/>
      <point x="65" y="0" type="line"/>
      <point x="558" y="0" type="line"/>
    </contour>
  </outline>
</glyph>
<glyph name="uni042A" format="2">
  <advance width="600"/>
  <unicode hex="042A"/>
  <outline>
    <contour>
      <point x="215" y="0" type="line"/>
      <point x="399" y="0" type="line" smooth="yes"/>
      <point x="513" y="0"/>
      <point x="573" y="74"/>
      <point x="573" y="188" type="curve" smooth="yes"/>
      <point x="573" y="302"/>
      <point x="513" y="376"/>
      <point x="399" y="376" type="curve" smooth="yes"/>
      <point x="237" y="376" type="line"/>
      <point x="237" y="698" type="line"/>
      <point x="13" y="698" type="line"/>
      <point x="13" y="678" type="line"/>
      <point x="215" y="678" type="line"/>
    </contour>
    <contour>
      <point x="237" y="20" type="line"/>
      <point x="237" y="356" type="line"/>
      <point x="399" y="356" type="line" smooth="yes"/>
      <point x="502" y="356"/>
      <point x="549" y="285"/>
      <point x="549" y="209" type="curve" smooth="yes"/>
      <point x="549" y="167" type="line" smooth="yes"/>
      <point x="549" y="91"/>
      <point x="502" y="20"/>
      <point x="399" y="20" type="curve" smooth="yes"/>
    </contour>
  </outline>
</glyph>
<glyph name="uni042C" format="2">
  <advance width="600"/>
  <unicode hex="042C"/>
  <outline>
    <contour>
      <point x="114" y="0" type="line"/>
      <point x="350" y="0" type="line" smooth="yes"/>
      <point x="464" y="0"/>
      <point x="524" y="74"/>
      <point x="524" y="188" type="curve" smooth="yes"/>
      <point x="524" y="302"/>
      <point x="464" y="376"/>
      <point x="350" y="376" type="curve" smooth="yes"/>
      <point x="136" y="376" type="line"/>
      <point x="136" y="698" type="line"/>
      <point x="114" y="698" type="line"/>
    </contour>
    <contour>
      <point x="136" y="20" type="line"/>
      <point x="136" y="356" type="line"/>
      <point x="350" y="356" type="line" smooth="yes"/>
      <point x="453" y="356"/>
      <point x="500" y="285"/>
      <point x="500" y="209" type="curve" smooth="yes"/>
      <point x="500" y="167" type="line" smooth="yes"/>
      <point x="500" y="91"/>
      <point x="453" y="20"/>
      <point x="350" y="20" type="curve" smooth="yes"/>
    </contour>
  </outline>
</glyph>
<glyph name="uni042D" format="2">
  <advance width="600"/>
  <unicode hex="042D"/>
  <outline>
    <contour>
      <point x="275" y="-12" type="curve" smooth="yes"/>
      <point x="433" y="-12"/>
      <point x="521" y="93"/>
      <point x="521" y="349" type="curve" smooth="yes"/>
      <point x="521" y="605"/>
      <point x="433" y="710"/>
      <point x="275" y="710" type="curve" smooth="yes"/>
      <point x="181" y="710"/>
      <point x="112" y="655"/>
      <point x="82" y="569" type="curve"/>
      <point x="101" y="562" type="line"/>
      <point x="128" y="641"/>
      <point x="190" y="690"/>
      <point x="275" y="690" type="curve" smooth="yes"/>
      <point x="420" y="690"/>
      <point x="497" y="586"/>
      <point x="497" y="381" type="curve" smooth="yes"/>
      <point x="497" y="364" type="line"/>
      <point x="203" y="364" type="line"/>
      <point x="203" y="344" type="line"/>
      <point x="497" y="344" type="line"/>
      <point x="497" y="317" type="line" smooth="yes"/>
      <point x="497" y="112"/>
      <point x="420" y="8"/>
      <point x="275" y="8" type="curve" smooth="yes"/>
      <point x="190" y="8"/>
      <point x="128" y="57"/>
      <point x="101" y="136" type="curve"/>
      <point x="82" y="129" type="line"/>
      <point x="112" y="43"/>
      <point x="181" y="-12"/>
    </contour>
  </outline>
</glyph>
<glyph name="uni042E" format="2">
  <advance width="600"/>
  <unicode hex="042E"/>
  <outline>
    <contour>
      <point x="379" y="-12" type="curve" smooth="yes"/>
      <point x="498" y="-12"/>
      <point x="548" y="83"/>
      <point x="548" y="349" type="curve" smooth="yes"/>
      <point x="548" y="615"/>
      <point x="498" y="710"/>
      <point x="379" y="710" type="curve" smooth="yes"/>
      <point x="262" y="710"/>
      <point x="212" y="618"/>
      <point x="210" y="364" type="curve"/>
      <point x="87" y="364" type="line"/>
      <point x="87" y="698" type="line"/>
      <point x="65" y="698" type="line"/>
      <point x="65" y="0" type="line"/>
      <point x="87" y="0" type="line"/>
      <point x="87" y="344" type="line"/>
      <point x="210" y="344" type="line"/>
      <point x="210" y="82"/>
      <point x="261" y="-12"/>
    </contour>
    <contour>
      <point x="379" y="8" type="curve" smooth="yes"/>
      <point x="281" y="8"/>
      <point x="234" y="94"/>
      <point x="234" y="307" type="curve" smooth="yes"/>
      <point x="234" y="391" type="line" smooth="yes"/>
      <point x="234" y="604"/>
      <point x="281" y="690"/>
      <point x="379" y="690" type="curve" smooth="yes"/>
      <point x="477" y="690"/>
      <point x="524" y="604"/>
      <point x="524" y="391" type="curve" smooth="yes"/>
      <point x="524" y="307" type="line" smooth="yes"/>
      <point x="524" y="94"/>
      <point x="477" y="8"/>
    </contour>
  </outline>
</glyph>
<glyph name="uni0431" format="2">
  <advance width="600"/>
  <unicode hex="0431"/>
  <outline>
    <contour>
      <point x="300" y="-12" type="curve" smooth="yes"/>
      <point x="435" y="-12"/>
      <point x="510" y="82"/>
      <point x="510" y="252" type="curve" smooth="yes"/>
      <point x="510" y="422"/>
      <point x="435" y="516"/>
      <point x="300" y="516" type="curve" smooth="yes"/>
      <point x="224" y="516"/>
      <point x="151" y="486"/>
      <point x="117" y="380" type="curve"/>
      <point x="113" y="381" type="line"/>
      <point x="131" y="606"/>
      <point x="172" y="708"/>
      <point x="349" y="718" type="curve" smooth="yes"/>
      <point x="484" y="726" type="line"/>
      <point x="484" y="745" type="line"/>
      <point x="349" y="737" type="line" smooth="yes"/>
      <point x="157" y="726"/>
      <point x="90" y="620"/>
      <point x="90" y="252" type="curve" smooth="yes"/>
      <point x="90" y="82"/>
      <point x="165" y="-12"/>
    </contour>
    <contour>
      <point x="300" y="7" type="curve"/>
      <point x="185" y="7"/>
      <point x="113" y="91"/>
      <point x="113" y="234" type="curve" smooth="yes"/>
      <point x="113" y="270" type="line" smooth="yes"/>
      <point x="113" y="413"/>
      <point x="185" y="497"/>
      <point x="300" y="497" type="curve" smooth="yes"/>
      <point x="415" y="497"/>
      <point x="487" y="413"/>
      <point x="487" y="270" type="curve" smooth="yes"/>
      <point x="487" y="234" type="line" smooth="yes"/>
      <point x="487" y="91"/>
      <point x="415" y="7"/>
    </contour>
  </outline>
</glyph>
<glyph name="uni0432" format="2">
  <advance width="600"/>
  <unicode hex="0432"/>
  <outline>
    <contour>
      <point x="130" y="0" type="line"/>
      <point x="357" y="0" type="line" smooth="yes"/>
      <point x="446" y="0"/>
      <point x="505" y="45"/>
      <point x="505" y="137" type="curve" smooth="yes"/>
      <point x="505" y="214"/>
      <point x="463" y="257"/>
      <point x="400" y="266" type="curve"/>
      <point x="400" y="268" type="line"/>
      <point x="453" y="279"/>
      <point x="490" y="319"/>
      <point x="490" y="388" type="curve" smooth="yes"/>
      <point x="490" y="473"/>
      <point x="434" y="516"/>
      <point x="353" y="516" type="curve" smooth="yes"/>
      <point x="130" y="516" type="line"/>
    </contour>
    <contour>
      <point x="151" y="19" type="line"/>
      <point x="151" y="257" type="line"/>
      <point x="357" y="257" type="line" smooth="yes"/>
      <point x="436" y="257"/>
      <point x="482" y="217"/>
      <point x="482" y="151" type="curve" smooth="yes"/>
      <point x="482" y="125" type="line" smooth="yes"/>
      <point x="482" y="59"/>
      <point x="436" y="19"/>
      <point x="357" y="19" type="curve" smooth="yes"/>
    </contour>
    <contour>
      <point x="151" y="276" type="line"/>
      <point x="151" y="497" type="line"/>
      <point x="353" y="497" type="line" smooth="yes"/>
      <point x="424" y="497"/>
      <point x="467" y="459"/>
      <point x="467" y="398" type="curve" smooth="yes"/>
      <point x="467" y="375" type="line" smooth="yes"/>
      <point x="467" y="314"/>
      <point x="424" y="276"/>
      <point x="353" y="276" type="curve" smooth="yes"/>
    </contour>
  </outline>
</glyph>
<glyph name="uni0433" format="2">
  <advance width="600"/>
  <unicode hex="0433"/>
  <anchor x="323.0" y="516.0" name="top"/>
  <outline>
    <contour>
      <point x="145" y="0" type="line"/>
      <point x="166" y="0" type="line"/>
      <point x="166" y="497" type="line"/>
      <point x="501" y="497" type="line"/>
      <point x="501" y="516" type="line"/>
      <point x="145" y="516" type="line"/>
    </contour>
  </outline>
</glyph>
<glyph name="uni0434" format="2">
  <advance width="600"/>
  <unicode hex="0434"/>
  <outline>
    <contour>
      <point x="31" y="-140" type="line"/>
      <point x="52" y="-140" type="line"/>
      <point x="52" y="0" type="line"/>
      <point x="535" y="0" type="line"/>
      <point x="535" y="-140" type="line"/>
      <point x="556" y="-140" type="line"/>
      <point x="556" y="19" type="line"/>
      <point x="461" y="19" type="line"/>
      <point x="461" y="516" type="line"/>
      <point x="176" y="516" type="line"/>
      <point x="176" y="355" type="line" smooth="yes"/>
      <point x="176" y="161"/>
      <point x="134" y="63"/>
      <point x="90" y="19" type="curve"/>
      <point x="31" y="19" type="line"/>
    </contour>
    <contour>
      <point x="117" y="19" type="line"/>
      <point x="155" y="63"/>
      <point x="197" y="161"/>
      <point x="197" y="355" type="curve" smooth="yes"/>
      <point x="197" y="497" type="line"/>
      <point x="440" y="497" type="line"/>
      <point x="440" y="19" type="line"/>
    </contour>
  </outline>
</glyph>
<glyph name="uni0437" format="2">
  <advance width="600"/>
  <unicode hex="0437"/>
  <anchor x="300.0" y="516.0" name="top"/>
  <outline>
    <contour>
      <point x="301" y="-12" type="curve" smooth="yes"/>
      <point x="421" y="-12"/>
      <point x="495" y="44"/>
      <point x="495" y="135" type="curve" smooth="yes"/>
      <point x="495" y="211"/>
      <point x="443" y="257"/>
      <point x="357" y="267" type="curve"/>
      <point x="357" y="269" type="line"/>
      <point x="431" y="283"/>
      <point x="481" y="323"/>
      <point x="481" y="395" type="curve" smooth="yes"/>
      <point x="481" y="478"/>
      <point x="414" y="528"/>
      <point x="304" y="528" type="curve" smooth="yes"/>
      <point x="223" y="528"/>
      <point x="154" y="501"/>
      <point x="124" y="451" type="curve"/>
      <point x="140" y="441" type="line"/>
      <point x="168" y="483"/>
      <point x="225" y="509"/>
      <point x="302" y="509" type="curve" smooth="yes"/>
      <point x="398" y="509"/>
      <point x="458" y="468"/>
      <point x="458" y="405" type="curve" smooth="yes"/>
      <point x="458" y="387" type="line" smooth="yes"/>
      <point x="458" y="322"/>
      <point x="392" y="277"/>
      <point x="300" y="277" type="curve" smooth="yes"/>
      <point x="184" y="277" type="line"/>
      <point x="184" y="258" type="line"/>
      <point x="302" y="258" type="line" smooth="yes"/>
      <point x="405" y="258"/>
      <point x="472" y="213"/>
      <point x="472" y="144" type="curve" smooth="yes"/>
      <point x="472" y="124" type="line" smooth="yes"/>
      <point x="472" y="53"/>
      <point x="403" y="7"/>
      <point x="300" y="7" type="curve" smooth="yes"/>
      <point x="229" y="7"/>
      <point x="160" y="29"/>
      <point x="118" y="86" type="curve"/>
      <point x="102" y="74" type="line"/>
      <point x="144" y="16"/>
      <point x="216" y="-12"/>
    </contour>
  </outline>
</glyph>
<glyph name="uni0438" format="2">
  <advance width="600"/>
  <unicode hex="0438"/>
  <anchor x="300.0" y="516.0" name="top"/>
  <outline>
    <contour>
      <point x="118" y="0" type="line"/>
      <point x="138" y="0" type="line"/>
      <point x="425" y="428" type="line"/>
      <point x="464" y="493" type="line"/>
      <point x="467" y="493" type="line"/>
      <point x="461" y="412" type="line"/>
      <point x="461" y="0" type="line"/>
      <point x="482" y="0" type="line"/>
      <point x="482" y="516" type="line"/>
      <point x="462" y="516" type="line"/>
      <point x="175" y="88" type="line"/>
      <point x="136" y="23" type="line"/>
      <point x="133" y="23" type="line"/>
      <point x="139" y="104" type="line"/>
      <point x="139" y="516" type="line"/>
      <point x="118" y="516" type="line"/>
    </contour>
  </outline>
</glyph>
<glyph name="uni043B" format="2">
  <advance width="600"/>
  <unicode hex="043B"/>
  <outline>
    <contour>
      <point x="23" y="0" type="line"/>
      <point x="66" y="0" type="line" smooth="yes"/>
      <point x="80" y="0"/>
      <point x="91" y="3"/>
      <point x="101" y="13" type="curve" smooth="yes"/>
      <point x="145" y="57"/>
      <point x="187" y="161"/>
      <point x="187" y="355" type="curve" smooth="yes"/>
      <point x="187" y="497" type="line"/>
      <point x="440" y="497" type="line"/>
      <point x="440" y="0" type="line"/>
      <point x="461" y="0" type="line"/>
      <point x="461" y="516" type="line"/>
      <point x="166" y="516" type="line"/>
      <point x="166" y="355" type="line" smooth="yes"/>
      <point x="166" y="161"/>
      <point x="124" y="63"/>
      <point x="80" y="19" type="curve"/>
      <point x="23" y="19" type="line"/>
    </contour>
  </outline>
</glyph>
<glyph name="uni043C" format="2">
  <advance width="600"/>
  <unicode hex="043C"/>
  <outline>
    <contour>
      <point x="84" y="0" type="line"/>
      <point x="105" y="0" type="line"/>
      <point x="105" y="490" type="line"/>
      <point x="108" y="490" type="line"/>
      <point x="300" y="118" type="line"/>
      <point x="492" y="490" type="line"/>
      <point x="495" y="490" type="line"/>
      <point x="495" y="0" type="line"/>
      <point x="516" y="0" type="line"/>
      <point x="516" y="516" type="line"/>
      <point x="484" y="516" type="line"/>
      <point x="303" y="165" type="line"/>
      <point x="299" y="165" type="line"/>
      <point x="118" y="516" type="line"/>
      <point x="84" y="516" type="line"/>
    </contour>
  </outline>
</glyph>
<glyph name="uni043D" format="2">
  <advance width="600"/>
  <unicode hex="043D"/>
  <outline>
    <contour>
      <point x="118" y="0" type="line"/>
      <point x="139" y="0" type="line"/>
      <point x="139" y="261" type="line"/>
      <point x="461" y="261" type="line"/>
      <point x="461" y="0" type="line"/>
      <point x="482" y="0" type="line"/>
      <point x="482" y="516" type="line"/>
      <point x="461" y="516" type="line"/>
      <point x="461" y="280" type="line"/>
      <point x="139" y="280" type="line"/>
      <point x="139" y="516" type="line"/>
      <point x="118" y="516" type="line"/>
    </contour>
  </outline>
</glyph>
<glyph name="uni043F" format="2">
  <advance width="600"/>
  <unicode hex="043F"/>
  <outline>
    <contour>
      <point x="122" y="0" type="line"/>
      <point x="143" y="0" type="line"/>
      <point x="143" y="497" type="line"/>
      <point x="457" y="497" type="line"/>
      <point x="457" y="0" type="line"/>
      <point x="478" y="0" type="line"/>
      <point x="478" y="516" type="line"/>
      <point x="122" y="516" type="line"/>
    </contour>
  </outline>
</glyph>
<glyph name="uni0442" format="2">
  <advance width="600"/>
  <unicode hex="0442"/>
  <outline>
    <contour>
      <point x="289" y="0" type="line"/>
      <point x="310" y="0" type="line"/>
      <point x="310" y="497" type="line"/>
      <point x="520" y="497" type="line"/>
      <point x="520" y="516" type="line"/>
      <point x="79" y="516" type="line"/>
      <point x="79" y="497" type="line"/>
      <point x="289" y="497" type="line"/>
    </contour>
  </outline>
</glyph>
<glyph name="uni0444" format="2">
  <advance width="600"/>
  <unicode hex="0444"/>
  <outline>
    <contour>
      <point x="182" y="7" type="curve" smooth="yes"/>
      <point x="112" y="7"/>
      <point x="74" y="76"/>
      <point x="74" y="219" type="curve" smooth="yes"/>
      <point x="74" y="297" type="line" smooth="yes"/>
      <point x="74" y="440"/>
      <point x="112" y="509"/>
      <point x="182" y="509" type="curve" smooth="yes"/>
      <point x="240" y="509"/>
      <point x="290" y="459"/>
      <point x="290" y="389" type="curve" smooth="yes"/>
      <point x="290" y="127" type="line" smooth="yes"/>
      <point x="290" y="57"/>
      <point x="240" y="7"/>
    </contour>
    <contour>
      <point x="290" y="-200" type="line"/>
      <point x="311" y="-200" type="line"/>
      <point x="311" y="62" type="line"/>
      <point x="314" y="62" type="line"/>
      <point x="330" y="22"/>
      <point x="363" y="-12"/>
      <point x="419" y="-12" type="curve" smooth="yes"/>
      <point x="507" y="-12"/>
      <point x="550" y="56"/>
      <point x="550" y="258" type="curve" smooth="yes"/>
      <point x="550" y="460"/>
      <point x="507" y="528"/>
      <point x="419" y="528" type="curve" smooth="yes"/>
      <point x="363" y="528"/>
      <point x="330" y="494"/>
      <point x="314" y="454" type="curve"/>
      <point x="311" y="454" type="line"/>
      <point x="311" y="710" type="line"/>
      <point x="290" y="710" type="line"/>
      <point x="290" y="454" type="line"/>
      <point x="287" y="454" type="line"/>
      <point x="271" y="494"/>
      <point x="238" y="528"/>
      <point x="182" y="528" type="curve" smooth="yes"/>
      <point x="94" y="528"/>
      <point x="51" y="460"/>
      <point x="51" y="258" type="curve" smooth="yes"/>
      <point x="51" y="56"/>
      <point x="94" y="-12"/>
      <point x="182" y="-12" type="curve" smooth="yes"/>
      <point x="238" y="-12"/>
      <point x="271" y="22"/>
      <point x="287" y="62" type="curve"/>
      <point x="290" y="62" type="line"/>
    </contour>
    <contour>
      <point x="419" y="7" type="curve" smooth="yes"/>
      <point x="361" y="7"/>
      <point x="311" y="57"/>
      <point x="311" y="127" type="curve" smooth="yes"/>
      <point x="311" y="389" type="line" smooth="yes"/>
      <point x="311" y="459"/>
      <point x="361" y="509"/>
      <point x="419" y="509" type="curve" smooth="yes"/>
      <point x="489" y="509"/>
      <point x="527" y="440"/>
      <point x="527" y="297" type="curve" smooth="yes"/>
      <point x="527" y="219" type="line" smooth="yes"/>
      <point x="527" y="76"/>
      <point x="489" y="7"/>
    </contour>
  </outline>
</glyph>
<glyph name="uni0446" format="2">
  <advance width="600"/>
  <unicode hex="0446"/>
  <outline>
    <contour>
      <point x="539" y="-140" type="line"/>
      <point x="560" y="-140" type="line"/>
      <point x="560" y="19" type="line"/>
      <point x="465" y="19" type="line"/>
      <point x="465" y="516" type="line"/>
      <point x="444" y="516" type="line"/>
      <point x="444" y="19" type="line"/>
      <point x="130" y="19" type="line"/>
      <point x="130" y="516" type="line"/>
      <point x="109" y="516" type="line"/>
      <point x="109" y="0" type="line"/>
      <point x="539" y="0" type="line"/>
    </contour>
  </outline>
</glyph>
<glyph name="uni0447" format="2">
  <advance width="600"/>
  <unicode hex="0447"/>
  <anchor x="281.0" y="516.0" name="top"/>
  <outline>
    <contour>
      <point x="438" y="0" type="line"/>
      <point x="459" y="0" type="line"/>
      <point x="459" y="516" type="line"/>
      <point x="438" y="516" type="line"/>
      <point x="438" y="329" type="line" smooth="yes"/>
      <point x="438" y="250"/>
      <point x="354" y="214"/>
      <point x="267" y="214" type="curve" smooth="yes"/>
      <point x="175" y="214"/>
      <point x="124" y="254"/>
      <point x="124" y="342" type="curve" smooth="yes"/>
      <point x="124" y="516" type="line"/>
      <point x="103" y="516" type="line"/>
      <point x="103" y="340" type="line" smooth="yes"/>
      <point x="103" y="246"/>
      <point x="161" y="195"/>
      <point x="267" y="195" type="curve" smooth="yes"/>
      <point x="354" y="195"/>
      <point x="416" y="228"/>
      <point x="435" y="272" type="curve"/>
      <point x="438" y="272" type="line"/>
    </contour>
  </outline>
</glyph>
<glyph name="uni0448" format="2">
  <advance width="600"/>
  <unicode hex="0448"/>
  <outline>
    <contour>
      <point x="74" y="0" type="line"/>
      <point x="527" y="0" type="line"/>
      <point x="527" y="516" type="line"/>
      <point x="506" y="516" type="line"/>
      <point x="506" y="19" type="line"/>
      <point x="311" y="19" type="line"/>
      <point x="311" y="516" type="line"/>
      <point x="290" y="516" type="line"/>
      <point x="290" y="19" type="line"/>
      <point x="95" y="19" type="line"/>
      <point x="95" y="516" type="line"/>
      <point x="74" y="516" type="line"/>
    </contour>
  </outline>
</glyph>
<glyph name="uni0449" format="2">
  <advance width="600"/>
  <unicode hex="0449"/>
  <outline>
    <contour>
      <point x="582" y="-140" type="line"/>
      <point x="603" y="-140" type="line"/>
      <point x="603" y="19" type="line"/>
      <point x="527" y="19" type="line"/>
      <point x="527" y="516" type="line"/>
      <point x="506" y="516" type="line"/>
      <point x="506" y="19" type="line"/>
      <point x="311" y="19" type="line"/>
      <point x="311" y="516" type="line"/>
      <point x="290" y="516" type="line"/>
      <point x="290" y="19" type="line"/>
      <point x="95" y="19" type="line"/>
      <point x="95" y="516" type="line"/>
      <point x="74" y="516" type="line"/>
      <point x="74" y="0" type="line"/>
      <point x="582" y="0" type="line"/>
    </contour>
  </outline>
</glyph>
<glyph name="uni044A" format="2">
  <advance width="600"/>
  <unicode hex="044A"/>
  <outline>
    <contour>
      <point x="188" y="0" type="line"/>
      <point x="399" y="0" type="line" smooth="yes"/>
      <point x="488" y="0"/>
      <point x="547" y="48"/>
      <point x="547" y="148" type="curve" smooth="yes"/>
      <point x="547" y="248"/>
      <point x="488" y="296"/>
      <point x="399" y="296" type="curve" smooth="yes"/>
      <point x="209" y="296" type="line"/>
      <point x="209" y="516" type="line"/>
      <point x="5" y="516" type="line"/>
      <point x="5" y="497" type="line"/>
      <point x="188" y="497" type="line"/>
    </contour>
    <contour>
      <point x="209" y="19" type="line"/>
      <point x="209" y="277" type="line"/>
      <point x="399" y="277" type="line" smooth="yes"/>
      <point x="478" y="277"/>
      <point x="524" y="233"/>
      <point x="524" y="162" type="curve" smooth="yes"/>
      <point x="524" y="134" type="line" smooth="yes"/>
      <point x="524" y="63"/>
      <point x="478" y="19"/>
      <point x="399" y="19" type="curve" smooth="yes"/>
    </contour>
  </outline>
</glyph>
<glyph name="uni044C" format="2">
  <advance width="600"/>
  <unicode hex="044C"/>
  <outline>
    <contour>
      <point x="132" y="0" type="line"/>
      <point x="349" y="0" type="line"/>
      <point x="438" y="0"/>
      <point x="497" y="48"/>
      <point x="497" y="148" type="curve" smooth="yes"/>
      <point x="497" y="248"/>
      <point x="438" y="296"/>
      <point x="349" y="296" type="curve" smooth="yes"/>
      <point x="153" y="296" type="line"/>
      <point x="153" y="516" type="line"/>
      <point x="132" y="516" type="line"/>
    </contour>
    <contour>
      <point x="153" y="19" type="line"/>
      <point x="153" y="277" type="line"/>
      <point x="349" y="277" type="line" smooth="yes"/>
      <point x="428" y="277"/>
      <point x="474" y="233"/>
      <point x="474" y="162" type="curve" smooth="yes"/>
      <point x="474" y="134" type="line" smooth="yes"/>
      <point x="474" y="63"/>
      <point x="428" y="19"/>
      <point x="349" y="19" type="curve" smooth="yes"/>
    </contour>
  </outline>
</glyph>
<glyph name="uni044D" format="2">
  <advance width="600"/>
  <unicode hex="044D"/>
  <outline>
    <contour>
      <point x="182" y="261" type="line"/>
      <point x="467" y="261" type="line"/>
      <point x="467" y="234" type="line" smooth="yes"/>
      <point x="467" y="94"/>
      <point x="399" y="7"/>
      <point x="278" y="7" type="curve" smooth="yes"/>
      <point x="198" y="7"/>
      <point x="143" y="48"/>
      <point x="115" y="110" type="curve"/>
      <point x="97" y="102" type="line"/>
      <point x="123" y="40"/>
      <point x="185" y="-12"/>
      <point x="278" y="-12" type="curve" smooth="yes"/>
      <point x="411" y="-12"/>
      <point x="490" y="79"/>
      <point x="490" y="258" type="curve" smooth="yes"/>
      <point x="490" y="437"/>
      <point x="411" y="528"/>
      <point x="278" y="528" type="curve" smooth="yes"/>
      <point x="188" y="528"/>
      <point x="127" y="481"/>
      <point x="104" y="416" type="curve"/>
      <point x="123" y="410" type="line"/>
      <point x="148" y="474"/>
      <point x="202" y="509"/>
      <point x="278" y="509" type="curve" smooth="yes"/>
      <point x="399" y="509"/>
      <point x="467" y="422"/>
      <point x="467" y="282" type="curve" smooth="yes"/>
      <point x="467" y="280" type="line"/>
      <point x="182" y="280" type="line"/>
    </contour>
  </outline>
</glyph>
<glyph name="uni044E" format="2">
  <advance width="600"/>
  <unicode hex="044E"/>
  <outline>
    <contour>
      <point x="380" y="-12" type="curve" smooth="yes"/>
      <point x="492" y="-12"/>
      <point x="540" y="69"/>
      <point x="540" y="258" type="curve" smooth="yes"/>
      <point x="540" y="447"/>
      <point x="492" y="528"/>
      <point x="380" y="528" type="curve" smooth="yes"/>
      <point x="272" y="528"/>
      <point x="223" y="452"/>
      <point x="220" y="277" type="curve"/>
      <point x="95" y="277" type="line"/>
      <point x="95" y="516" type="line"/>
      <point x="74" y="516" type="line"/>
      <point x="74" y="0" type="line"/>
      <point x="95" y="0" type="line"/>
      <point x="95" y="258" type="line"/>
      <point x="220" y="258" type="line"/>
      <point x="220" y="69"/>
      <point x="268" y="-12"/>
    </contour>
    <contour>
      <point x="380" y="7" type="curve" smooth="yes"/>
      <point x="290" y="7"/>
      <point x="243" y="78"/>
      <point x="243" y="226" type="curve" smooth="yes"/>
      <point x="243" y="290" type="line" smooth="yes"/>
      <point x="243" y="438"/>
      <point x="290" y="509"/>
      <point x="380" y="509" type="curve" smooth="yes"/>
      <point x="470" y="509"/>
      <point x="517" y="438"/>
      <point x="517" y="290" type="curve" smooth="yes"/>
      <point x="517" y="226" type="line" smooth="yes"/>
      <point x="517" y="78"/>
      <point x="470" y="7"/>
    </contour>
  </outline>
</glyph>
<glyph name="uni044F" format="2">
  <advance width="600"/>
  <unicode hex="044F"/>
  <outline>
    <contour>
      <point x="79" y="0" type="line"/>
      <point x="127" y="0" type="line" smooth="yes"/>
      <point x="142" y="0"/>
      <point x="150" y="6"/>
      <point x="156" y="18" type="curve" smooth="yes"/>
      <point x="265" y="228" type="line"/>
      <point x="440" y="228" type="line"/>
      <point x="440" y="0" type="line"/>
      <point x="461" y="0" type="line"/>
      <point x="461" y="516" type="line"/>
      <point x="259" y="516" type="line" smooth="yes"/>
      <point x="170" y="516"/>
      <point x="111" y="470"/>
      <point x="111" y="372" type="curve" smooth="yes"/>
      <point x="111" y="277"/>
      <point x="167" y="233"/>
      <point x="253" y="233" type="curve"/>
      <point x="253" y="230" type="line"/>
      <point x="244" y="227"/>
      <point x="239" y="222"/>
      <point x="230" y="206" type="curve" smooth="yes"/>
      <point x="133" y="19" type="line"/>
      <point x="79" y="19" type="line"/>
    </contour>
    <contour>
      <point x="440" y="247" type="line"/>
      <point x="259" y="247" type="line" smooth="yes"/>
      <point x="180" y="247"/>
      <point x="134" y="288"/>
      <point x="134" y="355" type="curve" smooth="yes"/>
      <point x="134" y="389" type="line" smooth="yes"/>
      <point x="134" y="456"/>
      <point x="180" y="497"/>
      <point x="259" y="497" type="curve" smooth="yes"/>
      <point x="440" y="497" type="line"/>
    </contour>
  </outline>
</glyph>
<glyph name="uni0452" format="2">
  <advance width="600"/>
  <unicode hex="0452"/>
  <outline>
    <contour>
      <point x="208" y="-200" type="line"/>
      <point x="454" y="-200" type="line" smooth="yes"/>
      <point x="474" y="-200"/>
      <point x="483" y="-191"/>
      <point x="483" y="-171" type="curve" smooth="yes"/>
      <point x="483" y="336" type="line" smooth="yes"/>
      <point x="483" y="461"/>
      <point x="423" y="528"/>
      <point x="309" y="528" type="curve" smooth="yes"/>
      <point x="218" y="528"/>
      <point x="169" y="486"/>
      <point x="151" y="442" type="curve"/>
      <point x="148" y="442" type="line"/>
      <point x="148" y="636" type="line"/>
      <point x="313" y="636" type="line"/>
      <point x="313" y="654" type="line"/>
      <point x="148" y="654" type="line"/>
      <point x="148" y="740" type="line"/>
      <point x="127" y="740" type="line"/>
      <point x="127" y="654" type="line"/>
      <point x="55" y="654" type="line"/>
      <point x="55" y="636" type="line"/>
      <point x="127" y="636" type="line"/>
      <point x="127" y="0" type="line"/>
      <point x="148" y="0" type="line"/>
      <point x="148" y="372" type="line" smooth="yes"/>
      <point x="148" y="464"/>
      <point x="223" y="509"/>
      <point x="306" y="509" type="curve" smooth="yes"/>
      <point x="406" y="509"/>
      <point x="462" y="456"/>
      <point x="462" y="333" type="curve" smooth="yes"/>
      <point x="462" y="-181" type="line"/>
      <point x="208" y="-181" type="line"/>
    </contour>
  </outline>
</glyph>
<glyph name="uni045A" format="2">
  <advance width="600"/>
  <unicode hex="045A"/>
  <outline>
    <contour>
      <point x="74" y="0" type="line"/>
      <point x="95" y="0" type="line"/>
      <point x="95" y="269" type="line"/>
      <point x="332" y="269" type="line"/>
      <point x="332" y="0" type="line"/>
      <point x="431" y="0" type="line" smooth="yes"/>
      <point x="520" y="0"/>
      <point x="579" y="47"/>
      <point x="579" y="144" type="curve" smooth="yes"/>
      <point x="579" y="241"/>
      <point x="520" y="288"/>
      <point x="431" y="288" type="curve" smooth="yes"/>
      <point x="353" y="288" type="line"/>
      <point x="353" y="516" type="line"/>
      <point x="332" y="516" type="line"/>
      <point x="332" y="288" type="line"/>
      <point x="95" y="288" type="line"/>
      <point x="95" y="516" type="line"/>
      <point x="74" y="516" type="line"/>
    </contour>
    <contour>
      <point x="353" y="19" type="line"/>
      <point x="353" y="269" type="line"/>
      <point x="431" y="269" type="line" smooth="yes"/>
      <point x="510" y="269"/>
      <point x="556" y="226"/>
      <point x="556" y="157" type="curve" smooth="yes"/>
      <point x="556" y="131" type="line" smooth="yes"/>
      <point x="556" y="62"/>
      <point x="510" y="19"/>
      <point x="431" y="19" type="curve" smooth="yes"/>
    </contour>
  </outline>
</glyph>
<glyph name="uni045F" format="2">
  <advance width="600"/>
  <unicode hex="045F"/>
  <outline>
    <contour>
      <point x="122" y="0" type="line"/>
      <point x="289" y="0" type="line"/>
      <point x="289" y="-140" type="line"/>
      <point x="310" y="-140" type="line"/>
      <point x="310" y="0" type="line"/>
      <point x="478" y="0" type="line"/>
      <point x="478" y="516" type="line"/>
      <point x="457" y="516" type="line"/>
      <point x="457" y="19" type="line"/>
      <point x="143" y="19" type="line"/>
      <point x="143" y="516" type="line"/>
      <point x="122" y="516" type="line"/>
    </contour>
  </outline>
</glyph>
<glyph name="uni0462" format="2">
  <advance width="600"/>
  <unicode hex="0462"/>
  <outline>
    <contour>
      <point x="124" y="0" type="line"/>
      <point x="360" y="0" type="line" smooth="yes"/>
      <point x="474" y="0"/>
      <point x="534" y="74"/>
      <point x="534" y="188" type="curve" smooth="yes"/>
      <point x="534" y="302"/>
      <point x="474" y="376"/>
      <point x="360" y="376" type="curve" smooth="yes"/>
      <point x="146" y="376" type="line"/>
      <point x="146" y="564" type="line"/>
      <point x="376" y="564" type="line"/>
      <point x="376" y="584" type="line"/>
      <point x="146" y="584" type="line"/>
      <point x="146" y="698" type="line"/>
      <point x="124" y="698" type="line"/>
      <point x="124" y="584" type="line"/>
      <point x="12" y="584" type="line"/>
      <point x="12" y="564" type="line"/>
      <point x="124" y="564" type="line"/>
    </contour>
    <contour>
      <point x="146" y="20" type="line"/>
      <point x="146" y="356" type="line"/>
      <point x="360" y="356" type="line" smooth="yes"/>
      <point x="463" y="356"/>
      <point x="510" y="285"/>
      <point x="510" y="209" type="curve" smooth="yes"/>
      <point x="510" y="167" type="line" smooth="yes"/>
      <point x="510" y="91"/>
      <point x="463" y="20"/>
      <point x="360" y="20" type="curve" smooth="yes"/>
    </contour>
  </outline>
</glyph>
<glyph name="uni0463" format="2">
  <advance width="600"/>
  <unicode hex="0463"/>
  <outline>
    <contour>
      <point x="132" y="0" type="line"/>
      <point x="349" y="0" type="line"/>
      <point x="438" y="0"/>
      <point x="497" y="48"/>
      <point x="497" y="148" type="curve" smooth="yes"/>
      <point x="497" y="248"/>
      <point x="438" y="296"/>
      <point x="349" y="296" type="curve" smooth="yes"/>
      <point x="153" y="296" type="line"/>
      <point x="153" y="497" type="line"/>
      <point x="326" y="497" type="line"/>
      <point x="326" y="516" type="line"/>
      <point x="153" y="516" type="line"/>
      <point x="153" y="710" type="line"/>
      <point x="132" y="710" type="line"/>
      <point x="132" y="516" type="line"/>
      <point x="37" y="516" type="line"/>
      <point x="37" y="497" type="line"/>
      <point x="132" y="497" type="line"/>
    </contour>
    <contour>
      <point x="153" y="19" type="line"/>
      <point x="153" y="277" type="line"/>
      <point x="349" y="277" type="line" smooth="yes"/>
      <point x="428" y="277"/>
      <point x="474" y="233"/>
      <point x="474" y="162" type="curve" smooth="yes"/>
      <point x="474" y="134" type="line" smooth="yes"/>
      <point x="474" y="63"/>
      <point x="428" y="19"/>
      <point x="349" y="19" type="curve" smooth="yes"/>
    </contour>
  </outline>
</glyph>
<glyph name="uni046A" format="2">
  <advance width="600"/>
  <unicode hex="046A"/>
  <outline>
    <contour>
      <point x="2" y="0" type="line"/>
      <point x="26" y="0" type="line"/>
      <point x="170" y="350" type="line"/>
      <point x="289" y="350" type="line"/>
      <point x="289" y="0" type="line"/>
      <point x="311" y="0" type="line"/>
      <point x="311" y="350" type="line"/>
      <point x="430" y="350" type="line"/>
      <point x="574" y="0" type="line"/>
      <point x="598" y="0" type="line"/>
      <point x="466" y="318" type="line" smooth="yes"/>
      <point x="458" y="338"/>
      <point x="449" y="355"/>
      <point x="436" y="358" type="curve"/>
      <point x="436" y="361" type="line"/>
      <point x="571" y="678" type="line"/>
      <point x="571" y="698" type="line"/>
      <point x="29" y="698" type="line"/>
      <point x="29" y="678" type="line"/>
      <point x="164" y="361" type="line"/>
      <point x="164" y="358" type="line"/>
      <point x="151" y="355"/>
      <point x="142" y="338"/>
      <point x="134" y="318" type="curve" smooth="yes"/>
    </contour>
    <contour>
      <point x="181" y="370" type="line"/>
      <point x="54" y="673" type="line"/>
      <point x="54" y="678" type="line"/>
      <point x="546" y="678" type="line"/>
      <point x="546" y="673" type="line"/>
      <point x="419" y="370" type="line"/>
    </contour>
  </outline>
</glyph>
<glyph name="uni046B" format="2">
  <advance width="600"/>
  <unicode hex="046B"/>
  <outline>
    <contour>
      <point x="42" y="0" type="line"/>
      <point x="65" y="0" type="line"/>
      <point x="163" y="261" type="line"/>
      <point x="289" y="261" type="line"/>
      <point x="289" y="0" type="line"/>
      <point x="310" y="0" type="line"/>
      <point x="310" y="261" type="line"/>
      <point x="436" y="261" type="line"/>
      <point x="534" y="0" type="line"/>
      <point x="557" y="0" type="line"/>
      <point x="470" y="231" type="line" smooth="yes"/>
      <point x="463" y="250"/>
      <point x="455" y="266"/>
      <point x="440" y="269" type="curve"/>
      <point x="440" y="272" type="line"/>
      <point x="555" y="497" type="line"/>
      <point x="555" y="516" type="line"/>
      <point x="44" y="516" type="line"/>
      <point x="44" y="497" type="line"/>
      <point x="159" y="272" type="line"/>
      <point x="159" y="269" type="line"/>
      <point x="144" y="266"/>
      <point x="136" y="250"/>
      <point x="129" y="231" type="curve" smooth="yes"/>
    </contour>
    <contour>
      <point x="177" y="280" type="line"/>
      <point x="69" y="492" type="line"/>
      <point x="69" y="497" type="line"/>
      <point x="530" y="497" type="line"/>
      <point x="530" y="492" type="line"/>
      <point x="422" y="280" type="line"/>
    </contour>
  </outline>
</glyph>
<glyph name="uni0472" format="2">
  <advance width="600"/>
  <unicode hex="0472"/>
  <outline>
    <contour>
      <point x="300" y="-12" type="curve" smooth="yes"/>
      <point x="446" y="-12"/>
      <point x="529" y="93"/>
      <point x="529" y="349" type="curve" smooth="yes"/>
      <point x="529" y="605"/>
      <point x="446" y="710"/>
      <point x="300" y="710" type="curve" smooth="yes"/>
      <point x="154" y="710"/>
      <point x="71" y="605"/>
      <point x="71" y="349" type="curve" smooth="yes"/>
      <point x="71" y="93"/>
      <point x="154" y="-12"/>
    </contour>
    <contour>
      <point x="300" y="8" type="curve" smooth="yes"/>
      <point x="167" y="8"/>
      <point x="95" y="112"/>
      <point x="95" y="317" type="curve" smooth="yes"/>
      <point x="95" y="338" type="line"/>
      <point x="122" y="368"/>
      <point x="150" y="380"/>
      <point x="185" y="380" type="curve" smooth="yes"/>
      <point x="218" y="380"/>
      <point x="247" y="369"/>
      <point x="295" y="343" type="curve" smooth="yes"/>
      <point x="347" y="315"/>
      <point x="380" y="304"/>
      <point x="414" y="304" type="curve" smooth="yes"/>
      <point x="453" y="304"/>
      <point x="484" y="320"/>
      <point x="505" y="342" type="curve"/>
      <point x="505" y="317" type="line" smooth="yes"/>
      <point x="505" y="112"/>
      <point x="433" y="8"/>
    </contour>
    <contour>
      <point x="95" y="381" type="line" smooth="yes"/>
      <point x="95" y="586"/>
      <point x="167" y="690"/>
      <point x="300" y="690" type="curve" smooth="yes"/>
      <point x="433" y="690"/>
      <point x="505" y="586"/>
      <point x="505" y="381" type="curve" smooth="yes"/>
      <point x="505" y="366" type="line"/>
      <point x="478" y="336"/>
      <point x="450" y="324"/>
      <point x="415" y="324" type="curve" smooth="yes"/>
      <point x="382" y="324"/>
      <point x="354" y="335"/>
      <point x="306" y="361" type="curve" smooth="yes"/>
      <point x="254" y="389"/>
      <point x="220" y="400"/>
      <point x="186" y="400" type="curve" smooth="yes"/>
      <point x="147" y="400"/>
      <point x="116" y="384"/>
      <point x="95" y="362" type="curve"/>
    </contour>
  </outline>
</glyph>
<glyph name="uni0473" format="2">
  <advance width="600"/>
  <unicode hex="0473"/>
  <outline>
    <contour>
      <point x="300" y="-12" type="curve" smooth="yes"/>
      <point x="432" y="-12"/>
      <point x="510" y="79"/>
      <point x="510" y="258" type="curve" smooth="yes"/>
      <point x="510" y="437"/>
      <point x="432" y="528"/>
      <point x="300" y="528" type="curve" smooth="yes"/>
      <point x="168" y="528"/>
      <point x="90" y="437"/>
      <point x="90" y="258" type="curve" smooth="yes"/>
      <point x="90" y="79"/>
      <point x="168" y="-12"/>
    </contour>
    <contour>
      <point x="300" y="7" type="curve" smooth="yes"/>
      <point x="180" y="7"/>
      <point x="113" y="94"/>
      <point x="113" y="234" type="curve" smooth="yes"/>
      <point x="113" y="254" type="line"/>
      <point x="138" y="280"/>
      <point x="160" y="292"/>
      <point x="194" y="292" type="curve" smooth="yes"/>
      <point x="224" y="292"/>
      <point x="245" y="282"/>
      <point x="294" y="256" type="curve" smooth="yes"/>
      <point x="347" y="228"/>
      <point x="373" y="217"/>
      <point x="405" y="217" type="curve" smooth="yes"/>
      <point x="443" y="217"/>
      <point x="464" y="230"/>
      <point x="487" y="252" type="curve"/>
      <point x="487" y="234" type="line" smooth="yes"/>
      <point x="487" y="94"/>
      <point x="420" y="7"/>
    </contour>
    <contour>
      <point x="300" y="509" type="curve" smooth="yes"/>
      <point x="420" y="509"/>
      <point x="487" y="422"/>
      <point x="487" y="282" type="curve" smooth="yes"/>
      <point x="487" y="275" type="line"/>
      <point x="462" y="249"/>
      <point x="440" y="237"/>
      <point x="406" y="237" type="curve" smooth="yes"/>
      <point x="376" y="237"/>
      <point x="355" y="247"/>
      <point x="306" y="273" type="curve" smooth="yes"/>
      <point x="253" y="301"/>
      <point x="227" y="312"/>
      <point x="195" y="312" type="curve" smooth="yes"/>
      <point x="157" y="312"/>
      <point x="136" y="299"/>
      <point x="113" y="277" type="curve"/>
      <point x="113" y="282" type="line" smooth="yes"/>
      <point x="113" y="422"/>
      <point x="180" y="509"/>
    </contour>
  </outline>
</glyph>
<glyph name="uni0474" format="2">
  <advance width="600"/>
  <unicode hex="0474"/>
  <outline>
    <contour>
      <point x="315" y="0" type="line"/>
      <point x="522" y="678" type="line"/>
      <point x="624" y="678" type="line"/>
      <point x="624" y="698" type="line"/>
      <point x="534" y="698" type="line" smooth="yes"/>
      <point x="515" y="698"/>
      <point x="503" y="690"/>
      <point x="497" y="670" type="curve" smooth="yes"/>
      <point x="302" y="25" type="line"/>
      <point x="299" y="25" type="line"/>
      <point x="79" y="698" type="line"/>
      <point x="55" y="698" type="line"/>
      <point x="285" y="0" type="line"/>
    </contour>
  </outline>
</glyph>
<glyph name="uni0475" format="2">
  <advance width="600"/>
  <unicode hex="0475"/>
  <outline>
    <contour>
      <point x="313" y="0" type="line"/>
      <point x="471" y="497" type="line"/>
      <point x="547" y="497" type="line"/>
      <point x="547" y="516" type="line"/>
      <point x="480" y="516" type="line" smooth="yes"/>
      <point x="462" y="516"/>
      <point x="454" y="508"/>
      <point x="449" y="493" type="curve" smooth="yes"/>
      <point x="302" y="24" type="line"/>
      <point x="299" y="24" type="line"/>
      <point x="115" y="516" type="line"/>
      <point x="93" y="516" type="line"/>
      <point x="287" y="0" type="line"/>
    </contour>
  </outline>
</glyph>
